G04 #@! TF.FileFunction,Legend,Top*
%FSLAX46Y46*%
G04 Gerber Fmt 4.6, Leading zero omitted, Abs format (unit mm)*
G04 Created by KiCad (PCBNEW 4.0.4-stable) date 07/21/17 22:17:58*
%MOMM*%
%LPD*%
G01*
G04 APERTURE LIST*
%ADD10C,0.100000*%
%ADD11C,0.400000*%
%ADD12C,0.300000*%
%ADD13C,0.200000*%
%ADD14C,0.120000*%
%ADD15C,0.150000*%
G04 APERTURE END LIST*
D10*
D11*
X156636247Y-92751162D02*
X156636247Y-90751162D01*
X157398152Y-90751162D01*
X157588628Y-90846400D01*
X157683867Y-90941638D01*
X157779105Y-91132114D01*
X157779105Y-91417829D01*
X157683867Y-91608305D01*
X157588628Y-91703543D01*
X157398152Y-91798781D01*
X156636247Y-91798781D01*
X158636247Y-91703543D02*
X159302914Y-91703543D01*
X159588628Y-92751162D02*
X158636247Y-92751162D01*
X158636247Y-90751162D01*
X159588628Y-90751162D01*
X160160057Y-90751162D02*
X161302914Y-90751162D01*
X160731486Y-92751162D02*
X160731486Y-90751162D01*
X163398153Y-90655924D02*
X161683867Y-93227352D01*
X165207677Y-92560686D02*
X165112439Y-92655924D01*
X164826724Y-92751162D01*
X164636248Y-92751162D01*
X164350534Y-92655924D01*
X164160058Y-92465448D01*
X164064819Y-92274971D01*
X163969581Y-91894019D01*
X163969581Y-91608305D01*
X164064819Y-91227352D01*
X164160058Y-91036876D01*
X164350534Y-90846400D01*
X164636248Y-90751162D01*
X164826724Y-90751162D01*
X165112439Y-90846400D01*
X165207677Y-90941638D01*
X166731486Y-91703543D02*
X167017200Y-91798781D01*
X167112439Y-91894019D01*
X167207677Y-92084495D01*
X167207677Y-92370210D01*
X167112439Y-92560686D01*
X167017200Y-92655924D01*
X166826724Y-92751162D01*
X166064819Y-92751162D01*
X166064819Y-90751162D01*
X166731486Y-90751162D01*
X166921962Y-90846400D01*
X167017200Y-90941638D01*
X167112439Y-91132114D01*
X167112439Y-91322590D01*
X167017200Y-91513067D01*
X166921962Y-91608305D01*
X166731486Y-91703543D01*
X166064819Y-91703543D01*
X168064819Y-92751162D02*
X168064819Y-90751162D01*
X168731486Y-92179733D01*
X169398153Y-90751162D01*
X169398153Y-92751162D01*
D12*
X207615600Y-100713943D02*
X207615600Y-100094895D01*
X208044171Y-100837752D02*
X206544171Y-100404419D01*
X208044171Y-99971086D01*
X208044171Y-98856800D02*
X208044171Y-99599657D01*
X208044171Y-99228228D02*
X206544171Y-99228228D01*
X206758457Y-99352038D01*
X206901314Y-99475847D01*
X206972743Y-99599657D01*
X206687029Y-98361562D02*
X206615600Y-98299657D01*
X206544171Y-98175848D01*
X206544171Y-97866324D01*
X206615600Y-97742514D01*
X206687029Y-97680610D01*
X206829886Y-97618705D01*
X206972743Y-97618705D01*
X207187029Y-97680610D01*
X208044171Y-98423467D01*
X208044171Y-97618705D01*
X207901314Y-97061562D02*
X207972743Y-96999657D01*
X208044171Y-97061562D01*
X207972743Y-97123467D01*
X207901314Y-97061562D01*
X208044171Y-97061562D01*
X207115600Y-97061562D02*
X207187029Y-96999657D01*
X207258457Y-97061562D01*
X207187029Y-97123467D01*
X207115600Y-97061562D01*
X207258457Y-97061562D01*
X121075829Y-109163657D02*
X121475829Y-109163657D01*
X121647258Y-109949371D02*
X121075829Y-109949371D01*
X121075829Y-108449371D01*
X121647258Y-108449371D01*
X122161543Y-109949371D02*
X122161543Y-108449371D01*
X122847258Y-109949371D01*
X122847258Y-108449371D01*
X123361543Y-109520800D02*
X123932972Y-109520800D01*
X123247258Y-109949371D02*
X123647258Y-108449371D01*
X124047258Y-109949371D01*
X124847257Y-109163657D02*
X125018686Y-109235086D01*
X125075829Y-109306514D01*
X125132972Y-109449371D01*
X125132972Y-109663657D01*
X125075829Y-109806514D01*
X125018686Y-109877943D01*
X124904400Y-109949371D01*
X124447257Y-109949371D01*
X124447257Y-108449371D01*
X124847257Y-108449371D01*
X124961543Y-108520800D01*
X125018686Y-108592229D01*
X125075829Y-108735086D01*
X125075829Y-108877943D01*
X125018686Y-109020800D01*
X124961543Y-109092229D01*
X124847257Y-109163657D01*
X124447257Y-109163657D01*
X126218686Y-109949371D02*
X125647257Y-109949371D01*
X125647257Y-108449371D01*
X126618686Y-109163657D02*
X127018686Y-109163657D01*
X127190115Y-109949371D02*
X126618686Y-109949371D01*
X126618686Y-108449371D01*
X127190115Y-108449371D01*
X124264457Y-48328971D02*
X123764457Y-47614686D01*
X123407314Y-48328971D02*
X123407314Y-46828971D01*
X123978742Y-46828971D01*
X124121600Y-46900400D01*
X124193028Y-46971829D01*
X124264457Y-47114686D01*
X124264457Y-47328971D01*
X124193028Y-47471829D01*
X124121600Y-47543257D01*
X123978742Y-47614686D01*
X123407314Y-47614686D01*
X125693028Y-46900400D02*
X125550171Y-46828971D01*
X125335885Y-46828971D01*
X125121600Y-46900400D01*
X124978742Y-47043257D01*
X124907314Y-47186114D01*
X124835885Y-47471829D01*
X124835885Y-47686114D01*
X124907314Y-47971829D01*
X124978742Y-48114686D01*
X125121600Y-48257543D01*
X125335885Y-48328971D01*
X125478742Y-48328971D01*
X125693028Y-48257543D01*
X125764457Y-48186114D01*
X125764457Y-47686114D01*
X125478742Y-47686114D01*
X126907314Y-47543257D02*
X127121600Y-47614686D01*
X127193028Y-47686114D01*
X127264457Y-47828971D01*
X127264457Y-48043257D01*
X127193028Y-48186114D01*
X127121600Y-48257543D01*
X126978742Y-48328971D01*
X126407314Y-48328971D01*
X126407314Y-46828971D01*
X126907314Y-46828971D01*
X127050171Y-46900400D01*
X127121600Y-46971829D01*
X127193028Y-47114686D01*
X127193028Y-47257543D01*
X127121600Y-47400400D01*
X127050171Y-47471829D01*
X126907314Y-47543257D01*
X126407314Y-47543257D01*
X127907314Y-48328971D02*
X127907314Y-46828971D01*
X130050171Y-46828971D02*
X130335885Y-46828971D01*
X130478743Y-46900400D01*
X130621600Y-47043257D01*
X130693028Y-47328971D01*
X130693028Y-47828971D01*
X130621600Y-48114686D01*
X130478743Y-48257543D01*
X130335885Y-48328971D01*
X130050171Y-48328971D01*
X129907314Y-48257543D01*
X129764457Y-48114686D01*
X129693028Y-47828971D01*
X129693028Y-47328971D01*
X129764457Y-47043257D01*
X129907314Y-46900400D01*
X130050171Y-46828971D01*
X131335886Y-46828971D02*
X131335886Y-48043257D01*
X131407314Y-48186114D01*
X131478743Y-48257543D01*
X131621600Y-48328971D01*
X131907314Y-48328971D01*
X132050172Y-48257543D01*
X132121600Y-48186114D01*
X132193029Y-48043257D01*
X132193029Y-46828971D01*
X132693029Y-46828971D02*
X133550172Y-46828971D01*
X133121601Y-48328971D02*
X133121601Y-46828971D01*
X119639543Y-84761200D02*
X119639543Y-83618343D01*
X119210971Y-82904057D02*
X119639543Y-81761200D01*
X120068114Y-82904057D01*
X113962228Y-83862171D02*
X114462228Y-85362171D01*
X114962228Y-83862171D01*
X115462228Y-85219314D02*
X115533656Y-85290743D01*
X115462228Y-85362171D01*
X115390799Y-85290743D01*
X115462228Y-85219314D01*
X115462228Y-85362171D01*
X116176514Y-85362171D02*
X116176514Y-83862171D01*
X116890800Y-85362171D02*
X116890800Y-83862171D01*
X117747943Y-85362171D01*
X117747943Y-83862171D01*
X118462229Y-84790743D02*
X119605086Y-84790743D01*
D13*
X116189771Y-52765257D02*
X116189771Y-51565257D01*
X116875486Y-52765257D01*
X116875486Y-51565257D01*
X117675486Y-51565257D02*
X117904057Y-51565257D01*
X118018343Y-51622400D01*
X118132629Y-51736686D01*
X118189771Y-51965257D01*
X118189771Y-52365257D01*
X118132629Y-52593829D01*
X118018343Y-52708114D01*
X117904057Y-52765257D01*
X117675486Y-52765257D01*
X117561200Y-52708114D01*
X117446914Y-52593829D01*
X117389771Y-52365257D01*
X117389771Y-51965257D01*
X117446914Y-51736686D01*
X117561200Y-51622400D01*
X117675486Y-51565257D01*
X119389772Y-52765257D02*
X118989772Y-52193829D01*
X118704057Y-52765257D02*
X118704057Y-51565257D01*
X119161200Y-51565257D01*
X119275486Y-51622400D01*
X119332629Y-51679543D01*
X119389772Y-51793829D01*
X119389772Y-51965257D01*
X119332629Y-52079543D01*
X119275486Y-52136686D01*
X119161200Y-52193829D01*
X118704057Y-52193829D01*
X119904057Y-52765257D02*
X119904057Y-51565257D01*
X120304057Y-52422400D01*
X120704057Y-51565257D01*
X120704057Y-52765257D01*
X122189772Y-51965257D02*
X121275486Y-52308114D01*
X122189772Y-52650971D01*
X122761200Y-51965257D02*
X123675486Y-52308114D01*
X122761200Y-52650971D01*
X124246914Y-52765257D02*
X124246914Y-51565257D01*
X124818343Y-52765257D02*
X124818343Y-51565257D01*
X125504058Y-52765257D01*
X125504058Y-51565257D01*
X125904058Y-51565257D02*
X126304058Y-52765257D01*
X126704058Y-51565257D01*
D12*
X131355257Y-105726800D02*
X131212400Y-105655371D01*
X130998114Y-105655371D01*
X130783829Y-105726800D01*
X130640971Y-105869657D01*
X130569543Y-106012514D01*
X130498114Y-106298229D01*
X130498114Y-106512514D01*
X130569543Y-106798229D01*
X130640971Y-106941086D01*
X130783829Y-107083943D01*
X130998114Y-107155371D01*
X131140971Y-107155371D01*
X131355257Y-107083943D01*
X131426686Y-107012514D01*
X131426686Y-106512514D01*
X131140971Y-106512514D01*
X137523600Y-105706171D02*
X138023600Y-107206171D01*
X138523600Y-105706171D01*
X129849315Y-109755714D02*
X129787410Y-109827143D01*
X129601696Y-109898571D01*
X129477886Y-109898571D01*
X129292172Y-109827143D01*
X129168363Y-109684286D01*
X129106458Y-109541429D01*
X129044553Y-109255714D01*
X129044553Y-109041429D01*
X129106458Y-108755714D01*
X129168363Y-108612857D01*
X129292172Y-108470000D01*
X129477886Y-108398571D01*
X129601696Y-108398571D01*
X129787410Y-108470000D01*
X129849315Y-108541429D01*
X130654077Y-108398571D02*
X130901696Y-108398571D01*
X131025505Y-108470000D01*
X131149315Y-108612857D01*
X131211220Y-108898571D01*
X131211220Y-109398571D01*
X131149315Y-109684286D01*
X131025505Y-109827143D01*
X130901696Y-109898571D01*
X130654077Y-109898571D01*
X130530267Y-109827143D01*
X130406458Y-109684286D01*
X130344553Y-109398571D01*
X130344553Y-108898571D01*
X130406458Y-108612857D01*
X130530267Y-108470000D01*
X130654077Y-108398571D01*
X131768363Y-109898571D02*
X131768363Y-108398571D01*
X132201696Y-109470000D01*
X132635029Y-108398571D01*
X132635029Y-109898571D01*
X133254077Y-109898571D02*
X133254077Y-108398571D01*
X133749315Y-108398571D01*
X133873124Y-108470000D01*
X133935029Y-108541429D01*
X133996934Y-108684286D01*
X133996934Y-108898571D01*
X133935029Y-109041429D01*
X133873124Y-109112857D01*
X133749315Y-109184286D01*
X133254077Y-109184286D01*
X134801696Y-108398571D02*
X135049315Y-108398571D01*
X135173124Y-108470000D01*
X135296934Y-108612857D01*
X135358839Y-108898571D01*
X135358839Y-109398571D01*
X135296934Y-109684286D01*
X135173124Y-109827143D01*
X135049315Y-109898571D01*
X134801696Y-109898571D01*
X134677886Y-109827143D01*
X134554077Y-109684286D01*
X134492172Y-109398571D01*
X134492172Y-108898571D01*
X134554077Y-108612857D01*
X134677886Y-108470000D01*
X134801696Y-108398571D01*
X135854077Y-109827143D02*
X136039791Y-109898571D01*
X136349315Y-109898571D01*
X136473125Y-109827143D01*
X136535029Y-109755714D01*
X136596934Y-109612857D01*
X136596934Y-109470000D01*
X136535029Y-109327143D01*
X136473125Y-109255714D01*
X136349315Y-109184286D01*
X136101696Y-109112857D01*
X135977887Y-109041429D01*
X135915982Y-108970000D01*
X135854077Y-108827143D01*
X135854077Y-108684286D01*
X135915982Y-108541429D01*
X135977887Y-108470000D01*
X136101696Y-108398571D01*
X136411220Y-108398571D01*
X136596934Y-108470000D01*
X137154077Y-109898571D02*
X137154077Y-108398571D01*
X137587411Y-108398571D02*
X138330268Y-108398571D01*
X137958839Y-109898571D02*
X137958839Y-108398571D01*
X138763601Y-109112857D02*
X139196934Y-109112857D01*
X139382648Y-109898571D02*
X138763601Y-109898571D01*
X138763601Y-108398571D01*
X139382648Y-108398571D01*
X207258457Y-70339066D02*
X207258457Y-69905733D01*
X208044171Y-69720019D02*
X208044171Y-70339066D01*
X206544171Y-70339066D01*
X206544171Y-69720019D01*
X208044171Y-69162876D02*
X206544171Y-69162876D01*
X206544171Y-68853352D01*
X206615600Y-68667638D01*
X206758457Y-68543829D01*
X206901314Y-68481924D01*
X207187029Y-68420019D01*
X207401314Y-68420019D01*
X207687029Y-68481924D01*
X207829886Y-68543829D01*
X207972743Y-68667638D01*
X208044171Y-68853352D01*
X208044171Y-69162876D01*
X208044171Y-67862876D02*
X206544171Y-67862876D01*
X206544171Y-67429542D02*
X206544171Y-66686685D01*
X208044171Y-67058114D02*
X206544171Y-67058114D01*
X208044171Y-65510495D02*
X207329886Y-65943828D01*
X208044171Y-66253352D02*
X206544171Y-66253352D01*
X206544171Y-65758114D01*
X206615600Y-65634305D01*
X206687029Y-65572400D01*
X206829886Y-65510495D01*
X207044171Y-65510495D01*
X207187029Y-65572400D01*
X207258457Y-65634305D01*
X207329886Y-65758114D01*
X207329886Y-66253352D01*
X206544171Y-64705733D02*
X206544171Y-64458114D01*
X206615600Y-64334305D01*
X206758457Y-64210495D01*
X207044171Y-64148590D01*
X207544171Y-64148590D01*
X207829886Y-64210495D01*
X207972743Y-64334305D01*
X208044171Y-64458114D01*
X208044171Y-64705733D01*
X207972743Y-64829543D01*
X207829886Y-64953352D01*
X207544171Y-65015257D01*
X207044171Y-65015257D01*
X206758457Y-64953352D01*
X206615600Y-64829543D01*
X206544171Y-64705733D01*
X208044171Y-63591447D02*
X206544171Y-63591447D01*
X207615600Y-63158114D01*
X206544171Y-62724781D01*
X208044171Y-62724781D01*
X207472743Y-62105733D02*
X207472743Y-61115257D01*
X207044171Y-60496209D02*
X207472743Y-59505733D01*
X207901314Y-60496209D01*
X208044171Y-57936970D02*
X208044171Y-58794113D01*
X208044171Y-58365541D02*
X206544171Y-58365541D01*
X206758457Y-58508398D01*
X206901314Y-58651256D01*
X206972743Y-58794113D01*
X206687029Y-56222685D02*
X206615600Y-56151256D01*
X206544171Y-56008399D01*
X206544171Y-55651256D01*
X206615600Y-55508399D01*
X206687029Y-55436970D01*
X206829886Y-55365542D01*
X206972743Y-55365542D01*
X207187029Y-55436970D01*
X208044171Y-56294113D01*
X208044171Y-55365542D01*
X206544171Y-53722685D02*
X206544171Y-52794114D01*
X207115600Y-53294114D01*
X207115600Y-53079828D01*
X207187029Y-52936971D01*
X207258457Y-52865542D01*
X207401314Y-52794114D01*
X207758457Y-52794114D01*
X207901314Y-52865542D01*
X207972743Y-52936971D01*
X208044171Y-53079828D01*
X208044171Y-53508400D01*
X207972743Y-53651257D01*
X207901314Y-53722685D01*
X207044171Y-50365543D02*
X208044171Y-50365543D01*
X206472743Y-50722686D02*
X207544171Y-51079829D01*
X207544171Y-50151257D01*
X193616971Y-84319771D02*
X192116971Y-84319771D01*
X192831257Y-84319771D02*
X192831257Y-83462628D01*
X193616971Y-83462628D02*
X192116971Y-83462628D01*
X192831257Y-82748342D02*
X192831257Y-82248342D01*
X193616971Y-82034056D02*
X193616971Y-82748342D01*
X192116971Y-82748342D01*
X192116971Y-82034056D01*
X193188400Y-81462628D02*
X193188400Y-80748342D01*
X193616971Y-81605485D02*
X192116971Y-81105485D01*
X193616971Y-80605485D01*
X193616971Y-80105485D02*
X192116971Y-80105485D01*
X192116971Y-79748342D01*
X192188400Y-79534057D01*
X192331257Y-79391199D01*
X192474114Y-79319771D01*
X192759829Y-79248342D01*
X192974114Y-79248342D01*
X193259829Y-79319771D01*
X193402686Y-79391199D01*
X193545543Y-79534057D01*
X193616971Y-79748342D01*
X193616971Y-80105485D01*
X192831257Y-78605485D02*
X192831257Y-78105485D01*
X193616971Y-77891199D02*
X193616971Y-78605485D01*
X192116971Y-78605485D01*
X192116971Y-77891199D01*
X193616971Y-76391199D02*
X192902686Y-76891199D01*
X193616971Y-77248342D02*
X192116971Y-77248342D01*
X192116971Y-76676914D01*
X192188400Y-76534056D01*
X192259829Y-76462628D01*
X192402686Y-76391199D01*
X192616971Y-76391199D01*
X192759829Y-76462628D01*
X192831257Y-76534056D01*
X192902686Y-76676914D01*
X192902686Y-77248342D01*
X192116971Y-74819771D02*
X192116971Y-73962628D01*
X193616971Y-74391199D02*
X192116971Y-74391199D01*
X192116971Y-73176914D02*
X192116971Y-72891200D01*
X192188400Y-72748342D01*
X192331257Y-72605485D01*
X192616971Y-72534057D01*
X193116971Y-72534057D01*
X193402686Y-72605485D01*
X193545543Y-72748342D01*
X193616971Y-72891200D01*
X193616971Y-73176914D01*
X193545543Y-73319771D01*
X193402686Y-73462628D01*
X193116971Y-73534057D01*
X192616971Y-73534057D01*
X192331257Y-73462628D01*
X192188400Y-73319771D01*
X192116971Y-73176914D01*
X192116971Y-70748342D02*
X193331257Y-70748342D01*
X193474114Y-70676914D01*
X193545543Y-70605485D01*
X193616971Y-70462628D01*
X193616971Y-70176914D01*
X193545543Y-70034056D01*
X193474114Y-69962628D01*
X193331257Y-69891199D01*
X192116971Y-69891199D01*
X193616971Y-69176913D02*
X192116971Y-69176913D01*
X192116971Y-68819770D01*
X192188400Y-68605485D01*
X192331257Y-68462627D01*
X192474114Y-68391199D01*
X192759829Y-68319770D01*
X192974114Y-68319770D01*
X193259829Y-68391199D01*
X193402686Y-68462627D01*
X193545543Y-68605485D01*
X193616971Y-68819770D01*
X193616971Y-69176913D01*
X192116971Y-67819770D02*
X192116971Y-66819770D01*
X193616971Y-67462627D01*
X113478571Y-80293315D02*
X113478571Y-79436172D01*
X114978571Y-79864743D02*
X113478571Y-79864743D01*
X113478571Y-78650458D02*
X113478571Y-78364744D01*
X113550000Y-78221886D01*
X113692857Y-78079029D01*
X113978571Y-78007601D01*
X114478571Y-78007601D01*
X114764286Y-78079029D01*
X114907143Y-78221886D01*
X114978571Y-78364744D01*
X114978571Y-78650458D01*
X114907143Y-78793315D01*
X114764286Y-78936172D01*
X114478571Y-79007601D01*
X113978571Y-79007601D01*
X113692857Y-78936172D01*
X113550000Y-78793315D01*
X113478571Y-78650458D01*
X114978571Y-76221886D02*
X113478571Y-76221886D01*
X113478571Y-75650458D01*
X113550000Y-75507600D01*
X113621429Y-75436172D01*
X113764286Y-75364743D01*
X113978571Y-75364743D01*
X114121429Y-75436172D01*
X114192857Y-75507600D01*
X114264286Y-75650458D01*
X114264286Y-76221886D01*
X114192857Y-74721886D02*
X114192857Y-74221886D01*
X114978571Y-74007600D02*
X114978571Y-74721886D01*
X113478571Y-74721886D01*
X113478571Y-74007600D01*
X113478571Y-73579029D02*
X113478571Y-72721886D01*
X114978571Y-73150457D02*
X113478571Y-73150457D01*
X114978571Y-71079029D02*
X113478571Y-71079029D01*
X114550000Y-70579029D01*
X113478571Y-70079029D01*
X114978571Y-70079029D01*
X113478571Y-69079029D02*
X113478571Y-68793315D01*
X113550000Y-68650457D01*
X113692857Y-68507600D01*
X113978571Y-68436172D01*
X114478571Y-68436172D01*
X114764286Y-68507600D01*
X114907143Y-68650457D01*
X114978571Y-68793315D01*
X114978571Y-69079029D01*
X114907143Y-69221886D01*
X114764286Y-69364743D01*
X114478571Y-69436172D01*
X113978571Y-69436172D01*
X113692857Y-69364743D01*
X113550000Y-69221886D01*
X113478571Y-69079029D01*
X114978571Y-67793314D02*
X113478571Y-67793314D01*
X114978571Y-66936171D01*
X113478571Y-66936171D01*
X165017143Y-53639257D02*
X164517143Y-53639257D01*
X164517143Y-54424971D02*
X164517143Y-52924971D01*
X165231429Y-52924971D01*
X166517143Y-54424971D02*
X165802857Y-54424971D01*
X165802857Y-52924971D01*
X167302857Y-53710686D02*
X167302857Y-54424971D01*
X166802857Y-52924971D02*
X167302857Y-53710686D01*
X167802857Y-52924971D01*
X168588571Y-52924971D02*
X168874285Y-52924971D01*
X169017143Y-52996400D01*
X169160000Y-53139257D01*
X169231428Y-53424971D01*
X169231428Y-53924971D01*
X169160000Y-54210686D01*
X169017143Y-54353543D01*
X168874285Y-54424971D01*
X168588571Y-54424971D01*
X168445714Y-54353543D01*
X168302857Y-54210686D01*
X168231428Y-53924971D01*
X168231428Y-53424971D01*
X168302857Y-53139257D01*
X168445714Y-52996400D01*
X168588571Y-52924971D01*
X169874286Y-52924971D02*
X169874286Y-54139257D01*
X169945714Y-54282114D01*
X170017143Y-54353543D01*
X170160000Y-54424971D01*
X170445714Y-54424971D01*
X170588572Y-54353543D01*
X170660000Y-54282114D01*
X170731429Y-54139257D01*
X170731429Y-52924971D01*
X171231429Y-52924971D02*
X172088572Y-52924971D01*
X171660001Y-54424971D02*
X171660001Y-52924971D01*
X172517143Y-54353543D02*
X172731429Y-54424971D01*
X173088572Y-54424971D01*
X173231429Y-54353543D01*
X173302858Y-54282114D01*
X173374286Y-54139257D01*
X173374286Y-53996400D01*
X173302858Y-53853543D01*
X173231429Y-53782114D01*
X173088572Y-53710686D01*
X172802858Y-53639257D01*
X172660000Y-53567829D01*
X172588572Y-53496400D01*
X172517143Y-53353543D01*
X172517143Y-53210686D01*
X172588572Y-53067829D01*
X172660000Y-52996400D01*
X172802858Y-52924971D01*
X173160000Y-52924971D01*
X173374286Y-52996400D01*
X115706744Y-109949371D02*
X115306744Y-109235086D01*
X115021029Y-109949371D02*
X115021029Y-108449371D01*
X115478172Y-108449371D01*
X115592458Y-108520800D01*
X115649601Y-108592229D01*
X115706744Y-108735086D01*
X115706744Y-108949371D01*
X115649601Y-109092229D01*
X115592458Y-109163657D01*
X115478172Y-109235086D01*
X115021029Y-109235086D01*
X116221029Y-109163657D02*
X116621029Y-109163657D01*
X116792458Y-109949371D02*
X116221029Y-109949371D01*
X116221029Y-108449371D01*
X116792458Y-108449371D01*
X117249600Y-109877943D02*
X117421029Y-109949371D01*
X117706743Y-109949371D01*
X117821029Y-109877943D01*
X117878172Y-109806514D01*
X117935315Y-109663657D01*
X117935315Y-109520800D01*
X117878172Y-109377943D01*
X117821029Y-109306514D01*
X117706743Y-109235086D01*
X117478172Y-109163657D01*
X117363886Y-109092229D01*
X117306743Y-109020800D01*
X117249600Y-108877943D01*
X117249600Y-108735086D01*
X117306743Y-108592229D01*
X117363886Y-108520800D01*
X117478172Y-108449371D01*
X117763886Y-108449371D01*
X117935315Y-108520800D01*
X118449600Y-109163657D02*
X118849600Y-109163657D01*
X119021029Y-109949371D02*
X118449600Y-109949371D01*
X118449600Y-108449371D01*
X119021029Y-108449371D01*
X119363886Y-108449371D02*
X120049600Y-108449371D01*
X119706743Y-109949371D02*
X119706743Y-108449371D01*
X208074343Y-87508762D02*
X208145771Y-87323048D01*
X208145771Y-87013524D01*
X208074343Y-86889714D01*
X208002914Y-86827810D01*
X207860057Y-86765905D01*
X207717200Y-86765905D01*
X207574343Y-86827810D01*
X207502914Y-86889714D01*
X207431486Y-87013524D01*
X207360057Y-87261143D01*
X207288629Y-87384952D01*
X207217200Y-87446857D01*
X207074343Y-87508762D01*
X206931486Y-87508762D01*
X206788629Y-87446857D01*
X206717200Y-87384952D01*
X206645771Y-87261143D01*
X206645771Y-86951619D01*
X206717200Y-86765905D01*
X207360057Y-86208762D02*
X207360057Y-85775429D01*
X208145771Y-85589715D02*
X208145771Y-86208762D01*
X206645771Y-86208762D01*
X206645771Y-85589715D01*
X208145771Y-84413525D02*
X208145771Y-85032572D01*
X206645771Y-85032572D01*
X207145771Y-82989715D02*
X207574343Y-83980191D01*
X208002914Y-82989715D01*
X207145771Y-82370667D02*
X207574343Y-81380191D01*
X208002914Y-82370667D01*
X208145771Y-80761143D02*
X206645771Y-80761143D01*
X206645771Y-80451619D01*
X206717200Y-80265905D01*
X206860057Y-80142096D01*
X207002914Y-80080191D01*
X207288629Y-80018286D01*
X207502914Y-80018286D01*
X207788629Y-80080191D01*
X207931486Y-80142096D01*
X208074343Y-80265905D01*
X208145771Y-80451619D01*
X208145771Y-80761143D01*
X208145771Y-79461143D02*
X206645771Y-79461143D01*
X208145771Y-78842095D02*
X206645771Y-78842095D01*
X206645771Y-78346857D01*
X206717200Y-78223048D01*
X206788629Y-78161143D01*
X206931486Y-78099238D01*
X207145771Y-78099238D01*
X207288629Y-78161143D01*
X207360057Y-78223048D01*
X207431486Y-78346857D01*
X207431486Y-78842095D01*
X115029657Y-60544971D02*
X115529657Y-62044971D01*
X116029657Y-60544971D01*
X116529657Y-62044971D02*
X116529657Y-60544971D01*
X117243943Y-62044971D02*
X117243943Y-60544971D01*
X117601086Y-60544971D01*
X117815371Y-60616400D01*
X117958229Y-60759257D01*
X118029657Y-60902114D01*
X118101086Y-61187829D01*
X118101086Y-61402114D01*
X118029657Y-61687829D01*
X117958229Y-61830686D01*
X117815371Y-61973543D01*
X117601086Y-62044971D01*
X117243943Y-62044971D01*
X115727315Y-57192171D02*
X116227315Y-58692171D01*
X116727315Y-57192171D01*
X117155886Y-58620743D02*
X117370172Y-58692171D01*
X117727315Y-58692171D01*
X117870172Y-58620743D01*
X117941601Y-58549314D01*
X118013029Y-58406457D01*
X118013029Y-58263600D01*
X117941601Y-58120743D01*
X117870172Y-58049314D01*
X117727315Y-57977886D01*
X117441601Y-57906457D01*
X117298743Y-57835029D01*
X117227315Y-57763600D01*
X117155886Y-57620743D01*
X117155886Y-57477886D01*
X117227315Y-57335029D01*
X117298743Y-57263600D01*
X117441601Y-57192171D01*
X117798743Y-57192171D01*
X118013029Y-57263600D01*
X115697143Y-55440971D02*
X115697143Y-53940971D01*
X115697143Y-54655257D02*
X116554286Y-54655257D01*
X116554286Y-55440971D02*
X116554286Y-53940971D01*
X117197143Y-55369543D02*
X117411429Y-55440971D01*
X117768572Y-55440971D01*
X117911429Y-55369543D01*
X117982858Y-55298114D01*
X118054286Y-55155257D01*
X118054286Y-55012400D01*
X117982858Y-54869543D01*
X117911429Y-54798114D01*
X117768572Y-54726686D01*
X117482858Y-54655257D01*
X117340000Y-54583829D01*
X117268572Y-54512400D01*
X117197143Y-54369543D01*
X117197143Y-54226686D01*
X117268572Y-54083829D01*
X117340000Y-54012400D01*
X117482858Y-53940971D01*
X117840000Y-53940971D01*
X118054286Y-54012400D01*
X138718115Y-47684571D02*
X138718115Y-48684571D01*
X138360972Y-47113143D02*
X138003829Y-48184571D01*
X138932401Y-48184571D01*
X139789543Y-47184571D02*
X139932400Y-47184571D01*
X140075257Y-47256000D01*
X140146686Y-47327429D01*
X140218115Y-47470286D01*
X140289543Y-47756000D01*
X140289543Y-48113143D01*
X140218115Y-48398857D01*
X140146686Y-48541714D01*
X140075257Y-48613143D01*
X139932400Y-48684571D01*
X139789543Y-48684571D01*
X139646686Y-48613143D01*
X139575257Y-48541714D01*
X139503829Y-48398857D01*
X139432400Y-48113143D01*
X139432400Y-47756000D01*
X139503829Y-47470286D01*
X139575257Y-47327429D01*
X139646686Y-47256000D01*
X139789543Y-47184571D01*
X142003828Y-47113143D02*
X140718114Y-49041714D01*
X142718115Y-47827429D02*
X142575257Y-47756000D01*
X142503829Y-47684571D01*
X142432400Y-47541714D01*
X142432400Y-47470286D01*
X142503829Y-47327429D01*
X142575257Y-47256000D01*
X142718115Y-47184571D01*
X143003829Y-47184571D01*
X143146686Y-47256000D01*
X143218115Y-47327429D01*
X143289543Y-47470286D01*
X143289543Y-47541714D01*
X143218115Y-47684571D01*
X143146686Y-47756000D01*
X143003829Y-47827429D01*
X142718115Y-47827429D01*
X142575257Y-47898857D01*
X142503829Y-47970286D01*
X142432400Y-48113143D01*
X142432400Y-48398857D01*
X142503829Y-48541714D01*
X142575257Y-48613143D01*
X142718115Y-48684571D01*
X143003829Y-48684571D01*
X143146686Y-48613143D01*
X143218115Y-48541714D01*
X143289543Y-48398857D01*
X143289543Y-48113143D01*
X143218115Y-47970286D01*
X143146686Y-47898857D01*
X143003829Y-47827429D01*
X144218114Y-47184571D02*
X144360971Y-47184571D01*
X144503828Y-47256000D01*
X144575257Y-47327429D01*
X144646686Y-47470286D01*
X144718114Y-47756000D01*
X144718114Y-48113143D01*
X144646686Y-48398857D01*
X144575257Y-48541714D01*
X144503828Y-48613143D01*
X144360971Y-48684571D01*
X144218114Y-48684571D01*
X144075257Y-48613143D01*
X144003828Y-48541714D01*
X143932400Y-48398857D01*
X143860971Y-48113143D01*
X143860971Y-47756000D01*
X143932400Y-47470286D01*
X144003828Y-47327429D01*
X144075257Y-47256000D01*
X144218114Y-47184571D01*
X146432399Y-47113143D02*
X145146685Y-49041714D01*
X146860971Y-48256000D02*
X147575257Y-48256000D01*
X146718114Y-48684571D02*
X147218114Y-47184571D01*
X147718114Y-48684571D01*
X148218114Y-47184571D02*
X148218114Y-48398857D01*
X148289542Y-48541714D01*
X148360971Y-48613143D01*
X148503828Y-48684571D01*
X148789542Y-48684571D01*
X148932400Y-48613143D01*
X149003828Y-48541714D01*
X149075257Y-48398857D01*
X149075257Y-47184571D01*
X149575257Y-47184571D02*
X150432400Y-47184571D01*
X150003829Y-48684571D02*
X150003829Y-47184571D01*
X151218114Y-47184571D02*
X151503828Y-47184571D01*
X151646686Y-47256000D01*
X151789543Y-47398857D01*
X151860971Y-47684571D01*
X151860971Y-48184571D01*
X151789543Y-48470286D01*
X151646686Y-48613143D01*
X151503828Y-48684571D01*
X151218114Y-48684571D01*
X151075257Y-48613143D01*
X150932400Y-48470286D01*
X150860971Y-48184571D01*
X150860971Y-47684571D01*
X150932400Y-47398857D01*
X151075257Y-47256000D01*
X151218114Y-47184571D01*
D13*
X141315695Y-60052686D02*
X141253790Y-60114590D01*
X141068076Y-60176495D01*
X140944266Y-60176495D01*
X140758552Y-60114590D01*
X140634743Y-59990781D01*
X140572838Y-59866971D01*
X140510933Y-59619352D01*
X140510933Y-59433638D01*
X140572838Y-59186019D01*
X140634743Y-59062210D01*
X140758552Y-58938400D01*
X140944266Y-58876495D01*
X141068076Y-58876495D01*
X141253790Y-58938400D01*
X141315695Y-59000305D01*
X142120457Y-58876495D02*
X142368076Y-58876495D01*
X142491885Y-58938400D01*
X142615695Y-59062210D01*
X142677600Y-59309829D01*
X142677600Y-59743162D01*
X142615695Y-59990781D01*
X142491885Y-60114590D01*
X142368076Y-60176495D01*
X142120457Y-60176495D01*
X141996647Y-60114590D01*
X141872838Y-59990781D01*
X141810933Y-59743162D01*
X141810933Y-59309829D01*
X141872838Y-59062210D01*
X141996647Y-58938400D01*
X142120457Y-58876495D01*
X143234743Y-60176495D02*
X143234743Y-58876495D01*
X143977600Y-60176495D01*
X143977600Y-58876495D01*
X144410934Y-58876495D02*
X145153791Y-58876495D01*
X144782362Y-60176495D02*
X144782362Y-58876495D01*
X146329981Y-60176495D02*
X145896648Y-59557448D01*
X145587124Y-60176495D02*
X145587124Y-58876495D01*
X146082362Y-58876495D01*
X146206171Y-58938400D01*
X146268076Y-59000305D01*
X146329981Y-59124114D01*
X146329981Y-59309829D01*
X146268076Y-59433638D01*
X146206171Y-59495543D01*
X146082362Y-59557448D01*
X145587124Y-59557448D01*
X147134743Y-58876495D02*
X147382362Y-58876495D01*
X147506171Y-58938400D01*
X147629981Y-59062210D01*
X147691886Y-59309829D01*
X147691886Y-59743162D01*
X147629981Y-59990781D01*
X147506171Y-60114590D01*
X147382362Y-60176495D01*
X147134743Y-60176495D01*
X147010933Y-60114590D01*
X146887124Y-59990781D01*
X146825219Y-59743162D01*
X146825219Y-59309829D01*
X146887124Y-59062210D01*
X147010933Y-58938400D01*
X147134743Y-58876495D01*
X148868076Y-60176495D02*
X148249029Y-60176495D01*
X148249029Y-58876495D01*
D12*
X193466401Y-104794857D02*
X193680687Y-104866286D01*
X193752115Y-104937714D01*
X193823544Y-105080571D01*
X193823544Y-105294857D01*
X193752115Y-105437714D01*
X193680687Y-105509143D01*
X193537829Y-105580571D01*
X192966401Y-105580571D01*
X192966401Y-104080571D01*
X193466401Y-104080571D01*
X193609258Y-104152000D01*
X193680687Y-104223429D01*
X193752115Y-104366286D01*
X193752115Y-104509143D01*
X193680687Y-104652000D01*
X193609258Y-104723429D01*
X193466401Y-104794857D01*
X192966401Y-104794857D01*
X194394972Y-105152000D02*
X195109258Y-105152000D01*
X194252115Y-105580571D02*
X194752115Y-104080571D01*
X195252115Y-105580571D01*
X196037829Y-104080571D02*
X196180686Y-104080571D01*
X196323543Y-104152000D01*
X196394972Y-104223429D01*
X196466401Y-104366286D01*
X196537829Y-104652000D01*
X196537829Y-105009143D01*
X196466401Y-105294857D01*
X196394972Y-105437714D01*
X196323543Y-105509143D01*
X196180686Y-105580571D01*
X196037829Y-105580571D01*
X195894972Y-105509143D01*
X195823543Y-105437714D01*
X195752115Y-105294857D01*
X195680686Y-105009143D01*
X195680686Y-104652000D01*
X195752115Y-104366286D01*
X195823543Y-104223429D01*
X195894972Y-104152000D01*
X196037829Y-104080571D01*
X141444115Y-104642457D02*
X141658401Y-104713886D01*
X141729829Y-104785314D01*
X141801258Y-104928171D01*
X141801258Y-105142457D01*
X141729829Y-105285314D01*
X141658401Y-105356743D01*
X141515543Y-105428171D01*
X140944115Y-105428171D01*
X140944115Y-103928171D01*
X141444115Y-103928171D01*
X141586972Y-103999600D01*
X141658401Y-104071029D01*
X141729829Y-104213886D01*
X141729829Y-104356743D01*
X141658401Y-104499600D01*
X141586972Y-104571029D01*
X141444115Y-104642457D01*
X140944115Y-104642457D01*
X142372686Y-104999600D02*
X143086972Y-104999600D01*
X142229829Y-105428171D02*
X142729829Y-103928171D01*
X143229829Y-105428171D01*
X144515543Y-105428171D02*
X143658400Y-105428171D01*
X144086972Y-105428171D02*
X144086972Y-103928171D01*
X143944115Y-104142457D01*
X143801257Y-104285314D01*
X143658400Y-104356743D01*
X145444114Y-103928171D02*
X145586971Y-103928171D01*
X145729828Y-103999600D01*
X145801257Y-104071029D01*
X145872686Y-104213886D01*
X145944114Y-104499600D01*
X145944114Y-104856743D01*
X145872686Y-105142457D01*
X145801257Y-105285314D01*
X145729828Y-105356743D01*
X145586971Y-105428171D01*
X145444114Y-105428171D01*
X145301257Y-105356743D01*
X145229828Y-105285314D01*
X145158400Y-105142457D01*
X145086971Y-104856743D01*
X145086971Y-104499600D01*
X145158400Y-104213886D01*
X145229828Y-104071029D01*
X145301257Y-103999600D01*
X145444114Y-103928171D01*
X142401255Y-95527733D02*
X142401255Y-94127733D01*
X142801255Y-95127733D01*
X143201255Y-94127733D01*
X143201255Y-95527733D01*
X143772684Y-94127733D02*
X143772684Y-95261067D01*
X143829827Y-95394400D01*
X143886970Y-95461067D01*
X144001256Y-95527733D01*
X144229827Y-95527733D01*
X144344113Y-95461067D01*
X144401256Y-95394400D01*
X144458399Y-95261067D01*
X144458399Y-94127733D01*
X145601256Y-95527733D02*
X145029827Y-95527733D01*
X145029827Y-94127733D01*
X145829828Y-94127733D02*
X146515542Y-94127733D01*
X146172685Y-95527733D02*
X146172685Y-94127733D01*
X146915542Y-95527733D02*
X146915542Y-94127733D01*
X147486971Y-94994400D02*
X148401257Y-94994400D01*
X148972685Y-94794400D02*
X149372685Y-94794400D01*
X149544114Y-95527733D02*
X148972685Y-95527733D01*
X148972685Y-94127733D01*
X149544114Y-94127733D01*
X150058399Y-95527733D02*
X150058399Y-94127733D01*
X150344114Y-94127733D01*
X150515542Y-94194400D01*
X150629828Y-94327733D01*
X150686971Y-94461067D01*
X150744114Y-94727733D01*
X150744114Y-94927733D01*
X150686971Y-95194400D01*
X150629828Y-95327733D01*
X150515542Y-95461067D01*
X150344114Y-95527733D01*
X150058399Y-95527733D01*
X151258399Y-95527733D02*
X151258399Y-94127733D01*
X151658400Y-94127733D02*
X152344114Y-94127733D01*
X152001257Y-95527733D02*
X152001257Y-94127733D01*
X152972686Y-94127733D02*
X153201257Y-94127733D01*
X153315543Y-94194400D01*
X153429829Y-94327733D01*
X153486971Y-94594400D01*
X153486971Y-95061067D01*
X153429829Y-95327733D01*
X153315543Y-95461067D01*
X153201257Y-95527733D01*
X152972686Y-95527733D01*
X152858400Y-95461067D01*
X152744114Y-95327733D01*
X152686971Y-95061067D01*
X152686971Y-94594400D01*
X152744114Y-94327733D01*
X152858400Y-94194400D01*
X152972686Y-94127733D01*
X154686972Y-95527733D02*
X154286972Y-94861067D01*
X154001257Y-95527733D02*
X154001257Y-94127733D01*
X154458400Y-94127733D01*
X154572686Y-94194400D01*
X154629829Y-94261067D01*
X154686972Y-94394400D01*
X154686972Y-94594400D01*
X154629829Y-94727733D01*
X154572686Y-94794400D01*
X154458400Y-94861067D01*
X154001257Y-94861067D01*
X156801258Y-95527733D02*
X156401258Y-94861067D01*
X156115543Y-95527733D02*
X156115543Y-94127733D01*
X156572686Y-94127733D01*
X156686972Y-94194400D01*
X156744115Y-94261067D01*
X156801258Y-94394400D01*
X156801258Y-94594400D01*
X156744115Y-94727733D01*
X156686972Y-94794400D01*
X156572686Y-94861067D01*
X156115543Y-94861067D01*
X157544115Y-94127733D02*
X157772686Y-94127733D01*
X157886972Y-94194400D01*
X158001258Y-94327733D01*
X158058400Y-94594400D01*
X158058400Y-95061067D01*
X158001258Y-95327733D01*
X157886972Y-95461067D01*
X157772686Y-95527733D01*
X157544115Y-95527733D01*
X157429829Y-95461067D01*
X157315543Y-95327733D01*
X157258400Y-95061067D01*
X157258400Y-94594400D01*
X157315543Y-94327733D01*
X157429829Y-94194400D01*
X157544115Y-94127733D01*
X158572686Y-95527733D02*
X158572686Y-94127733D01*
X158972686Y-95127733D01*
X159372686Y-94127733D01*
X159372686Y-95527733D01*
X160858401Y-94994400D02*
X161772687Y-94994400D01*
X161315544Y-95527733D02*
X161315544Y-94461067D01*
X163772687Y-94594400D02*
X163772687Y-95527733D01*
X163486973Y-94061067D02*
X163201258Y-95061067D01*
X163944116Y-95061067D01*
X164629830Y-94127733D02*
X164744115Y-94127733D01*
X164858401Y-94194400D01*
X164915544Y-94261067D01*
X164972687Y-94394400D01*
X165029830Y-94661067D01*
X165029830Y-94994400D01*
X164972687Y-95261067D01*
X164915544Y-95394400D01*
X164858401Y-95461067D01*
X164744115Y-95527733D01*
X164629830Y-95527733D01*
X164515544Y-95461067D01*
X164458401Y-95394400D01*
X164401258Y-95261067D01*
X164344115Y-94994400D01*
X164344115Y-94661067D01*
X164401258Y-94394400D01*
X164458401Y-94261067D01*
X164515544Y-94194400D01*
X164629830Y-94127733D01*
X166401258Y-94061067D02*
X165372687Y-95861067D01*
X166972687Y-94727733D02*
X166858401Y-94661067D01*
X166801258Y-94594400D01*
X166744115Y-94461067D01*
X166744115Y-94394400D01*
X166801258Y-94261067D01*
X166858401Y-94194400D01*
X166972687Y-94127733D01*
X167201258Y-94127733D01*
X167315544Y-94194400D01*
X167372687Y-94261067D01*
X167429830Y-94394400D01*
X167429830Y-94461067D01*
X167372687Y-94594400D01*
X167315544Y-94661067D01*
X167201258Y-94727733D01*
X166972687Y-94727733D01*
X166858401Y-94794400D01*
X166801258Y-94861067D01*
X166744115Y-94994400D01*
X166744115Y-95261067D01*
X166801258Y-95394400D01*
X166858401Y-95461067D01*
X166972687Y-95527733D01*
X167201258Y-95527733D01*
X167315544Y-95461067D01*
X167372687Y-95394400D01*
X167429830Y-95261067D01*
X167429830Y-94994400D01*
X167372687Y-94861067D01*
X167315544Y-94794400D01*
X167201258Y-94727733D01*
X168172687Y-94127733D02*
X168286972Y-94127733D01*
X168401258Y-94194400D01*
X168458401Y-94261067D01*
X168515544Y-94394400D01*
X168572687Y-94661067D01*
X168572687Y-94994400D01*
X168515544Y-95261067D01*
X168458401Y-95394400D01*
X168401258Y-95461067D01*
X168286972Y-95527733D01*
X168172687Y-95527733D01*
X168058401Y-95461067D01*
X168001258Y-95394400D01*
X167944115Y-95261067D01*
X167886972Y-94994400D01*
X167886972Y-94661067D01*
X167944115Y-94394400D01*
X168001258Y-94261067D01*
X168058401Y-94194400D01*
X168172687Y-94127733D01*
X170686973Y-95394400D02*
X170629830Y-95461067D01*
X170458401Y-95527733D01*
X170344115Y-95527733D01*
X170172687Y-95461067D01*
X170058401Y-95327733D01*
X170001258Y-95194400D01*
X169944115Y-94927733D01*
X169944115Y-94727733D01*
X170001258Y-94461067D01*
X170058401Y-94327733D01*
X170172687Y-94194400D01*
X170344115Y-94127733D01*
X170458401Y-94127733D01*
X170629830Y-94194400D01*
X170686973Y-94261067D01*
X171429830Y-94127733D02*
X171658401Y-94127733D01*
X171772687Y-94194400D01*
X171886973Y-94327733D01*
X171944115Y-94594400D01*
X171944115Y-95061067D01*
X171886973Y-95327733D01*
X171772687Y-95461067D01*
X171658401Y-95527733D01*
X171429830Y-95527733D01*
X171315544Y-95461067D01*
X171201258Y-95327733D01*
X171144115Y-95061067D01*
X171144115Y-94594400D01*
X171201258Y-94327733D01*
X171315544Y-94194400D01*
X171429830Y-94127733D01*
X173029830Y-95527733D02*
X172458401Y-95527733D01*
X172458401Y-94127733D01*
X174286973Y-95461067D02*
X174458402Y-95527733D01*
X174744116Y-95527733D01*
X174858402Y-95461067D01*
X174915545Y-95394400D01*
X174972688Y-95261067D01*
X174972688Y-95127733D01*
X174915545Y-94994400D01*
X174858402Y-94927733D01*
X174744116Y-94861067D01*
X174515545Y-94794400D01*
X174401259Y-94727733D01*
X174344116Y-94661067D01*
X174286973Y-94527733D01*
X174286973Y-94394400D01*
X174344116Y-94261067D01*
X174401259Y-94194400D01*
X174515545Y-94127733D01*
X174801259Y-94127733D01*
X174972688Y-94194400D01*
X175372688Y-94127733D02*
X175658402Y-95527733D01*
X175886973Y-94527733D01*
X176115545Y-95527733D01*
X176401259Y-94127733D01*
X176858402Y-95527733D02*
X176858402Y-94127733D01*
X177258403Y-94127733D02*
X177944117Y-94127733D01*
X177601260Y-95527733D02*
X177601260Y-94127733D01*
X179029832Y-95394400D02*
X178972689Y-95461067D01*
X178801260Y-95527733D01*
X178686974Y-95527733D01*
X178515546Y-95461067D01*
X178401260Y-95327733D01*
X178344117Y-95194400D01*
X178286974Y-94927733D01*
X178286974Y-94727733D01*
X178344117Y-94461067D01*
X178401260Y-94327733D01*
X178515546Y-94194400D01*
X178686974Y-94127733D01*
X178801260Y-94127733D01*
X178972689Y-94194400D01*
X179029832Y-94261067D01*
X179544117Y-95527733D02*
X179544117Y-94127733D01*
X179544117Y-94794400D02*
X180229832Y-94794400D01*
X180229832Y-95527733D02*
X180229832Y-94127733D01*
X180801260Y-94794400D02*
X181201260Y-94794400D01*
X181372689Y-95527733D02*
X180801260Y-95527733D01*
X180801260Y-94127733D01*
X181372689Y-94127733D01*
X182572689Y-95527733D02*
X182172689Y-94861067D01*
X181886974Y-95527733D02*
X181886974Y-94127733D01*
X182344117Y-94127733D01*
X182458403Y-94194400D01*
X182515546Y-94261067D01*
X182572689Y-94394400D01*
X182572689Y-94594400D01*
X182515546Y-94727733D01*
X182458403Y-94794400D01*
X182344117Y-94861067D01*
X181886974Y-94861067D01*
D13*
X147932762Y-100337219D02*
X148299429Y-101437219D01*
X148666095Y-100337219D01*
X149608952Y-101437219D02*
X148980381Y-101437219D01*
X149294667Y-101437219D02*
X149294667Y-100337219D01*
X149189905Y-100494362D01*
X149085143Y-100599124D01*
X148980381Y-100651505D01*
X150080381Y-101332457D02*
X150132762Y-101384838D01*
X150080381Y-101437219D01*
X150028000Y-101384838D01*
X150080381Y-101332457D01*
X150080381Y-101437219D01*
X150813715Y-100337219D02*
X150918476Y-100337219D01*
X151023238Y-100389600D01*
X151075619Y-100441981D01*
X151128000Y-100546743D01*
X151180381Y-100756267D01*
X151180381Y-101018171D01*
X151128000Y-101227695D01*
X151075619Y-101332457D01*
X151023238Y-101384838D01*
X150918476Y-101437219D01*
X150813715Y-101437219D01*
X150708953Y-101384838D01*
X150656572Y-101332457D01*
X150604191Y-101227695D01*
X150551810Y-101018171D01*
X150551810Y-100756267D01*
X150604191Y-100546743D01*
X150656572Y-100441981D01*
X150708953Y-100389600D01*
X150813715Y-100337219D01*
X152804190Y-101856267D02*
X152751810Y-101803886D01*
X152647048Y-101646743D01*
X152594667Y-101541981D01*
X152542286Y-101384838D01*
X152489905Y-101122933D01*
X152489905Y-100913410D01*
X152542286Y-100651505D01*
X152594667Y-100494362D01*
X152647048Y-100389600D01*
X152751810Y-100232457D01*
X152804190Y-100180076D01*
X153851809Y-101332457D02*
X153799428Y-101384838D01*
X153642285Y-101437219D01*
X153537523Y-101437219D01*
X153380381Y-101384838D01*
X153275619Y-101280076D01*
X153223238Y-101175314D01*
X153170857Y-100965790D01*
X153170857Y-100808648D01*
X153223238Y-100599124D01*
X153275619Y-100494362D01*
X153380381Y-100389600D01*
X153537523Y-100337219D01*
X153642285Y-100337219D01*
X153799428Y-100389600D01*
X153851809Y-100441981D01*
X154218476Y-101856267D02*
X154270857Y-101803886D01*
X154375619Y-101646743D01*
X154428000Y-101541981D01*
X154480381Y-101384838D01*
X154532762Y-101122933D01*
X154532762Y-100913410D01*
X154480381Y-100651505D01*
X154428000Y-100494362D01*
X154375619Y-100389600D01*
X154270857Y-100232457D01*
X154218476Y-100180076D01*
X155842285Y-101384838D02*
X155999428Y-101437219D01*
X156261332Y-101437219D01*
X156366094Y-101384838D01*
X156418475Y-101332457D01*
X156470856Y-101227695D01*
X156470856Y-101122933D01*
X156418475Y-101018171D01*
X156366094Y-100965790D01*
X156261332Y-100913410D01*
X156051809Y-100861029D01*
X155947047Y-100808648D01*
X155894666Y-100756267D01*
X155842285Y-100651505D01*
X155842285Y-100546743D01*
X155894666Y-100441981D01*
X155947047Y-100389600D01*
X156051809Y-100337219D01*
X156313713Y-100337219D01*
X156470856Y-100389600D01*
X156785142Y-100703886D02*
X157204190Y-100703886D01*
X156942285Y-100337219D02*
X156942285Y-101280076D01*
X156994666Y-101384838D01*
X157099428Y-101437219D01*
X157204190Y-101437219D01*
X157989903Y-101384838D02*
X157885141Y-101437219D01*
X157675618Y-101437219D01*
X157570856Y-101384838D01*
X157518475Y-101280076D01*
X157518475Y-100861029D01*
X157570856Y-100756267D01*
X157675618Y-100703886D01*
X157885141Y-100703886D01*
X157989903Y-100756267D01*
X158042284Y-100861029D01*
X158042284Y-100965790D01*
X157518475Y-101070552D01*
X158408951Y-100703886D02*
X158670856Y-101437219D01*
X158932760Y-100703886D01*
X159770855Y-101384838D02*
X159666093Y-101437219D01*
X159456570Y-101437219D01*
X159351808Y-101384838D01*
X159299427Y-101280076D01*
X159299427Y-100861029D01*
X159351808Y-100756267D01*
X159456570Y-100703886D01*
X159666093Y-100703886D01*
X159770855Y-100756267D01*
X159823236Y-100861029D01*
X159823236Y-100965790D01*
X159299427Y-101070552D01*
X161447045Y-100337219D02*
X161447045Y-101122933D01*
X161394665Y-101280076D01*
X161289903Y-101384838D01*
X161132760Y-101437219D01*
X161027998Y-101437219D01*
X161970855Y-101332457D02*
X162023236Y-101384838D01*
X161970855Y-101437219D01*
X161918474Y-101384838D01*
X161970855Y-101332457D01*
X161970855Y-101437219D01*
X163908950Y-100389600D02*
X163804188Y-100337219D01*
X163647045Y-100337219D01*
X163489903Y-100389600D01*
X163385141Y-100494362D01*
X163332760Y-100599124D01*
X163280379Y-100808648D01*
X163280379Y-100965790D01*
X163332760Y-101175314D01*
X163385141Y-101280076D01*
X163489903Y-101384838D01*
X163647045Y-101437219D01*
X163751807Y-101437219D01*
X163908950Y-101384838D01*
X163961331Y-101332457D01*
X163961331Y-100965790D01*
X163751807Y-100965790D01*
X164432760Y-101437219D02*
X164432760Y-100703886D01*
X164432760Y-100913410D02*
X164485141Y-100808648D01*
X164537522Y-100756267D01*
X164642284Y-100703886D01*
X164747045Y-100703886D01*
X165585140Y-101437219D02*
X165585140Y-100861029D01*
X165532759Y-100756267D01*
X165427997Y-100703886D01*
X165218474Y-100703886D01*
X165113712Y-100756267D01*
X165585140Y-101384838D02*
X165480378Y-101437219D01*
X165218474Y-101437219D01*
X165113712Y-101384838D01*
X165061331Y-101280076D01*
X165061331Y-101175314D01*
X165113712Y-101070552D01*
X165218474Y-101018171D01*
X165480378Y-101018171D01*
X165585140Y-100965790D01*
X166004188Y-100703886D02*
X166266093Y-101437219D01*
X166527997Y-100703886D02*
X166266093Y-101437219D01*
X166161331Y-101699124D01*
X166108950Y-101751505D01*
X166004188Y-101803886D01*
X167785140Y-101018171D02*
X168623235Y-101018171D01*
X169932759Y-100441981D02*
X169985140Y-100389600D01*
X170089902Y-100337219D01*
X170351806Y-100337219D01*
X170456568Y-100389600D01*
X170508949Y-100441981D01*
X170561330Y-100546743D01*
X170561330Y-100651505D01*
X170508949Y-100808648D01*
X169880378Y-101437219D01*
X170561330Y-101437219D01*
X171242283Y-100337219D02*
X171347044Y-100337219D01*
X171451806Y-100389600D01*
X171504187Y-100441981D01*
X171556568Y-100546743D01*
X171608949Y-100756267D01*
X171608949Y-101018171D01*
X171556568Y-101227695D01*
X171504187Y-101332457D01*
X171451806Y-101384838D01*
X171347044Y-101437219D01*
X171242283Y-101437219D01*
X171137521Y-101384838D01*
X171085140Y-101332457D01*
X171032759Y-101227695D01*
X170980378Y-101018171D01*
X170980378Y-100756267D01*
X171032759Y-100546743D01*
X171085140Y-100441981D01*
X171137521Y-100389600D01*
X171242283Y-100337219D01*
X172656568Y-101437219D02*
X172027997Y-101437219D01*
X172342283Y-101437219D02*
X172342283Y-100337219D01*
X172237521Y-100494362D01*
X172132759Y-100599124D01*
X172027997Y-100651505D01*
X173023235Y-100337219D02*
X173756568Y-100337219D01*
X173285140Y-101437219D01*
X174175616Y-101018171D02*
X175013711Y-101018171D01*
X175747045Y-100337219D02*
X175851806Y-100337219D01*
X175956568Y-100389600D01*
X176008949Y-100441981D01*
X176061330Y-100546743D01*
X176113711Y-100756267D01*
X176113711Y-101018171D01*
X176061330Y-101227695D01*
X176008949Y-101332457D01*
X175956568Y-101384838D01*
X175851806Y-101437219D01*
X175747045Y-101437219D01*
X175642283Y-101384838D01*
X175589902Y-101332457D01*
X175537521Y-101227695D01*
X175485140Y-101018171D01*
X175485140Y-100756267D01*
X175537521Y-100546743D01*
X175589902Y-100441981D01*
X175642283Y-100389600D01*
X175747045Y-100337219D01*
X176480378Y-100337219D02*
X177213711Y-100337219D01*
X176742283Y-101437219D01*
X177632759Y-101018171D02*
X178470854Y-101018171D01*
X178942283Y-100441981D02*
X178994664Y-100389600D01*
X179099426Y-100337219D01*
X179361330Y-100337219D01*
X179466092Y-100389600D01*
X179518473Y-100441981D01*
X179570854Y-100546743D01*
X179570854Y-100651505D01*
X179518473Y-100808648D01*
X178889902Y-101437219D01*
X179570854Y-101437219D01*
X180618473Y-101437219D02*
X179989902Y-101437219D01*
X180304188Y-101437219D02*
X180304188Y-100337219D01*
X180199426Y-100494362D01*
X180094664Y-100599124D01*
X179989902Y-100651505D01*
D12*
X200747971Y-106921085D02*
X202247971Y-106635371D01*
X201176543Y-106406800D01*
X202247971Y-106178228D01*
X200747971Y-105892514D01*
X202247971Y-105435371D02*
X200747971Y-105435371D01*
X201462257Y-105435371D02*
X201462257Y-104749656D01*
X202247971Y-104749656D02*
X200747971Y-104749656D01*
X200890829Y-104235371D02*
X200819400Y-104178228D01*
X200747971Y-104063942D01*
X200747971Y-103778228D01*
X200819400Y-103663942D01*
X200890829Y-103606799D01*
X201033686Y-103549656D01*
X201176543Y-103549656D01*
X201390829Y-103606799D01*
X202247971Y-104292513D01*
X202247971Y-103549656D01*
X204012257Y-106292514D02*
X204083686Y-106121085D01*
X204155114Y-106063942D01*
X204297971Y-106006799D01*
X204512257Y-106006799D01*
X204655114Y-106063942D01*
X204726543Y-106121085D01*
X204797971Y-106235371D01*
X204797971Y-106692514D01*
X203297971Y-106692514D01*
X203297971Y-106292514D01*
X203369400Y-106178228D01*
X203440829Y-106121085D01*
X203583686Y-106063942D01*
X203726543Y-106063942D01*
X203869400Y-106121085D01*
X203940829Y-106178228D01*
X204012257Y-106292514D01*
X204012257Y-106692514D01*
X204797971Y-105492514D02*
X203297971Y-105492514D01*
X204797971Y-104806799D02*
X203940829Y-105321085D01*
X203297971Y-104806799D02*
X204155114Y-105492514D01*
X203440829Y-104349657D02*
X203369400Y-104292514D01*
X203297971Y-104178228D01*
X203297971Y-103892514D01*
X203369400Y-103778228D01*
X203440829Y-103721085D01*
X203583686Y-103663942D01*
X203726543Y-103663942D01*
X203940829Y-103721085D01*
X204797971Y-104406799D01*
X204797971Y-103663942D01*
D13*
X152745771Y-49053829D02*
X152820057Y-48896686D01*
X152894343Y-48844305D01*
X153042914Y-48791924D01*
X153265771Y-48791924D01*
X153414343Y-48844305D01*
X153488629Y-48896686D01*
X153562914Y-49001448D01*
X153562914Y-49420495D01*
X152002914Y-49420495D01*
X152002914Y-49053829D01*
X152077200Y-48949067D01*
X152151486Y-48896686D01*
X152300057Y-48844305D01*
X152448629Y-48844305D01*
X152597200Y-48896686D01*
X152671486Y-48949067D01*
X152745771Y-49053829D01*
X152745771Y-49420495D01*
X153562914Y-47796686D02*
X153562914Y-48320495D01*
X152002914Y-48320495D01*
X156102914Y-49420495D02*
X154542914Y-49420495D01*
X154542914Y-49001448D01*
X154617200Y-48896686D01*
X154691486Y-48844305D01*
X154840057Y-48791924D01*
X155062914Y-48791924D01*
X155211486Y-48844305D01*
X155285771Y-48896686D01*
X155360057Y-49001448D01*
X155360057Y-49420495D01*
X154542914Y-48320495D02*
X155805771Y-48320495D01*
X155954343Y-48268114D01*
X156028629Y-48215733D01*
X156102914Y-48110971D01*
X156102914Y-47901448D01*
X156028629Y-47796686D01*
X155954343Y-47744305D01*
X155805771Y-47691924D01*
X154542914Y-47691924D01*
X157157200Y-48844305D02*
X157082914Y-48949067D01*
X157082914Y-49106210D01*
X157157200Y-49263352D01*
X157305771Y-49368114D01*
X157454343Y-49420495D01*
X157751486Y-49472876D01*
X157974343Y-49472876D01*
X158271486Y-49420495D01*
X158420057Y-49368114D01*
X158568629Y-49263352D01*
X158642914Y-49106210D01*
X158642914Y-49001448D01*
X158568629Y-48844305D01*
X158494343Y-48791924D01*
X157974343Y-48791924D01*
X157974343Y-49001448D01*
X157900057Y-48110971D02*
X158642914Y-48110971D01*
X157082914Y-48477638D02*
X157900057Y-48110971D01*
X157082914Y-47744305D01*
X159622914Y-49525257D02*
X161182914Y-49263352D01*
X160068629Y-49053829D01*
X161182914Y-48844305D01*
X159622914Y-48582400D01*
X161182914Y-48163352D02*
X159622914Y-48163352D01*
X160365771Y-48163352D02*
X160365771Y-47534781D01*
X161182914Y-47534781D02*
X159622914Y-47534781D01*
X162905771Y-49053829D02*
X162980057Y-48896686D01*
X163054343Y-48844305D01*
X163202914Y-48791924D01*
X163425771Y-48791924D01*
X163574343Y-48844305D01*
X163648629Y-48896686D01*
X163722914Y-49001448D01*
X163722914Y-49420495D01*
X162162914Y-49420495D01*
X162162914Y-49053829D01*
X162237200Y-48949067D01*
X162311486Y-48896686D01*
X162460057Y-48844305D01*
X162608629Y-48844305D01*
X162757200Y-48896686D01*
X162831486Y-48949067D01*
X162905771Y-49053829D01*
X162905771Y-49420495D01*
X163722914Y-48320495D02*
X162162914Y-48320495D01*
X163722914Y-47691924D02*
X162831486Y-48163352D01*
X162162914Y-47691924D02*
X163054343Y-48320495D01*
X165445771Y-49053829D02*
X165520057Y-48896686D01*
X165594343Y-48844305D01*
X165742914Y-48791924D01*
X165965771Y-48791924D01*
X166114343Y-48844305D01*
X166188629Y-48896686D01*
X166262914Y-49001448D01*
X166262914Y-49420495D01*
X164702914Y-49420495D01*
X164702914Y-49053829D01*
X164777200Y-48949067D01*
X164851486Y-48896686D01*
X165000057Y-48844305D01*
X165148629Y-48844305D01*
X165297200Y-48896686D01*
X165371486Y-48949067D01*
X165445771Y-49053829D01*
X165445771Y-49420495D01*
X166262914Y-47691924D02*
X165520057Y-48058590D01*
X166262914Y-48320495D02*
X164702914Y-48320495D01*
X164702914Y-47901448D01*
X164777200Y-47796686D01*
X164851486Y-47744305D01*
X165000057Y-47691924D01*
X165222914Y-47691924D01*
X165371486Y-47744305D01*
X165445771Y-47796686D01*
X165520057Y-47901448D01*
X165520057Y-48320495D01*
X168802914Y-48791924D02*
X168060057Y-49158590D01*
X168802914Y-49420495D02*
X167242914Y-49420495D01*
X167242914Y-49001448D01*
X167317200Y-48896686D01*
X167391486Y-48844305D01*
X167540057Y-48791924D01*
X167762914Y-48791924D01*
X167911486Y-48844305D01*
X167985771Y-48896686D01*
X168060057Y-49001448D01*
X168060057Y-49420495D01*
X168802914Y-48320495D02*
X167242914Y-48320495D01*
X167242914Y-48058590D01*
X167317200Y-47901448D01*
X167465771Y-47796686D01*
X167614343Y-47744305D01*
X167911486Y-47691924D01*
X168134343Y-47691924D01*
X168431486Y-47744305D01*
X168580057Y-47796686D01*
X168728629Y-47901448D01*
X168802914Y-48058590D01*
X168802914Y-48320495D01*
X169782914Y-49210971D02*
X169782914Y-49001448D01*
X169857200Y-48896686D01*
X170005771Y-48791924D01*
X170302914Y-48739543D01*
X170822914Y-48739543D01*
X171120057Y-48791924D01*
X171268629Y-48896686D01*
X171342914Y-49001448D01*
X171342914Y-49210971D01*
X171268629Y-49315733D01*
X171120057Y-49420495D01*
X170822914Y-49472876D01*
X170302914Y-49472876D01*
X170005771Y-49420495D01*
X169857200Y-49315733D01*
X169782914Y-49210971D01*
X171342914Y-47639543D02*
X170600057Y-48006209D01*
X171342914Y-48268114D02*
X169782914Y-48268114D01*
X169782914Y-47849067D01*
X169857200Y-47744305D01*
X169931486Y-47691924D01*
X170080057Y-47639543D01*
X170302914Y-47639543D01*
X170451486Y-47691924D01*
X170525771Y-47744305D01*
X170600057Y-47849067D01*
X170600057Y-48268114D01*
X173140057Y-49210971D02*
X173882914Y-49210971D01*
X172322914Y-49577638D02*
X173140057Y-49210971D01*
X172322914Y-48844305D01*
X173065771Y-48477638D02*
X173065771Y-48110972D01*
X173882914Y-47953829D02*
X173882914Y-48477638D01*
X172322914Y-48477638D01*
X172322914Y-47953829D01*
X174937200Y-48844305D02*
X174862914Y-48949067D01*
X174862914Y-49106210D01*
X174937200Y-49263352D01*
X175085771Y-49368114D01*
X175234343Y-49420495D01*
X175531486Y-49472876D01*
X175754343Y-49472876D01*
X176051486Y-49420495D01*
X176200057Y-49368114D01*
X176348629Y-49263352D01*
X176422914Y-49106210D01*
X176422914Y-49001448D01*
X176348629Y-48844305D01*
X176274343Y-48791924D01*
X175754343Y-48791924D01*
X175754343Y-49001448D01*
X176422914Y-48320495D02*
X174862914Y-48320495D01*
X176422914Y-47691924D01*
X174862914Y-47691924D01*
X178145771Y-49053829D02*
X178220057Y-48896686D01*
X178294343Y-48844305D01*
X178442914Y-48791924D01*
X178665771Y-48791924D01*
X178814343Y-48844305D01*
X178888629Y-48896686D01*
X178962914Y-49001448D01*
X178962914Y-49420495D01*
X177402914Y-49420495D01*
X177402914Y-49053829D01*
X177477200Y-48949067D01*
X177551486Y-48896686D01*
X177700057Y-48844305D01*
X177848629Y-48844305D01*
X177997200Y-48896686D01*
X178071486Y-48949067D01*
X178145771Y-49053829D01*
X178145771Y-49420495D01*
X178962914Y-47796686D02*
X178962914Y-48320495D01*
X177402914Y-48320495D01*
X177551486Y-47482400D02*
X177477200Y-47430019D01*
X177402914Y-47325257D01*
X177402914Y-47063353D01*
X177477200Y-46958591D01*
X177551486Y-46906210D01*
X177700057Y-46853829D01*
X177848629Y-46853829D01*
X178071486Y-46906210D01*
X178962914Y-47534781D01*
X178962914Y-46853829D01*
X181502914Y-49420495D02*
X179942914Y-49420495D01*
X179942914Y-49001448D01*
X180017200Y-48896686D01*
X180091486Y-48844305D01*
X180240057Y-48791924D01*
X180462914Y-48791924D01*
X180611486Y-48844305D01*
X180685771Y-48896686D01*
X180760057Y-49001448D01*
X180760057Y-49420495D01*
X179942914Y-48320495D02*
X181205771Y-48320495D01*
X181354343Y-48268114D01*
X181428629Y-48215733D01*
X181502914Y-48110971D01*
X181502914Y-47901448D01*
X181428629Y-47796686D01*
X181354343Y-47744305D01*
X181205771Y-47691924D01*
X179942914Y-47691924D01*
X180091486Y-47220495D02*
X180017200Y-47168114D01*
X179942914Y-47063352D01*
X179942914Y-46801448D01*
X180017200Y-46696686D01*
X180091486Y-46644305D01*
X180240057Y-46591924D01*
X180388629Y-46591924D01*
X180611486Y-46644305D01*
X181502914Y-47272876D01*
X181502914Y-46591924D01*
X182557200Y-48844305D02*
X182482914Y-48949067D01*
X182482914Y-49106210D01*
X182557200Y-49263352D01*
X182705771Y-49368114D01*
X182854343Y-49420495D01*
X183151486Y-49472876D01*
X183374343Y-49472876D01*
X183671486Y-49420495D01*
X183820057Y-49368114D01*
X183968629Y-49263352D01*
X184042914Y-49106210D01*
X184042914Y-49001448D01*
X183968629Y-48844305D01*
X183894343Y-48791924D01*
X183374343Y-48791924D01*
X183374343Y-49001448D01*
X183300057Y-48110971D02*
X184042914Y-48110971D01*
X182482914Y-48477638D02*
X183300057Y-48110971D01*
X182482914Y-47744305D01*
X182631486Y-47430019D02*
X182557200Y-47377638D01*
X182482914Y-47272876D01*
X182482914Y-47010972D01*
X182557200Y-46906210D01*
X182631486Y-46853829D01*
X182780057Y-46801448D01*
X182928629Y-46801448D01*
X183151486Y-46853829D01*
X184042914Y-47482400D01*
X184042914Y-46801448D01*
D14*
X125676600Y-65839400D02*
X125676600Y-67013400D01*
X123954600Y-65839400D02*
X123954600Y-67013400D01*
X139245400Y-72235000D02*
X139245400Y-71061000D01*
X140967400Y-72235000D02*
X140967400Y-71061000D01*
X175003400Y-68069400D02*
X173829400Y-68069400D01*
X175003400Y-66347400D02*
X173829400Y-66347400D01*
X183683600Y-96460000D02*
X183683600Y-99120000D01*
X193903600Y-96460000D02*
X183683600Y-96460000D01*
X193903600Y-99120000D02*
X183683600Y-99120000D01*
X193903600Y-96460000D02*
X193903600Y-99120000D01*
X195173600Y-96460000D02*
X196503600Y-96460000D01*
X196503600Y-96460000D02*
X196503600Y-97790000D01*
X183734400Y-106213600D02*
X183734400Y-108873600D01*
X193954400Y-106213600D02*
X183734400Y-106213600D01*
X193954400Y-108873600D02*
X183734400Y-108873600D01*
X193954400Y-106213600D02*
X193954400Y-108873600D01*
X195224400Y-106213600D02*
X196554400Y-106213600D01*
X196554400Y-106213600D02*
X196554400Y-107543600D01*
X157369200Y-96460000D02*
X157369200Y-99120000D01*
X177749200Y-96460000D02*
X157369200Y-96460000D01*
X177749200Y-99120000D02*
X157369200Y-99120000D01*
X177749200Y-96460000D02*
X177749200Y-99120000D01*
X179019200Y-96460000D02*
X180349200Y-96460000D01*
X180349200Y-96460000D02*
X180349200Y-97790000D01*
X157369200Y-106315200D02*
X157369200Y-108975200D01*
X177749200Y-106315200D02*
X157369200Y-106315200D01*
X177749200Y-108975200D02*
X157369200Y-108975200D01*
X177749200Y-106315200D02*
X177749200Y-108975200D01*
X179019200Y-106315200D02*
X180349200Y-106315200D01*
X180349200Y-106315200D02*
X180349200Y-107645200D01*
X140097200Y-96460000D02*
X140097200Y-99120000D01*
X152857200Y-96460000D02*
X140097200Y-96460000D01*
X152857200Y-99120000D02*
X140097200Y-99120000D01*
X152857200Y-96460000D02*
X152857200Y-99120000D01*
X154127200Y-96460000D02*
X155457200Y-96460000D01*
X155457200Y-96460000D02*
X155457200Y-97790000D01*
X140148000Y-106264400D02*
X140148000Y-108924400D01*
X152908000Y-106264400D02*
X140148000Y-106264400D01*
X152908000Y-108924400D02*
X140148000Y-108924400D01*
X152908000Y-106264400D02*
X152908000Y-108924400D01*
X154178000Y-106264400D02*
X155508000Y-106264400D01*
X155508000Y-106264400D02*
X155508000Y-107594400D01*
X184514800Y-52384000D02*
X184514800Y-49724000D01*
X153974800Y-52384000D02*
X184514800Y-52384000D01*
X153974800Y-49724000D02*
X184514800Y-49724000D01*
X153974800Y-52384000D02*
X153974800Y-49724000D01*
X152704800Y-52384000D02*
X151374800Y-52384000D01*
X151374800Y-52384000D02*
X151374800Y-51054000D01*
X200193600Y-107534400D02*
X200193600Y-110194400D01*
X202793600Y-107534400D02*
X200193600Y-107534400D01*
X202793600Y-110194400D02*
X200193600Y-110194400D01*
X202793600Y-107534400D02*
X202793600Y-110194400D01*
X204063600Y-107534400D02*
X205393600Y-107534400D01*
X205393600Y-107534400D02*
X205393600Y-108864400D01*
X141570400Y-55261200D02*
X141570400Y-57921200D01*
X144170400Y-55261200D02*
X141570400Y-55261200D01*
X144170400Y-57921200D02*
X141570400Y-57921200D01*
X144170400Y-55261200D02*
X144170400Y-57921200D01*
X145440400Y-55261200D02*
X146770400Y-55261200D01*
X146770400Y-55261200D02*
X146770400Y-56591200D01*
X120894800Y-105400800D02*
X120894800Y-108060800D01*
X123494800Y-105400800D02*
X120894800Y-105400800D01*
X123494800Y-108060800D02*
X120894800Y-108060800D01*
X123494800Y-105400800D02*
X123494800Y-108060800D01*
X124764800Y-105400800D02*
X126094800Y-105400800D01*
X126094800Y-105400800D02*
X126094800Y-106730800D01*
X114951200Y-105248400D02*
X114951200Y-107908400D01*
X117551200Y-105248400D02*
X114951200Y-105248400D01*
X117551200Y-107908400D02*
X114951200Y-107908400D01*
X117551200Y-105248400D02*
X117551200Y-107908400D01*
X118821200Y-105248400D02*
X120151200Y-105248400D01*
X120151200Y-105248400D02*
X120151200Y-106578400D01*
X126298000Y-70247200D02*
X123638000Y-70247200D01*
X126298000Y-72847200D02*
X126298000Y-70247200D01*
X123638000Y-72847200D02*
X123638000Y-70247200D01*
X126298000Y-72847200D02*
X123638000Y-72847200D01*
X126298000Y-74117200D02*
X126298000Y-75447200D01*
X126298000Y-75447200D02*
X124968000Y-75447200D01*
X134096000Y-86784800D02*
X135466000Y-86784800D01*
X135466000Y-86784800D02*
X135466000Y-68764800D01*
X135466000Y-68764800D02*
X130726000Y-68764800D01*
X130726000Y-68764800D02*
X130726000Y-86784800D01*
X130726000Y-86784800D02*
X132096000Y-86784800D01*
X132096000Y-86784800D02*
G75*
G02X134096000Y-86784800I1000000J0D01*
G01*
X148497800Y-89324800D02*
X149867800Y-89324800D01*
X149867800Y-89324800D02*
X149867800Y-68764800D01*
X149867800Y-68764800D02*
X145127800Y-68764800D01*
X145127800Y-68764800D02*
X145127800Y-89324800D01*
X145127800Y-89324800D02*
X146497800Y-89324800D01*
X146497800Y-89324800D02*
G75*
G02X148497800Y-89324800I1000000J0D01*
G01*
X162645600Y-89502600D02*
X164015600Y-89502600D01*
X164015600Y-89502600D02*
X164015600Y-68942600D01*
X164015600Y-68942600D02*
X159275600Y-68942600D01*
X159275600Y-68942600D02*
X159275600Y-89502600D01*
X159275600Y-89502600D02*
X160645600Y-89502600D01*
X160645600Y-89502600D02*
G75*
G02X162645600Y-89502600I1000000J0D01*
G01*
X177758600Y-89578800D02*
X179128600Y-89578800D01*
X179128600Y-89578800D02*
X179128600Y-69018800D01*
X179128600Y-69018800D02*
X174388600Y-69018800D01*
X174388600Y-69018800D02*
X174388600Y-89578800D01*
X174388600Y-89578800D02*
X175758600Y-89578800D01*
X175758600Y-89578800D02*
G75*
G02X177758600Y-89578800I1000000J0D01*
G01*
X176954800Y-59299600D02*
X176954800Y-57929600D01*
X176954800Y-57929600D02*
X156394800Y-57929600D01*
X156394800Y-57929600D02*
X156394800Y-62669600D01*
X156394800Y-62669600D02*
X176954800Y-62669600D01*
X176954800Y-62669600D02*
X176954800Y-61299600D01*
X176954800Y-61299600D02*
G75*
G02X176954800Y-59299600I0J1000000D01*
G01*
X201780200Y-100175000D02*
X201780200Y-99001000D01*
X203502200Y-100175000D02*
X203502200Y-99001000D01*
X130096200Y-96314200D02*
X128922200Y-96314200D01*
X130096200Y-94592200D02*
X128922200Y-94592200D01*
X123903800Y-79296200D02*
X123903800Y-78122200D01*
X125625800Y-79296200D02*
X125625800Y-78122200D01*
X126450400Y-56041600D02*
X126450400Y-53381600D01*
X121310400Y-56041600D02*
X126450400Y-56041600D01*
X121310400Y-53381600D02*
X126450400Y-53381600D01*
X121310400Y-56041600D02*
X121310400Y-53381600D01*
X120040400Y-56041600D02*
X118710400Y-56041600D01*
X118710400Y-56041600D02*
X118710400Y-54711600D01*
X126552000Y-59343600D02*
X126552000Y-56683600D01*
X121412000Y-59343600D02*
X126552000Y-59343600D01*
X121412000Y-56683600D02*
X126552000Y-56683600D01*
X121412000Y-59343600D02*
X121412000Y-56683600D01*
X120142000Y-59343600D02*
X118812000Y-59343600D01*
X118812000Y-59343600D02*
X118812000Y-58013600D01*
X126602800Y-62594800D02*
X126602800Y-59934800D01*
X121462800Y-62594800D02*
X126602800Y-62594800D01*
X121462800Y-59934800D02*
X126602800Y-59934800D01*
X121462800Y-62594800D02*
X121462800Y-59934800D01*
X120192800Y-62594800D02*
X118862800Y-62594800D01*
X118862800Y-62594800D02*
X118862800Y-61264800D01*
X119472400Y-81695600D02*
X122132400Y-81695600D01*
X119472400Y-66395600D02*
X119472400Y-81695600D01*
X122132400Y-66395600D02*
X122132400Y-81695600D01*
X119472400Y-66395600D02*
X122132400Y-66395600D01*
X119472400Y-65125600D02*
X119472400Y-63795600D01*
X119472400Y-63795600D02*
X120802400Y-63795600D01*
X115154400Y-81695600D02*
X117814400Y-81695600D01*
X115154400Y-66395600D02*
X115154400Y-81695600D01*
X117814400Y-66395600D02*
X117814400Y-81695600D01*
X115154400Y-66395600D02*
X117814400Y-66395600D01*
X115154400Y-65125600D02*
X115154400Y-63795600D01*
X115154400Y-63795600D02*
X116484400Y-63795600D01*
X182178000Y-59934800D02*
X179518000Y-59934800D01*
X182178000Y-65074800D02*
X182178000Y-59934800D01*
X179518000Y-65074800D02*
X179518000Y-59934800D01*
X182178000Y-65074800D02*
X179518000Y-65074800D01*
X182178000Y-66344800D02*
X182178000Y-67674800D01*
X182178000Y-67674800D02*
X180848000Y-67674800D01*
X206035600Y-96326000D02*
X208695600Y-96326000D01*
X206035600Y-91186000D02*
X206035600Y-96326000D01*
X208695600Y-91186000D02*
X208695600Y-96326000D01*
X206035600Y-91186000D02*
X208695600Y-91186000D01*
X206035600Y-89916000D02*
X206035600Y-88586000D01*
X206035600Y-88586000D02*
X207365600Y-88586000D01*
X131715200Y-104994400D02*
X131715200Y-107654400D01*
X134315200Y-104994400D02*
X131715200Y-104994400D01*
X134315200Y-107654400D02*
X131715200Y-107654400D01*
X134315200Y-104994400D02*
X134315200Y-107654400D01*
X135585200Y-104994400D02*
X136915200Y-104994400D01*
X136915200Y-104994400D02*
X136915200Y-106324400D01*
X188894000Y-57915600D02*
X192614000Y-57915600D01*
X188894000Y-59635600D02*
X192614000Y-59635600D01*
X188894000Y-55172400D02*
X192614000Y-55172400D01*
X188894000Y-56892400D02*
X192614000Y-56892400D01*
X188894000Y-52378400D02*
X192614000Y-52378400D01*
X188894000Y-54098400D02*
X192614000Y-54098400D01*
X188894000Y-49533600D02*
X192614000Y-49533600D01*
X188894000Y-51253600D02*
X192614000Y-51253600D01*
X199355200Y-49206800D02*
X197985200Y-49206800D01*
X197985200Y-49206800D02*
X197985200Y-59606800D01*
X197985200Y-59606800D02*
X202725200Y-59606800D01*
X202725200Y-59606800D02*
X202725200Y-49206800D01*
X202725200Y-49206800D02*
X201355200Y-49206800D01*
X201355200Y-49206800D02*
G75*
G02X199355200Y-49206800I-1000000J0D01*
G01*
X194040000Y-91458400D02*
X199220000Y-91458400D01*
X199220000Y-91458400D02*
X199220000Y-60738400D01*
X199220000Y-60738400D02*
X186860000Y-60738400D01*
X186860000Y-60738400D02*
X186860000Y-91458400D01*
X186860000Y-91458400D02*
X192040000Y-91458400D01*
X192040000Y-91458400D02*
G75*
G02X194040000Y-91458400I1000000J0D01*
G01*
X197443600Y-96538400D02*
X202623600Y-96538400D01*
X202623600Y-96538400D02*
X202623600Y-60738400D01*
X202623600Y-60738400D02*
X190263600Y-60738400D01*
X190263600Y-60738400D02*
X190263600Y-96538400D01*
X190263600Y-96538400D02*
X195443600Y-96538400D01*
X195443600Y-96538400D02*
G75*
G02X197443600Y-96538400I1000000J0D01*
G01*
X134146800Y-67125200D02*
X135516800Y-67125200D01*
X135516800Y-67125200D02*
X135516800Y-49105200D01*
X135516800Y-49105200D02*
X130776800Y-49105200D01*
X130776800Y-49105200D02*
X130776800Y-67125200D01*
X130776800Y-67125200D02*
X132146800Y-67125200D01*
X132146800Y-67125200D02*
G75*
G02X134146800Y-67125200I1000000J0D01*
G01*
X121345200Y-104412400D02*
X122715200Y-104412400D01*
X122715200Y-104412400D02*
X122715200Y-86392400D01*
X122715200Y-86392400D02*
X117975200Y-86392400D01*
X117975200Y-86392400D02*
X117975200Y-104412400D01*
X117975200Y-104412400D02*
X119345200Y-104412400D01*
X119345200Y-104412400D02*
G75*
G02X121345200Y-104412400I1000000J0D01*
G01*
X149158000Y-52028400D02*
X149158000Y-49368400D01*
X144018000Y-52028400D02*
X149158000Y-52028400D01*
X144018000Y-49368400D02*
X149158000Y-49368400D01*
X144018000Y-52028400D02*
X144018000Y-49368400D01*
X142748000Y-52028400D02*
X141418000Y-52028400D01*
X141418000Y-52028400D02*
X141418000Y-50698400D01*
X136327600Y-91182400D02*
X132607600Y-91182400D01*
X136327600Y-89462400D02*
X132607600Y-89462400D01*
X135311600Y-103222000D02*
X131591600Y-103222000D01*
X135311600Y-101502000D02*
X131591600Y-101502000D01*
X125812000Y-84426000D02*
X122092000Y-84426000D01*
X125812000Y-82706000D02*
X122092000Y-82706000D01*
X137292800Y-97989600D02*
X133572800Y-97989600D01*
X137292800Y-96269600D02*
X133572800Y-96269600D01*
X133572800Y-94186800D02*
X137292800Y-94186800D01*
X133572800Y-95906800D02*
X137292800Y-95906800D01*
X136327600Y-89150400D02*
X132607600Y-89150400D01*
X136327600Y-87430400D02*
X132607600Y-87430400D01*
X129324400Y-100260800D02*
X126504400Y-100260800D01*
X126504400Y-100260800D02*
X126504400Y-105580800D01*
X126504400Y-105580800D02*
X129324400Y-105580800D01*
X129324400Y-105580800D02*
X129324400Y-100260800D01*
X127914400Y-100190800D02*
X127914400Y-100260800D01*
X127914400Y-105650800D02*
X127914400Y-105580800D01*
X129324400Y-101100800D02*
X126504400Y-101100800D01*
X132112400Y-98310400D02*
X132112400Y-101130400D01*
X132112400Y-101130400D02*
X137432400Y-101130400D01*
X137432400Y-101130400D02*
X137432400Y-98310400D01*
X137432400Y-98310400D02*
X132112400Y-98310400D01*
X132042400Y-99720400D02*
X132112400Y-99720400D01*
X137502400Y-99720400D02*
X137432400Y-99720400D01*
X132952400Y-98310400D02*
X132952400Y-101130400D01*
X114773400Y-47028400D02*
X114773400Y-47850870D01*
X114773400Y-49735930D02*
X114773400Y-50558400D01*
X114773400Y-48465930D02*
X114773400Y-49120870D01*
X119788400Y-47028400D02*
X114773400Y-47028400D01*
X121243400Y-50558400D02*
X114773400Y-50558400D01*
X119788400Y-47028400D02*
X119788400Y-47594929D01*
X119788400Y-48721871D02*
X119788400Y-48864929D01*
X119841871Y-48918400D02*
X119984929Y-48918400D01*
X121111871Y-48918400D02*
X121243400Y-48918400D01*
X121243400Y-48918400D02*
X121243400Y-49120870D01*
X121243400Y-49735930D02*
X121243400Y-50558400D01*
X120548400Y-47028400D02*
X121308400Y-47028400D01*
X121308400Y-47028400D02*
X121308400Y-48158400D01*
D15*
X125969734Y-64415943D02*
X125922115Y-64463562D01*
X125779258Y-64511181D01*
X125684020Y-64511181D01*
X125541162Y-64463562D01*
X125445924Y-64368324D01*
X125398305Y-64273086D01*
X125350686Y-64082610D01*
X125350686Y-63939752D01*
X125398305Y-63749276D01*
X125445924Y-63654038D01*
X125541162Y-63558800D01*
X125684020Y-63511181D01*
X125779258Y-63511181D01*
X125922115Y-63558800D01*
X125969734Y-63606419D01*
X126922115Y-64511181D02*
X126350686Y-64511181D01*
X126636400Y-64511181D02*
X126636400Y-63511181D01*
X126541162Y-63654038D01*
X126445924Y-63749276D01*
X126350686Y-63796895D01*
X139838134Y-75134743D02*
X139790515Y-75182362D01*
X139647658Y-75229981D01*
X139552420Y-75229981D01*
X139409562Y-75182362D01*
X139314324Y-75087124D01*
X139266705Y-74991886D01*
X139219086Y-74801410D01*
X139219086Y-74658552D01*
X139266705Y-74468076D01*
X139314324Y-74372838D01*
X139409562Y-74277600D01*
X139552420Y-74229981D01*
X139647658Y-74229981D01*
X139790515Y-74277600D01*
X139838134Y-74325219D01*
X140219086Y-74325219D02*
X140266705Y-74277600D01*
X140361943Y-74229981D01*
X140600039Y-74229981D01*
X140695277Y-74277600D01*
X140742896Y-74325219D01*
X140790515Y-74420457D01*
X140790515Y-74515695D01*
X140742896Y-74658552D01*
X140171467Y-75229981D01*
X140790515Y-75229981D01*
X177684134Y-67616343D02*
X177636515Y-67663962D01*
X177493658Y-67711581D01*
X177398420Y-67711581D01*
X177255562Y-67663962D01*
X177160324Y-67568724D01*
X177112705Y-67473486D01*
X177065086Y-67283010D01*
X177065086Y-67140152D01*
X177112705Y-66949676D01*
X177160324Y-66854438D01*
X177255562Y-66759200D01*
X177398420Y-66711581D01*
X177493658Y-66711581D01*
X177636515Y-66759200D01*
X177684134Y-66806819D01*
X178017467Y-66711581D02*
X178636515Y-66711581D01*
X178303181Y-67092533D01*
X178446039Y-67092533D01*
X178541277Y-67140152D01*
X178588896Y-67187771D01*
X178636515Y-67283010D01*
X178636515Y-67521105D01*
X178588896Y-67616343D01*
X178541277Y-67663962D01*
X178446039Y-67711581D01*
X178160324Y-67711581D01*
X178065086Y-67663962D01*
X178017467Y-67616343D01*
X197955981Y-98528095D02*
X196955981Y-98528095D01*
X196955981Y-98147142D01*
X197003600Y-98051904D01*
X197051219Y-98004285D01*
X197146457Y-97956666D01*
X197289314Y-97956666D01*
X197384552Y-98004285D01*
X197432171Y-98051904D01*
X197479790Y-98147142D01*
X197479790Y-98528095D01*
X197955981Y-97004285D02*
X197955981Y-97575714D01*
X197955981Y-97290000D02*
X196955981Y-97290000D01*
X197098838Y-97385238D01*
X197194076Y-97480476D01*
X197241695Y-97575714D01*
X198006781Y-108281695D02*
X197006781Y-108281695D01*
X197006781Y-107900742D01*
X197054400Y-107805504D01*
X197102019Y-107757885D01*
X197197257Y-107710266D01*
X197340114Y-107710266D01*
X197435352Y-107757885D01*
X197482971Y-107805504D01*
X197530590Y-107900742D01*
X197530590Y-108281695D01*
X197102019Y-107329314D02*
X197054400Y-107281695D01*
X197006781Y-107186457D01*
X197006781Y-106948361D01*
X197054400Y-106853123D01*
X197102019Y-106805504D01*
X197197257Y-106757885D01*
X197292495Y-106757885D01*
X197435352Y-106805504D01*
X198006781Y-107376933D01*
X198006781Y-106757885D01*
X181801581Y-98528095D02*
X180801581Y-98528095D01*
X180801581Y-98147142D01*
X180849200Y-98051904D01*
X180896819Y-98004285D01*
X180992057Y-97956666D01*
X181134914Y-97956666D01*
X181230152Y-98004285D01*
X181277771Y-98051904D01*
X181325390Y-98147142D01*
X181325390Y-98528095D01*
X180801581Y-97623333D02*
X180801581Y-97004285D01*
X181182533Y-97337619D01*
X181182533Y-97194761D01*
X181230152Y-97099523D01*
X181277771Y-97051904D01*
X181373010Y-97004285D01*
X181611105Y-97004285D01*
X181706343Y-97051904D01*
X181753962Y-97099523D01*
X181801581Y-97194761D01*
X181801581Y-97480476D01*
X181753962Y-97575714D01*
X181706343Y-97623333D01*
X181801581Y-108383295D02*
X180801581Y-108383295D01*
X180801581Y-108002342D01*
X180849200Y-107907104D01*
X180896819Y-107859485D01*
X180992057Y-107811866D01*
X181134914Y-107811866D01*
X181230152Y-107859485D01*
X181277771Y-107907104D01*
X181325390Y-108002342D01*
X181325390Y-108383295D01*
X181134914Y-106954723D02*
X181801581Y-106954723D01*
X180753962Y-107192819D02*
X181468248Y-107430914D01*
X181468248Y-106811866D01*
X156909581Y-98528095D02*
X155909581Y-98528095D01*
X155909581Y-98147142D01*
X155957200Y-98051904D01*
X156004819Y-98004285D01*
X156100057Y-97956666D01*
X156242914Y-97956666D01*
X156338152Y-98004285D01*
X156385771Y-98051904D01*
X156433390Y-98147142D01*
X156433390Y-98528095D01*
X155909581Y-97051904D02*
X155909581Y-97528095D01*
X156385771Y-97575714D01*
X156338152Y-97528095D01*
X156290533Y-97432857D01*
X156290533Y-97194761D01*
X156338152Y-97099523D01*
X156385771Y-97051904D01*
X156481010Y-97004285D01*
X156719105Y-97004285D01*
X156814343Y-97051904D01*
X156861962Y-97099523D01*
X156909581Y-97194761D01*
X156909581Y-97432857D01*
X156861962Y-97528095D01*
X156814343Y-97575714D01*
X156960381Y-108332495D02*
X155960381Y-108332495D01*
X155960381Y-107951542D01*
X156008000Y-107856304D01*
X156055619Y-107808685D01*
X156150857Y-107761066D01*
X156293714Y-107761066D01*
X156388952Y-107808685D01*
X156436571Y-107856304D01*
X156484190Y-107951542D01*
X156484190Y-108332495D01*
X155960381Y-106903923D02*
X155960381Y-107094400D01*
X156008000Y-107189638D01*
X156055619Y-107237257D01*
X156198476Y-107332495D01*
X156388952Y-107380114D01*
X156769905Y-107380114D01*
X156865143Y-107332495D01*
X156912762Y-107284876D01*
X156960381Y-107189638D01*
X156960381Y-106999161D01*
X156912762Y-106903923D01*
X156865143Y-106856304D01*
X156769905Y-106808685D01*
X156531810Y-106808685D01*
X156436571Y-106856304D01*
X156388952Y-106903923D01*
X156341333Y-106999161D01*
X156341333Y-107189638D01*
X156388952Y-107284876D01*
X156436571Y-107332495D01*
X156531810Y-107380114D01*
X153157181Y-54281295D02*
X152157181Y-54281295D01*
X152157181Y-53900342D01*
X152204800Y-53805104D01*
X152252419Y-53757485D01*
X152347657Y-53709866D01*
X152490514Y-53709866D01*
X152585752Y-53757485D01*
X152633371Y-53805104D01*
X152680990Y-53900342D01*
X152680990Y-54281295D01*
X152157181Y-53376533D02*
X152157181Y-52709866D01*
X153157181Y-53138438D01*
X206845981Y-109602495D02*
X205845981Y-109602495D01*
X205845981Y-109221542D01*
X205893600Y-109126304D01*
X205941219Y-109078685D01*
X206036457Y-109031066D01*
X206179314Y-109031066D01*
X206274552Y-109078685D01*
X206322171Y-109126304D01*
X206369790Y-109221542D01*
X206369790Y-109602495D01*
X206274552Y-108459638D02*
X206226933Y-108554876D01*
X206179314Y-108602495D01*
X206084076Y-108650114D01*
X206036457Y-108650114D01*
X205941219Y-108602495D01*
X205893600Y-108554876D01*
X205845981Y-108459638D01*
X205845981Y-108269161D01*
X205893600Y-108173923D01*
X205941219Y-108126304D01*
X206036457Y-108078685D01*
X206084076Y-108078685D01*
X206179314Y-108126304D01*
X206226933Y-108173923D01*
X206274552Y-108269161D01*
X206274552Y-108459638D01*
X206322171Y-108554876D01*
X206369790Y-108602495D01*
X206465029Y-108650114D01*
X206655505Y-108650114D01*
X206750743Y-108602495D01*
X206798362Y-108554876D01*
X206845981Y-108459638D01*
X206845981Y-108269161D01*
X206798362Y-108173923D01*
X206750743Y-108126304D01*
X206655505Y-108078685D01*
X206465029Y-108078685D01*
X206369790Y-108126304D01*
X206322171Y-108173923D01*
X206274552Y-108269161D01*
X148222781Y-57805486D02*
X147222781Y-57805486D01*
X147222781Y-57424533D01*
X147270400Y-57329295D01*
X147318019Y-57281676D01*
X147413257Y-57234057D01*
X147556114Y-57234057D01*
X147651352Y-57281676D01*
X147698971Y-57329295D01*
X147746590Y-57424533D01*
X147746590Y-57805486D01*
X148222781Y-56281676D02*
X148222781Y-56853105D01*
X148222781Y-56567391D02*
X147222781Y-56567391D01*
X147365638Y-56662629D01*
X147460876Y-56757867D01*
X147508495Y-56853105D01*
X147222781Y-55662629D02*
X147222781Y-55567390D01*
X147270400Y-55472152D01*
X147318019Y-55424533D01*
X147413257Y-55376914D01*
X147603733Y-55329295D01*
X147841829Y-55329295D01*
X148032305Y-55376914D01*
X148127543Y-55424533D01*
X148175162Y-55472152D01*
X148222781Y-55567390D01*
X148222781Y-55662629D01*
X148175162Y-55757867D01*
X148127543Y-55805486D01*
X148032305Y-55853105D01*
X147841829Y-55900724D01*
X147603733Y-55900724D01*
X147413257Y-55853105D01*
X147318019Y-55805486D01*
X147270400Y-55757867D01*
X147222781Y-55662629D01*
X120451714Y-105201981D02*
X120451714Y-104201981D01*
X120832667Y-104201981D01*
X120927905Y-104249600D01*
X120975524Y-104297219D01*
X121023143Y-104392457D01*
X121023143Y-104535314D01*
X120975524Y-104630552D01*
X120927905Y-104678171D01*
X120832667Y-104725790D01*
X120451714Y-104725790D01*
X121975524Y-105201981D02*
X121404095Y-105201981D01*
X121689809Y-105201981D02*
X121689809Y-104201981D01*
X121594571Y-104344838D01*
X121499333Y-104440076D01*
X121404095Y-104487695D01*
X122927905Y-105201981D02*
X122356476Y-105201981D01*
X122642190Y-105201981D02*
X122642190Y-104201981D01*
X122546952Y-104344838D01*
X122451714Y-104440076D01*
X122356476Y-104487695D01*
X114599981Y-107691086D02*
X113599981Y-107691086D01*
X113599981Y-107310133D01*
X113647600Y-107214895D01*
X113695219Y-107167276D01*
X113790457Y-107119657D01*
X113933314Y-107119657D01*
X114028552Y-107167276D01*
X114076171Y-107214895D01*
X114123790Y-107310133D01*
X114123790Y-107691086D01*
X114599981Y-106167276D02*
X114599981Y-106738705D01*
X114599981Y-106452991D02*
X113599981Y-106452991D01*
X113742838Y-106548229D01*
X113838076Y-106643467D01*
X113885695Y-106738705D01*
X113695219Y-105786324D02*
X113647600Y-105738705D01*
X113599981Y-105643467D01*
X113599981Y-105405371D01*
X113647600Y-105310133D01*
X113695219Y-105262514D01*
X113790457Y-105214895D01*
X113885695Y-105214895D01*
X114028552Y-105262514D01*
X114599981Y-105833943D01*
X114599981Y-105214895D01*
X123652114Y-77160381D02*
X123652114Y-76160381D01*
X124033067Y-76160381D01*
X124128305Y-76208000D01*
X124175924Y-76255619D01*
X124223543Y-76350857D01*
X124223543Y-76493714D01*
X124175924Y-76588952D01*
X124128305Y-76636571D01*
X124033067Y-76684190D01*
X123652114Y-76684190D01*
X125175924Y-77160381D02*
X124604495Y-77160381D01*
X124890209Y-77160381D02*
X124890209Y-76160381D01*
X124794971Y-76303238D01*
X124699733Y-76398476D01*
X124604495Y-76446095D01*
X125509257Y-76160381D02*
X126128305Y-76160381D01*
X125794971Y-76541333D01*
X125937829Y-76541333D01*
X126033067Y-76588952D01*
X126080686Y-76636571D01*
X126128305Y-76731810D01*
X126128305Y-76969905D01*
X126080686Y-77065143D01*
X126033067Y-77112762D01*
X125937829Y-77160381D01*
X125652114Y-77160381D01*
X125556876Y-77112762D01*
X125509257Y-77065143D01*
X138684095Y-86015581D02*
X138684095Y-86825105D01*
X138731714Y-86920343D01*
X138779333Y-86967962D01*
X138874571Y-87015581D01*
X139065048Y-87015581D01*
X139160286Y-86967962D01*
X139207905Y-86920343D01*
X139255524Y-86825105D01*
X139255524Y-86015581D01*
X140255524Y-87015581D02*
X139684095Y-87015581D01*
X139969809Y-87015581D02*
X139969809Y-86015581D01*
X139874571Y-86158438D01*
X139779333Y-86253676D01*
X139684095Y-86301295D01*
X150317295Y-89266781D02*
X150317295Y-90076305D01*
X150364914Y-90171543D01*
X150412533Y-90219162D01*
X150507771Y-90266781D01*
X150698248Y-90266781D01*
X150793486Y-90219162D01*
X150841105Y-90171543D01*
X150888724Y-90076305D01*
X150888724Y-89266781D01*
X151317295Y-89362019D02*
X151364914Y-89314400D01*
X151460152Y-89266781D01*
X151698248Y-89266781D01*
X151793486Y-89314400D01*
X151841105Y-89362019D01*
X151888724Y-89457257D01*
X151888724Y-89552495D01*
X151841105Y-89695352D01*
X151269676Y-90266781D01*
X151888724Y-90266781D01*
X167132095Y-88707981D02*
X167132095Y-89517505D01*
X167179714Y-89612743D01*
X167227333Y-89660362D01*
X167322571Y-89707981D01*
X167513048Y-89707981D01*
X167608286Y-89660362D01*
X167655905Y-89612743D01*
X167703524Y-89517505D01*
X167703524Y-88707981D01*
X168084476Y-88707981D02*
X168703524Y-88707981D01*
X168370190Y-89088933D01*
X168513048Y-89088933D01*
X168608286Y-89136552D01*
X168655905Y-89184171D01*
X168703524Y-89279410D01*
X168703524Y-89517505D01*
X168655905Y-89612743D01*
X168608286Y-89660362D01*
X168513048Y-89707981D01*
X168227333Y-89707981D01*
X168132095Y-89660362D01*
X168084476Y-89612743D01*
X180695695Y-89977981D02*
X180695695Y-90787505D01*
X180743314Y-90882743D01*
X180790933Y-90930362D01*
X180886171Y-90977981D01*
X181076648Y-90977981D01*
X181171886Y-90930362D01*
X181219505Y-90882743D01*
X181267124Y-90787505D01*
X181267124Y-89977981D01*
X182171886Y-90311314D02*
X182171886Y-90977981D01*
X181933790Y-89930362D02*
X181695695Y-90644648D01*
X182314743Y-90644648D01*
X176947581Y-57251505D02*
X177757105Y-57251505D01*
X177852343Y-57203886D01*
X177899962Y-57156267D01*
X177947581Y-57061029D01*
X177947581Y-56870552D01*
X177899962Y-56775314D01*
X177852343Y-56727695D01*
X177757105Y-56680076D01*
X176947581Y-56680076D01*
X176947581Y-55727695D02*
X176947581Y-56203886D01*
X177423771Y-56251505D01*
X177376152Y-56203886D01*
X177328533Y-56108648D01*
X177328533Y-55870552D01*
X177376152Y-55775314D01*
X177423771Y-55727695D01*
X177519010Y-55680076D01*
X177757105Y-55680076D01*
X177852343Y-55727695D01*
X177899962Y-55775314D01*
X177947581Y-55870552D01*
X177947581Y-56108648D01*
X177899962Y-56203886D01*
X177852343Y-56251505D01*
X204674743Y-101004666D02*
X204722362Y-101052285D01*
X204769981Y-101195142D01*
X204769981Y-101290380D01*
X204722362Y-101433238D01*
X204627124Y-101528476D01*
X204531886Y-101576095D01*
X204341410Y-101623714D01*
X204198552Y-101623714D01*
X204008076Y-101576095D01*
X203912838Y-101528476D01*
X203817600Y-101433238D01*
X203769981Y-101290380D01*
X203769981Y-101195142D01*
X203817600Y-101052285D01*
X203865219Y-101004666D01*
X204103314Y-100147523D02*
X204769981Y-100147523D01*
X203722362Y-100385619D02*
X204436648Y-100623714D01*
X204436648Y-100004666D01*
X129342534Y-97670343D02*
X129294915Y-97717962D01*
X129152058Y-97765581D01*
X129056820Y-97765581D01*
X128913962Y-97717962D01*
X128818724Y-97622724D01*
X128771105Y-97527486D01*
X128723486Y-97337010D01*
X128723486Y-97194152D01*
X128771105Y-97003676D01*
X128818724Y-96908438D01*
X128913962Y-96813200D01*
X129056820Y-96765581D01*
X129152058Y-96765581D01*
X129294915Y-96813200D01*
X129342534Y-96860819D01*
X130247296Y-96765581D02*
X129771105Y-96765581D01*
X129723486Y-97241771D01*
X129771105Y-97194152D01*
X129866343Y-97146533D01*
X130104439Y-97146533D01*
X130199677Y-97194152D01*
X130247296Y-97241771D01*
X130294915Y-97337010D01*
X130294915Y-97575105D01*
X130247296Y-97670343D01*
X130199677Y-97717962D01*
X130104439Y-97765581D01*
X129866343Y-97765581D01*
X129771105Y-97717962D01*
X129723486Y-97670343D01*
X123261943Y-78875866D02*
X123309562Y-78923485D01*
X123357181Y-79066342D01*
X123357181Y-79161580D01*
X123309562Y-79304438D01*
X123214324Y-79399676D01*
X123119086Y-79447295D01*
X122928610Y-79494914D01*
X122785752Y-79494914D01*
X122595276Y-79447295D01*
X122500038Y-79399676D01*
X122404800Y-79304438D01*
X122357181Y-79161580D01*
X122357181Y-79066342D01*
X122404800Y-78923485D01*
X122452419Y-78875866D01*
X122357181Y-78018723D02*
X122357181Y-78209200D01*
X122404800Y-78304438D01*
X122452419Y-78352057D01*
X122595276Y-78447295D01*
X122785752Y-78494914D01*
X123166705Y-78494914D01*
X123261943Y-78447295D01*
X123309562Y-78399676D01*
X123357181Y-78304438D01*
X123357181Y-78113961D01*
X123309562Y-78018723D01*
X123261943Y-77971104D01*
X123166705Y-77923485D01*
X122928610Y-77923485D01*
X122833371Y-77971104D01*
X122785752Y-78018723D01*
X122738133Y-78113961D01*
X122738133Y-78304438D01*
X122785752Y-78399676D01*
X122833371Y-78447295D01*
X122928610Y-78494914D01*
X118826114Y-57195981D02*
X118826114Y-56195981D01*
X119207067Y-56195981D01*
X119302305Y-56243600D01*
X119349924Y-56291219D01*
X119397543Y-56386457D01*
X119397543Y-56529314D01*
X119349924Y-56624552D01*
X119302305Y-56672171D01*
X119207067Y-56719790D01*
X118826114Y-56719790D01*
X120349924Y-57195981D02*
X119778495Y-57195981D01*
X120064209Y-57195981D02*
X120064209Y-56195981D01*
X119968971Y-56338838D01*
X119873733Y-56434076D01*
X119778495Y-56481695D01*
X121207067Y-56529314D02*
X121207067Y-57195981D01*
X120968971Y-56148362D02*
X120730876Y-56862648D01*
X121349924Y-56862648D01*
X118927714Y-60650381D02*
X118927714Y-59650381D01*
X119308667Y-59650381D01*
X119403905Y-59698000D01*
X119451524Y-59745619D01*
X119499143Y-59840857D01*
X119499143Y-59983714D01*
X119451524Y-60078952D01*
X119403905Y-60126571D01*
X119308667Y-60174190D01*
X118927714Y-60174190D01*
X120451524Y-60650381D02*
X119880095Y-60650381D01*
X120165809Y-60650381D02*
X120165809Y-59650381D01*
X120070571Y-59793238D01*
X119975333Y-59888476D01*
X119880095Y-59936095D01*
X121356286Y-59650381D02*
X120880095Y-59650381D01*
X120832476Y-60126571D01*
X120880095Y-60078952D01*
X120975333Y-60031333D01*
X121213429Y-60031333D01*
X121308667Y-60078952D01*
X121356286Y-60126571D01*
X121403905Y-60221810D01*
X121403905Y-60459905D01*
X121356286Y-60555143D01*
X121308667Y-60602762D01*
X121213429Y-60650381D01*
X120975333Y-60650381D01*
X120880095Y-60602762D01*
X120832476Y-60555143D01*
X118927714Y-63749181D02*
X118927714Y-62749181D01*
X119308667Y-62749181D01*
X119403905Y-62796800D01*
X119451524Y-62844419D01*
X119499143Y-62939657D01*
X119499143Y-63082514D01*
X119451524Y-63177752D01*
X119403905Y-63225371D01*
X119308667Y-63272990D01*
X118927714Y-63272990D01*
X120451524Y-63749181D02*
X119880095Y-63749181D01*
X120165809Y-63749181D02*
X120165809Y-62749181D01*
X120070571Y-62892038D01*
X119975333Y-62987276D01*
X119880095Y-63034895D01*
X121308667Y-62749181D02*
X121118190Y-62749181D01*
X121022952Y-62796800D01*
X120975333Y-62844419D01*
X120880095Y-62987276D01*
X120832476Y-63177752D01*
X120832476Y-63558705D01*
X120880095Y-63653943D01*
X120927714Y-63701562D01*
X121022952Y-63749181D01*
X121213429Y-63749181D01*
X121308667Y-63701562D01*
X121356286Y-63653943D01*
X121403905Y-63558705D01*
X121403905Y-63320610D01*
X121356286Y-63225371D01*
X121308667Y-63177752D01*
X121213429Y-63130133D01*
X121022952Y-63130133D01*
X120927714Y-63177752D01*
X120880095Y-63225371D01*
X120832476Y-63320610D01*
X123439181Y-66136686D02*
X122439181Y-66136686D01*
X122439181Y-65755733D01*
X122486800Y-65660495D01*
X122534419Y-65612876D01*
X122629657Y-65565257D01*
X122772514Y-65565257D01*
X122867752Y-65612876D01*
X122915371Y-65660495D01*
X122962990Y-65755733D01*
X122962990Y-66136686D01*
X123439181Y-64612876D02*
X123439181Y-65184305D01*
X123439181Y-64898591D02*
X122439181Y-64898591D01*
X122582038Y-64993829D01*
X122677276Y-65089067D01*
X122724895Y-65184305D01*
X122439181Y-64279543D02*
X122439181Y-63612876D01*
X123439181Y-64041448D01*
X118867181Y-66238286D02*
X117867181Y-66238286D01*
X117867181Y-65857333D01*
X117914800Y-65762095D01*
X117962419Y-65714476D01*
X118057657Y-65666857D01*
X118200514Y-65666857D01*
X118295752Y-65714476D01*
X118343371Y-65762095D01*
X118390990Y-65857333D01*
X118390990Y-66238286D01*
X118867181Y-64714476D02*
X118867181Y-65285905D01*
X118867181Y-65000191D02*
X117867181Y-65000191D01*
X118010038Y-65095429D01*
X118105276Y-65190667D01*
X118152895Y-65285905D01*
X118295752Y-64143048D02*
X118248133Y-64238286D01*
X118200514Y-64285905D01*
X118105276Y-64333524D01*
X118057657Y-64333524D01*
X117962419Y-64285905D01*
X117914800Y-64238286D01*
X117867181Y-64143048D01*
X117867181Y-63952571D01*
X117914800Y-63857333D01*
X117962419Y-63809714D01*
X118057657Y-63762095D01*
X118105276Y-63762095D01*
X118200514Y-63809714D01*
X118248133Y-63857333D01*
X118295752Y-63952571D01*
X118295752Y-64143048D01*
X118343371Y-64238286D01*
X118390990Y-64285905D01*
X118486229Y-64333524D01*
X118676705Y-64333524D01*
X118771943Y-64285905D01*
X118819562Y-64238286D01*
X118867181Y-64143048D01*
X118867181Y-63952571D01*
X118819562Y-63857333D01*
X118771943Y-63809714D01*
X118676705Y-63762095D01*
X118486229Y-63762095D01*
X118390990Y-63809714D01*
X118343371Y-63857333D01*
X118295752Y-63952571D01*
X179684514Y-59532781D02*
X179684514Y-58532781D01*
X180065467Y-58532781D01*
X180160705Y-58580400D01*
X180208324Y-58628019D01*
X180255943Y-58723257D01*
X180255943Y-58866114D01*
X180208324Y-58961352D01*
X180160705Y-59008971D01*
X180065467Y-59056590D01*
X179684514Y-59056590D01*
X181208324Y-59532781D02*
X180636895Y-59532781D01*
X180922609Y-59532781D02*
X180922609Y-58532781D01*
X180827371Y-58675638D01*
X180732133Y-58770876D01*
X180636895Y-58818495D01*
X181684514Y-59532781D02*
X181874990Y-59532781D01*
X181970229Y-59485162D01*
X182017848Y-59437543D01*
X182113086Y-59294686D01*
X182160705Y-59104210D01*
X182160705Y-58723257D01*
X182113086Y-58628019D01*
X182065467Y-58580400D01*
X181970229Y-58532781D01*
X181779752Y-58532781D01*
X181684514Y-58580400D01*
X181636895Y-58628019D01*
X181589276Y-58723257D01*
X181589276Y-58961352D01*
X181636895Y-59056590D01*
X181684514Y-59104210D01*
X181779752Y-59151829D01*
X181970229Y-59151829D01*
X182065467Y-59104210D01*
X182113086Y-59056590D01*
X182160705Y-58961352D01*
X210307181Y-92146286D02*
X209307181Y-92146286D01*
X209307181Y-91765333D01*
X209354800Y-91670095D01*
X209402419Y-91622476D01*
X209497657Y-91574857D01*
X209640514Y-91574857D01*
X209735752Y-91622476D01*
X209783371Y-91670095D01*
X209830990Y-91765333D01*
X209830990Y-92146286D01*
X209402419Y-91193905D02*
X209354800Y-91146286D01*
X209307181Y-91051048D01*
X209307181Y-90812952D01*
X209354800Y-90717714D01*
X209402419Y-90670095D01*
X209497657Y-90622476D01*
X209592895Y-90622476D01*
X209735752Y-90670095D01*
X210307181Y-91241524D01*
X210307181Y-90622476D01*
X209307181Y-90003429D02*
X209307181Y-89908190D01*
X209354800Y-89812952D01*
X209402419Y-89765333D01*
X209497657Y-89717714D01*
X209688133Y-89670095D01*
X209926229Y-89670095D01*
X210116705Y-89717714D01*
X210211943Y-89765333D01*
X210259562Y-89812952D01*
X210307181Y-89908190D01*
X210307181Y-90003429D01*
X210259562Y-90098667D01*
X210211943Y-90146286D01*
X210116705Y-90193905D01*
X209926229Y-90241524D01*
X209688133Y-90241524D01*
X209497657Y-90193905D01*
X209402419Y-90146286D01*
X209354800Y-90098667D01*
X209307181Y-90003429D01*
X134421714Y-104643181D02*
X134421714Y-103643181D01*
X134802667Y-103643181D01*
X134897905Y-103690800D01*
X134945524Y-103738419D01*
X134993143Y-103833657D01*
X134993143Y-103976514D01*
X134945524Y-104071752D01*
X134897905Y-104119371D01*
X134802667Y-104166990D01*
X134421714Y-104166990D01*
X135374095Y-103738419D02*
X135421714Y-103690800D01*
X135516952Y-103643181D01*
X135755048Y-103643181D01*
X135850286Y-103690800D01*
X135897905Y-103738419D01*
X135945524Y-103833657D01*
X135945524Y-103928895D01*
X135897905Y-104071752D01*
X135326476Y-104643181D01*
X135945524Y-104643181D01*
X136897905Y-104643181D02*
X136326476Y-104643181D01*
X136612190Y-104643181D02*
X136612190Y-103643181D01*
X136516952Y-103786038D01*
X136421714Y-103881276D01*
X136326476Y-103928895D01*
X190638134Y-59278781D02*
X190304800Y-58802590D01*
X190066705Y-59278781D02*
X190066705Y-58278781D01*
X190447658Y-58278781D01*
X190542896Y-58326400D01*
X190590515Y-58374019D01*
X190638134Y-58469257D01*
X190638134Y-58612114D01*
X190590515Y-58707352D01*
X190542896Y-58754971D01*
X190447658Y-58802590D01*
X190066705Y-58802590D01*
X190971467Y-58278781D02*
X191590515Y-58278781D01*
X191257181Y-58659733D01*
X191400039Y-58659733D01*
X191495277Y-58707352D01*
X191542896Y-58754971D01*
X191590515Y-58850210D01*
X191590515Y-59088305D01*
X191542896Y-59183543D01*
X191495277Y-59231162D01*
X191400039Y-59278781D01*
X191114324Y-59278781D01*
X191019086Y-59231162D01*
X190971467Y-59183543D01*
X190638134Y-56586381D02*
X190304800Y-56110190D01*
X190066705Y-56586381D02*
X190066705Y-55586381D01*
X190447658Y-55586381D01*
X190542896Y-55634000D01*
X190590515Y-55681619D01*
X190638134Y-55776857D01*
X190638134Y-55919714D01*
X190590515Y-56014952D01*
X190542896Y-56062571D01*
X190447658Y-56110190D01*
X190066705Y-56110190D01*
X191495277Y-55919714D02*
X191495277Y-56586381D01*
X191257181Y-55538762D02*
X191019086Y-56253048D01*
X191638134Y-56253048D01*
X190587334Y-53639981D02*
X190254000Y-53163790D01*
X190015905Y-53639981D02*
X190015905Y-52639981D01*
X190396858Y-52639981D01*
X190492096Y-52687600D01*
X190539715Y-52735219D01*
X190587334Y-52830457D01*
X190587334Y-52973314D01*
X190539715Y-53068552D01*
X190492096Y-53116171D01*
X190396858Y-53163790D01*
X190015905Y-53163790D01*
X191492096Y-52639981D02*
X191015905Y-52639981D01*
X190968286Y-53116171D01*
X191015905Y-53068552D01*
X191111143Y-53020933D01*
X191349239Y-53020933D01*
X191444477Y-53068552D01*
X191492096Y-53116171D01*
X191539715Y-53211410D01*
X191539715Y-53449505D01*
X191492096Y-53544743D01*
X191444477Y-53592362D01*
X191349239Y-53639981D01*
X191111143Y-53639981D01*
X191015905Y-53592362D01*
X190968286Y-53544743D01*
X190587334Y-50845981D02*
X190254000Y-50369790D01*
X190015905Y-50845981D02*
X190015905Y-49845981D01*
X190396858Y-49845981D01*
X190492096Y-49893600D01*
X190539715Y-49941219D01*
X190587334Y-50036457D01*
X190587334Y-50179314D01*
X190539715Y-50274552D01*
X190492096Y-50322171D01*
X190396858Y-50369790D01*
X190015905Y-50369790D01*
X191444477Y-49845981D02*
X191254000Y-49845981D01*
X191158762Y-49893600D01*
X191111143Y-49941219D01*
X191015905Y-50084076D01*
X190968286Y-50274552D01*
X190968286Y-50655505D01*
X191015905Y-50750743D01*
X191063524Y-50798362D01*
X191158762Y-50845981D01*
X191349239Y-50845981D01*
X191444477Y-50798362D01*
X191492096Y-50750743D01*
X191539715Y-50655505D01*
X191539715Y-50417410D01*
X191492096Y-50322171D01*
X191444477Y-50274552D01*
X191349239Y-50226933D01*
X191158762Y-50226933D01*
X191063524Y-50274552D01*
X191015905Y-50322171D01*
X190968286Y-50417410D01*
X199021867Y-48611562D02*
X199164724Y-48659181D01*
X199402820Y-48659181D01*
X199498058Y-48611562D01*
X199545677Y-48563943D01*
X199593296Y-48468705D01*
X199593296Y-48373467D01*
X199545677Y-48278229D01*
X199498058Y-48230610D01*
X199402820Y-48182990D01*
X199212343Y-48135371D01*
X199117105Y-48087752D01*
X199069486Y-48040133D01*
X199021867Y-47944895D01*
X199021867Y-47849657D01*
X199069486Y-47754419D01*
X199117105Y-47706800D01*
X199212343Y-47659181D01*
X199450439Y-47659181D01*
X199593296Y-47706800D01*
X199926629Y-47659181D02*
X200164724Y-48659181D01*
X200355201Y-47944895D01*
X200545677Y-48659181D01*
X200783772Y-47659181D01*
X201688534Y-48659181D02*
X201117105Y-48659181D01*
X201402819Y-48659181D02*
X201402819Y-47659181D01*
X201307581Y-47802038D01*
X201212343Y-47897276D01*
X201117105Y-47944895D01*
X197205695Y-89469981D02*
X197205695Y-90279505D01*
X197253314Y-90374743D01*
X197300933Y-90422362D01*
X197396171Y-90469981D01*
X197586648Y-90469981D01*
X197681886Y-90422362D01*
X197729505Y-90374743D01*
X197777124Y-90279505D01*
X197777124Y-89469981D01*
X198681886Y-89469981D02*
X198491409Y-89469981D01*
X198396171Y-89517600D01*
X198348552Y-89565219D01*
X198253314Y-89708076D01*
X198205695Y-89898552D01*
X198205695Y-90279505D01*
X198253314Y-90374743D01*
X198300933Y-90422362D01*
X198396171Y-90469981D01*
X198586648Y-90469981D01*
X198681886Y-90422362D01*
X198729505Y-90374743D01*
X198777124Y-90279505D01*
X198777124Y-90041410D01*
X198729505Y-89946171D01*
X198681886Y-89898552D01*
X198586648Y-89850933D01*
X198396171Y-89850933D01*
X198300933Y-89898552D01*
X198253314Y-89946171D01*
X198205695Y-90041410D01*
X203149295Y-96480381D02*
X203149295Y-97289905D01*
X203196914Y-97385143D01*
X203244533Y-97432762D01*
X203339771Y-97480381D01*
X203530248Y-97480381D01*
X203625486Y-97432762D01*
X203673105Y-97385143D01*
X203720724Y-97289905D01*
X203720724Y-96480381D01*
X204101676Y-96480381D02*
X204768343Y-96480381D01*
X204339771Y-97480381D01*
X136042495Y-67016381D02*
X136042495Y-67825905D01*
X136090114Y-67921143D01*
X136137733Y-67968762D01*
X136232971Y-68016381D01*
X136423448Y-68016381D01*
X136518686Y-67968762D01*
X136566305Y-67921143D01*
X136613924Y-67825905D01*
X136613924Y-67016381D01*
X137232971Y-67444952D02*
X137137733Y-67397333D01*
X137090114Y-67349714D01*
X137042495Y-67254476D01*
X137042495Y-67206857D01*
X137090114Y-67111619D01*
X137137733Y-67064000D01*
X137232971Y-67016381D01*
X137423448Y-67016381D01*
X137518686Y-67064000D01*
X137566305Y-67111619D01*
X137613924Y-67206857D01*
X137613924Y-67254476D01*
X137566305Y-67349714D01*
X137518686Y-67397333D01*
X137423448Y-67444952D01*
X137232971Y-67444952D01*
X137137733Y-67492571D01*
X137090114Y-67540190D01*
X137042495Y-67635429D01*
X137042495Y-67825905D01*
X137090114Y-67921143D01*
X137137733Y-67968762D01*
X137232971Y-68016381D01*
X137423448Y-68016381D01*
X137518686Y-67968762D01*
X137566305Y-67921143D01*
X137613924Y-67825905D01*
X137613924Y-67635429D01*
X137566305Y-67540190D01*
X137518686Y-67492571D01*
X137423448Y-67444952D01*
X123342495Y-104303581D02*
X123342495Y-105113105D01*
X123390114Y-105208343D01*
X123437733Y-105255962D01*
X123532971Y-105303581D01*
X123723448Y-105303581D01*
X123818686Y-105255962D01*
X123866305Y-105208343D01*
X123913924Y-105113105D01*
X123913924Y-104303581D01*
X124437733Y-105303581D02*
X124628209Y-105303581D01*
X124723448Y-105255962D01*
X124771067Y-105208343D01*
X124866305Y-105065486D01*
X124913924Y-104875010D01*
X124913924Y-104494057D01*
X124866305Y-104398819D01*
X124818686Y-104351200D01*
X124723448Y-104303581D01*
X124532971Y-104303581D01*
X124437733Y-104351200D01*
X124390114Y-104398819D01*
X124342495Y-104494057D01*
X124342495Y-104732152D01*
X124390114Y-104827390D01*
X124437733Y-104875010D01*
X124532971Y-104922629D01*
X124723448Y-104922629D01*
X124818686Y-104875010D01*
X124866305Y-104827390D01*
X124913924Y-104732152D01*
X140870381Y-51436495D02*
X139870381Y-51436495D01*
X139870381Y-51055542D01*
X139918000Y-50960304D01*
X139965619Y-50912685D01*
X140060857Y-50865066D01*
X140203714Y-50865066D01*
X140298952Y-50912685D01*
X140346571Y-50960304D01*
X140394190Y-51055542D01*
X140394190Y-51436495D01*
X140870381Y-50388876D02*
X140870381Y-50198400D01*
X140822762Y-50103161D01*
X140775143Y-50055542D01*
X140632286Y-49960304D01*
X140441810Y-49912685D01*
X140060857Y-49912685D01*
X139965619Y-49960304D01*
X139918000Y-50007923D01*
X139870381Y-50103161D01*
X139870381Y-50293638D01*
X139918000Y-50388876D01*
X139965619Y-50436495D01*
X140060857Y-50484114D01*
X140298952Y-50484114D01*
X140394190Y-50436495D01*
X140441810Y-50388876D01*
X140489429Y-50293638D01*
X140489429Y-50103161D01*
X140441810Y-50007923D01*
X140394190Y-49960304D01*
X140298952Y-49912685D01*
X134402534Y-90927181D02*
X134069200Y-90450990D01*
X133831105Y-90927181D02*
X133831105Y-89927181D01*
X134212058Y-89927181D01*
X134307296Y-89974800D01*
X134354915Y-90022419D01*
X134402534Y-90117657D01*
X134402534Y-90260514D01*
X134354915Y-90355752D01*
X134307296Y-90403371D01*
X134212058Y-90450990D01*
X133831105Y-90450990D01*
X134783486Y-90022419D02*
X134831105Y-89974800D01*
X134926343Y-89927181D01*
X135164439Y-89927181D01*
X135259677Y-89974800D01*
X135307296Y-90022419D01*
X135354915Y-90117657D01*
X135354915Y-90212895D01*
X135307296Y-90355752D01*
X134735867Y-90927181D01*
X135354915Y-90927181D01*
X133488134Y-102814381D02*
X133154800Y-102338190D01*
X132916705Y-102814381D02*
X132916705Y-101814381D01*
X133297658Y-101814381D01*
X133392896Y-101862000D01*
X133440515Y-101909619D01*
X133488134Y-102004857D01*
X133488134Y-102147714D01*
X133440515Y-102242952D01*
X133392896Y-102290571D01*
X133297658Y-102338190D01*
X132916705Y-102338190D01*
X133821467Y-101814381D02*
X134488134Y-101814381D01*
X134059562Y-102814381D01*
X123836134Y-84069181D02*
X123502800Y-83592990D01*
X123264705Y-84069181D02*
X123264705Y-83069181D01*
X123645658Y-83069181D01*
X123740896Y-83116800D01*
X123788515Y-83164419D01*
X123836134Y-83259657D01*
X123836134Y-83402514D01*
X123788515Y-83497752D01*
X123740896Y-83545371D01*
X123645658Y-83592990D01*
X123264705Y-83592990D01*
X124407562Y-83497752D02*
X124312324Y-83450133D01*
X124264705Y-83402514D01*
X124217086Y-83307276D01*
X124217086Y-83259657D01*
X124264705Y-83164419D01*
X124312324Y-83116800D01*
X124407562Y-83069181D01*
X124598039Y-83069181D01*
X124693277Y-83116800D01*
X124740896Y-83164419D01*
X124788515Y-83259657D01*
X124788515Y-83307276D01*
X124740896Y-83402514D01*
X124693277Y-83450133D01*
X124598039Y-83497752D01*
X124407562Y-83497752D01*
X124312324Y-83545371D01*
X124264705Y-83592990D01*
X124217086Y-83688229D01*
X124217086Y-83878705D01*
X124264705Y-83973943D01*
X124312324Y-84021562D01*
X124407562Y-84069181D01*
X124598039Y-84069181D01*
X124693277Y-84021562D01*
X124740896Y-83973943D01*
X124788515Y-83878705D01*
X124788515Y-83688229D01*
X124740896Y-83592990D01*
X124693277Y-83545371D01*
X124598039Y-83497752D01*
X135266134Y-97632781D02*
X134932800Y-97156590D01*
X134694705Y-97632781D02*
X134694705Y-96632781D01*
X135075658Y-96632781D01*
X135170896Y-96680400D01*
X135218515Y-96728019D01*
X135266134Y-96823257D01*
X135266134Y-96966114D01*
X135218515Y-97061352D01*
X135170896Y-97108971D01*
X135075658Y-97156590D01*
X134694705Y-97156590D01*
X135742324Y-97632781D02*
X135932800Y-97632781D01*
X136028039Y-97585162D01*
X136075658Y-97537543D01*
X136170896Y-97394686D01*
X136218515Y-97204210D01*
X136218515Y-96823257D01*
X136170896Y-96728019D01*
X136123277Y-96680400D01*
X136028039Y-96632781D01*
X135837562Y-96632781D01*
X135742324Y-96680400D01*
X135694705Y-96728019D01*
X135647086Y-96823257D01*
X135647086Y-97061352D01*
X135694705Y-97156590D01*
X135742324Y-97204210D01*
X135837562Y-97251829D01*
X136028039Y-97251829D01*
X136123277Y-97204210D01*
X136170896Y-97156590D01*
X136218515Y-97061352D01*
X134637543Y-95499181D02*
X134304209Y-95022990D01*
X134066114Y-95499181D02*
X134066114Y-94499181D01*
X134447067Y-94499181D01*
X134542305Y-94546800D01*
X134589924Y-94594419D01*
X134637543Y-94689657D01*
X134637543Y-94832514D01*
X134589924Y-94927752D01*
X134542305Y-94975371D01*
X134447067Y-95022990D01*
X134066114Y-95022990D01*
X135589924Y-95499181D02*
X135018495Y-95499181D01*
X135304209Y-95499181D02*
X135304209Y-94499181D01*
X135208971Y-94642038D01*
X135113733Y-94737276D01*
X135018495Y-94784895D01*
X136208971Y-94499181D02*
X136304210Y-94499181D01*
X136399448Y-94546800D01*
X136447067Y-94594419D01*
X136494686Y-94689657D01*
X136542305Y-94880133D01*
X136542305Y-95118229D01*
X136494686Y-95308705D01*
X136447067Y-95403943D01*
X136399448Y-95451562D01*
X136304210Y-95499181D01*
X136208971Y-95499181D01*
X136113733Y-95451562D01*
X136066114Y-95403943D01*
X136018495Y-95308705D01*
X135970876Y-95118229D01*
X135970876Y-94880133D01*
X136018495Y-94689657D01*
X136066114Y-94594419D01*
X136113733Y-94546800D01*
X136208971Y-94499181D01*
X134453334Y-88844381D02*
X134120000Y-88368190D01*
X133881905Y-88844381D02*
X133881905Y-87844381D01*
X134262858Y-87844381D01*
X134358096Y-87892000D01*
X134405715Y-87939619D01*
X134453334Y-88034857D01*
X134453334Y-88177714D01*
X134405715Y-88272952D01*
X134358096Y-88320571D01*
X134262858Y-88368190D01*
X133881905Y-88368190D01*
X135405715Y-88844381D02*
X134834286Y-88844381D01*
X135120000Y-88844381D02*
X135120000Y-87844381D01*
X135024762Y-87987238D01*
X134929524Y-88082476D01*
X134834286Y-88130095D01*
X128366781Y-103608095D02*
X127366781Y-103608095D01*
X127366781Y-103370000D01*
X127414400Y-103227142D01*
X127509638Y-103131904D01*
X127604876Y-103084285D01*
X127795352Y-103036666D01*
X127938210Y-103036666D01*
X128128686Y-103084285D01*
X128223924Y-103131904D01*
X128319162Y-103227142D01*
X128366781Y-103370000D01*
X128366781Y-103608095D01*
X128366781Y-102084285D02*
X128366781Y-102655714D01*
X128366781Y-102370000D02*
X127366781Y-102370000D01*
X127509638Y-102465238D01*
X127604876Y-102560476D01*
X127652495Y-102655714D01*
X134034305Y-100071181D02*
X134034305Y-99071181D01*
X134272400Y-99071181D01*
X134415258Y-99118800D01*
X134510496Y-99214038D01*
X134558115Y-99309276D01*
X134605734Y-99499752D01*
X134605734Y-99642610D01*
X134558115Y-99833086D01*
X134510496Y-99928324D01*
X134415258Y-100023562D01*
X134272400Y-100071181D01*
X134034305Y-100071181D01*
X134986686Y-99166419D02*
X135034305Y-99118800D01*
X135129543Y-99071181D01*
X135367639Y-99071181D01*
X135462877Y-99118800D01*
X135510496Y-99166419D01*
X135558115Y-99261657D01*
X135558115Y-99356895D01*
X135510496Y-99499752D01*
X134939067Y-100071181D01*
X135558115Y-100071181D01*
X114549181Y-49829886D02*
X113549181Y-49829886D01*
X113549181Y-49448933D01*
X113596800Y-49353695D01*
X113644419Y-49306076D01*
X113739657Y-49258457D01*
X113882514Y-49258457D01*
X113977752Y-49306076D01*
X114025371Y-49353695D01*
X114072990Y-49448933D01*
X114072990Y-49829886D01*
X113644419Y-48877505D02*
X113596800Y-48829886D01*
X113549181Y-48734648D01*
X113549181Y-48496552D01*
X113596800Y-48401314D01*
X113644419Y-48353695D01*
X113739657Y-48306076D01*
X113834895Y-48306076D01*
X113977752Y-48353695D01*
X114549181Y-48925124D01*
X114549181Y-48306076D01*
X113644419Y-47925124D02*
X113596800Y-47877505D01*
X113549181Y-47782267D01*
X113549181Y-47544171D01*
X113596800Y-47448933D01*
X113644419Y-47401314D01*
X113739657Y-47353695D01*
X113834895Y-47353695D01*
X113977752Y-47401314D01*
X114549181Y-47972743D01*
X114549181Y-47353695D01*
M02*
