G04 #@! TF.FileFunction,Soldermask,Top*
%FSLAX46Y46*%
G04 Gerber Fmt 4.6, Leading zero omitted, Abs format (unit mm)*
G04 Created by KiCad (PCBNEW 4.0.4-stable) date 07/21/17 22:17:58*
%MOMM*%
%LPD*%
G01*
G04 APERTURE LIST*
%ADD10C,0.100000*%
%ADD11C,2.000000*%
%ADD12R,2.100000X2.100000*%
%ADD13O,2.100000X2.100000*%
%ADD14R,2.800000X2.000000*%
%ADD15O,2.800000X2.000000*%
%ADD16R,2.000000X2.800000*%
%ADD17O,2.000000X2.800000*%
%ADD18C,1.800000*%
%ADD19O,1.800000X1.800000*%
%ADD20R,2.200000X2.200000*%
%ADD21O,2.200000X2.200000*%
%ADD22R,1.400000X1.400000*%
%ADD23O,1.400000X1.400000*%
G04 APERTURE END LIST*
D10*
D11*
X124815600Y-65176400D03*
X124815600Y-67676400D03*
X140106400Y-72898000D03*
X140106400Y-70398000D03*
X175666400Y-67208400D03*
X173166400Y-67208400D03*
D12*
X195173600Y-97790000D03*
D13*
X192633600Y-97790000D03*
X190093600Y-97790000D03*
X187553600Y-97790000D03*
X185013600Y-97790000D03*
D12*
X195224400Y-107543600D03*
D13*
X192684400Y-107543600D03*
X190144400Y-107543600D03*
X187604400Y-107543600D03*
X185064400Y-107543600D03*
D12*
X179019200Y-97790000D03*
D13*
X176479200Y-97790000D03*
X173939200Y-97790000D03*
X171399200Y-97790000D03*
X168859200Y-97790000D03*
X166319200Y-97790000D03*
X163779200Y-97790000D03*
X161239200Y-97790000D03*
X158699200Y-97790000D03*
D12*
X179019200Y-107645200D03*
D13*
X176479200Y-107645200D03*
X173939200Y-107645200D03*
X171399200Y-107645200D03*
X168859200Y-107645200D03*
X166319200Y-107645200D03*
X163779200Y-107645200D03*
X161239200Y-107645200D03*
X158699200Y-107645200D03*
D12*
X154127200Y-97790000D03*
D13*
X151587200Y-97790000D03*
X149047200Y-97790000D03*
X146507200Y-97790000D03*
X143967200Y-97790000D03*
X141427200Y-97790000D03*
D12*
X154178000Y-107594400D03*
D13*
X151638000Y-107594400D03*
X149098000Y-107594400D03*
X146558000Y-107594400D03*
X144018000Y-107594400D03*
X141478000Y-107594400D03*
D12*
X152704800Y-51054000D03*
D13*
X155244800Y-51054000D03*
X157784800Y-51054000D03*
X160324800Y-51054000D03*
X162864800Y-51054000D03*
X165404800Y-51054000D03*
X167944800Y-51054000D03*
X170484800Y-51054000D03*
X173024800Y-51054000D03*
X175564800Y-51054000D03*
X178104800Y-51054000D03*
X180644800Y-51054000D03*
X183184800Y-51054000D03*
D12*
X204063600Y-108864400D03*
D13*
X201523600Y-108864400D03*
D12*
X145440400Y-56591200D03*
D13*
X142900400Y-56591200D03*
D12*
X124764800Y-106730800D03*
D13*
X122224800Y-106730800D03*
D12*
X118821200Y-106578400D03*
D13*
X116281200Y-106578400D03*
D12*
X124968000Y-74117200D03*
D13*
X124968000Y-71577200D03*
D14*
X136906000Y-85394800D03*
D15*
X129286000Y-70154800D03*
X136906000Y-82854800D03*
X129286000Y-72694800D03*
X136906000Y-80314800D03*
X129286000Y-75234800D03*
X136906000Y-77774800D03*
X129286000Y-77774800D03*
X136906000Y-75234800D03*
X129286000Y-80314800D03*
X136906000Y-72694800D03*
X129286000Y-82854800D03*
X136906000Y-70154800D03*
X129286000Y-85394800D03*
D14*
X151307800Y-87934800D03*
D15*
X143687800Y-70154800D03*
X151307800Y-85394800D03*
X143687800Y-72694800D03*
X151307800Y-82854800D03*
X143687800Y-75234800D03*
X151307800Y-80314800D03*
X143687800Y-77774800D03*
X151307800Y-77774800D03*
X143687800Y-80314800D03*
X151307800Y-75234800D03*
X143687800Y-82854800D03*
X151307800Y-72694800D03*
X143687800Y-85394800D03*
X151307800Y-70154800D03*
X143687800Y-87934800D03*
D14*
X165455600Y-88112600D03*
D15*
X157835600Y-70332600D03*
X165455600Y-85572600D03*
X157835600Y-72872600D03*
X165455600Y-83032600D03*
X157835600Y-75412600D03*
X165455600Y-80492600D03*
X157835600Y-77952600D03*
X165455600Y-77952600D03*
X157835600Y-80492600D03*
X165455600Y-75412600D03*
X157835600Y-83032600D03*
X165455600Y-72872600D03*
X157835600Y-85572600D03*
X165455600Y-70332600D03*
X157835600Y-88112600D03*
D14*
X180568600Y-88188800D03*
D15*
X172948600Y-70408800D03*
X180568600Y-85648800D03*
X172948600Y-72948800D03*
X180568600Y-83108800D03*
X172948600Y-75488800D03*
X180568600Y-80568800D03*
X172948600Y-78028800D03*
X180568600Y-78028800D03*
X172948600Y-80568800D03*
X180568600Y-75488800D03*
X172948600Y-83108800D03*
X180568600Y-72948800D03*
X172948600Y-85648800D03*
X180568600Y-70408800D03*
X172948600Y-88188800D03*
D16*
X175564800Y-56489600D03*
D17*
X157784800Y-64109600D03*
X173024800Y-56489600D03*
X160324800Y-64109600D03*
X170484800Y-56489600D03*
X162864800Y-64109600D03*
X167944800Y-56489600D03*
X165404800Y-64109600D03*
X165404800Y-56489600D03*
X167944800Y-64109600D03*
X162864800Y-56489600D03*
X170484800Y-64109600D03*
X160324800Y-56489600D03*
X173024800Y-64109600D03*
X157784800Y-56489600D03*
X175564800Y-64109600D03*
D11*
X202641200Y-100838000D03*
X202641200Y-98338000D03*
X130759200Y-95453200D03*
X128259200Y-95453200D03*
X124764800Y-79959200D03*
X124764800Y-77459200D03*
D12*
X120040400Y-54711600D03*
D13*
X122580400Y-54711600D03*
X125120400Y-54711600D03*
D12*
X120142000Y-58013600D03*
D13*
X122682000Y-58013600D03*
X125222000Y-58013600D03*
D12*
X120192800Y-61264800D03*
D13*
X122732800Y-61264800D03*
X125272800Y-61264800D03*
D12*
X120802400Y-65125600D03*
D13*
X120802400Y-67665600D03*
X120802400Y-70205600D03*
X120802400Y-72745600D03*
X120802400Y-75285600D03*
X120802400Y-77825600D03*
X120802400Y-80365600D03*
D12*
X116484400Y-65125600D03*
D13*
X116484400Y-67665600D03*
X116484400Y-70205600D03*
X116484400Y-72745600D03*
X116484400Y-75285600D03*
X116484400Y-77825600D03*
X116484400Y-80365600D03*
D12*
X180848000Y-66344800D03*
D13*
X180848000Y-63804800D03*
X180848000Y-61264800D03*
D12*
X207365600Y-89916000D03*
D13*
X207365600Y-92456000D03*
X207365600Y-94996000D03*
D12*
X135585200Y-106324400D03*
D13*
X133045200Y-106324400D03*
D18*
X188214000Y-58775600D03*
D19*
X193294000Y-58775600D03*
D18*
X188214000Y-56032400D03*
D19*
X193294000Y-56032400D03*
D18*
X188214000Y-53238400D03*
D19*
X193294000Y-53238400D03*
D18*
X188214000Y-50393600D03*
D19*
X193294000Y-50393600D03*
D14*
X196545200Y-50596800D03*
D15*
X204165200Y-58216800D03*
X196545200Y-53136800D03*
X204165200Y-55676800D03*
X196545200Y-55676800D03*
X204165200Y-53136800D03*
X196545200Y-58216800D03*
X204165200Y-50596800D03*
D14*
X200660000Y-90068400D03*
D15*
X185420000Y-62128400D03*
X200660000Y-87528400D03*
X185420000Y-64668400D03*
X200660000Y-84988400D03*
X185420000Y-67208400D03*
X200660000Y-82448400D03*
X185420000Y-69748400D03*
X200660000Y-79908400D03*
X185420000Y-72288400D03*
X200660000Y-77368400D03*
X185420000Y-74828400D03*
X200660000Y-74828400D03*
X185420000Y-77368400D03*
X200660000Y-72288400D03*
X185420000Y-79908400D03*
X200660000Y-69748400D03*
X185420000Y-82448400D03*
X200660000Y-67208400D03*
X185420000Y-84988400D03*
X200660000Y-64668400D03*
X185420000Y-87528400D03*
X200660000Y-62128400D03*
X185420000Y-90068400D03*
D14*
X204063600Y-95148400D03*
D15*
X188823600Y-62128400D03*
X204063600Y-92608400D03*
X188823600Y-64668400D03*
X204063600Y-90068400D03*
X188823600Y-67208400D03*
X204063600Y-87528400D03*
X188823600Y-69748400D03*
X204063600Y-84988400D03*
X188823600Y-72288400D03*
X204063600Y-82448400D03*
X188823600Y-74828400D03*
X204063600Y-79908400D03*
X188823600Y-77368400D03*
X204063600Y-77368400D03*
X188823600Y-79908400D03*
X204063600Y-74828400D03*
X188823600Y-82448400D03*
X204063600Y-72288400D03*
X188823600Y-84988400D03*
X204063600Y-69748400D03*
X188823600Y-87528400D03*
X204063600Y-67208400D03*
X188823600Y-90068400D03*
X204063600Y-64668400D03*
X188823600Y-92608400D03*
X204063600Y-62128400D03*
X188823600Y-95148400D03*
D14*
X136956800Y-65735200D03*
D15*
X129336800Y-50495200D03*
X136956800Y-63195200D03*
X129336800Y-53035200D03*
X136956800Y-60655200D03*
X129336800Y-55575200D03*
X136956800Y-58115200D03*
X129336800Y-58115200D03*
X136956800Y-55575200D03*
X129336800Y-60655200D03*
X136956800Y-53035200D03*
X129336800Y-63195200D03*
X136956800Y-50495200D03*
X129336800Y-65735200D03*
D14*
X124155200Y-103022400D03*
D15*
X116535200Y-87782400D03*
X124155200Y-100482400D03*
X116535200Y-90322400D03*
X124155200Y-97942400D03*
X116535200Y-92862400D03*
X124155200Y-95402400D03*
X116535200Y-95402400D03*
X124155200Y-92862400D03*
X116535200Y-97942400D03*
X124155200Y-90322400D03*
X116535200Y-100482400D03*
X124155200Y-87782400D03*
X116535200Y-103022400D03*
D12*
X142748000Y-50698400D03*
D13*
X145288000Y-50698400D03*
X147828000Y-50698400D03*
D18*
X137007600Y-90322400D03*
D19*
X131927600Y-90322400D03*
D18*
X135991600Y-102362000D03*
D19*
X130911600Y-102362000D03*
D18*
X126492000Y-83566000D03*
D19*
X121412000Y-83566000D03*
D18*
X137972800Y-97129600D03*
D19*
X132892800Y-97129600D03*
D18*
X132892800Y-95046800D03*
D19*
X137972800Y-95046800D03*
D18*
X137007600Y-88290400D03*
D19*
X131927600Y-88290400D03*
D20*
X127914400Y-99110800D03*
D21*
X127914400Y-106730800D03*
D20*
X130962400Y-99720400D03*
D21*
X138582400Y-99720400D03*
D22*
X120548400Y-48158400D03*
D23*
X120548400Y-49428400D03*
X119278400Y-48158400D03*
X119278400Y-49428400D03*
X118008400Y-48158400D03*
X118008400Y-49428400D03*
X116738400Y-48158400D03*
X116738400Y-49428400D03*
X115468400Y-48158400D03*
X115468400Y-49428400D03*
M02*
