M48
;DRILL file {KiCad 4.0.4-stable} date 07/21/17 22:19:09
;FORMAT={-:-/ absolute / inch / decimal}
FMAT,2
INCH,TZ
T1C0.016
T2C0.026
T3C0.028
T4C0.031
T5C0.035
T6C0.039
%
G90
G05
M72
T1
X4.544Y-2.11
X4.63Y-2.024
X4.672Y-3.786
X4.68Y-2.528
X5.01Y-2.816
X5.73Y-4.032
X5.905Y-3.77
X6.112Y-2.364
X6.158Y-3.652
X6.55Y-2.326
X6.966Y-3.658
X7.122Y-3.626
X7.128Y-2.248
X7.21Y-3.706
X7.21Y-3.898
X7.222Y-3.544
X7.32Y-1.986
X7.612Y-3.422
X7.666Y-3.25
X7.724Y-2.584
X7.724Y-3.594
X7.818Y-2.388
T2
X4.546Y-1.896
X4.546Y-1.946
X4.596Y-1.896
X4.596Y-1.946
X4.646Y-1.896
X4.646Y-1.946
X4.696Y-1.896
X4.696Y-1.946
X4.746Y-1.896
X4.746Y-1.946
T3
X4.78Y-3.29
X4.98Y-3.29
X5.154Y-4.03
X5.194Y-3.476
X5.194Y-3.556
X5.232Y-3.742
X5.232Y-3.824
X5.354Y-4.03
X5.394Y-3.476
X5.394Y-3.556
X5.432Y-3.742
X5.432Y-3.824
X7.41Y-1.984
X7.41Y-2.096
X7.41Y-2.206
X7.41Y-2.314
X7.61Y-1.984
X7.61Y-2.096
X7.61Y-2.206
X7.61Y-2.314
T4
X4.588Y-3.456
X4.588Y-3.556
X4.588Y-3.656
X4.588Y-3.756
X4.588Y-3.856
X4.588Y-3.956
X4.588Y-4.056
X4.888Y-3.456
X4.888Y-3.556
X4.888Y-3.656
X4.888Y-3.756
X4.888Y-3.856
X4.888Y-3.956
X4.888Y-4.056
X4.912Y-3.0496
X4.912Y-3.148
X4.914Y-2.566
X4.914Y-2.6644
X5.0496Y-3.758
X5.09Y-2.762
X5.09Y-2.862
X5.09Y-2.962
X5.09Y-3.062
X5.09Y-3.162
X5.09Y-3.262
X5.09Y-3.362
X5.092Y-1.988
X5.092Y-2.088
X5.092Y-2.188
X5.092Y-2.288
X5.092Y-2.388
X5.092Y-2.488
X5.092Y-2.588
X5.148Y-3.758
X5.39Y-2.762
X5.39Y-2.862
X5.39Y-2.962
X5.39Y-3.062
X5.39Y-3.162
X5.39Y-3.262
X5.39Y-3.362
X5.392Y-1.988
X5.392Y-2.088
X5.392Y-2.188
X5.392Y-2.288
X5.392Y-2.388
X5.392Y-2.488
X5.392Y-2.588
X5.516Y-2.7716
X5.516Y-2.87
X5.657Y-2.762
X5.657Y-2.862
X5.657Y-2.962
X5.657Y-3.062
X5.657Y-3.162
X5.657Y-3.262
X5.657Y-3.362
X5.657Y-3.462
X5.957Y-2.762
X5.957Y-2.862
X5.957Y-2.962
X5.957Y-3.062
X5.957Y-3.162
X5.957Y-3.262
X5.957Y-3.362
X5.957Y-3.462
X6.212Y-2.224
X6.212Y-2.524
X6.214Y-2.769
X6.214Y-2.869
X6.214Y-2.969
X6.214Y-3.069
X6.214Y-3.169
X6.214Y-3.269
X6.214Y-3.369
X6.214Y-3.469
X6.312Y-2.224
X6.312Y-2.524
X6.412Y-2.224
X6.412Y-2.524
X6.512Y-2.224
X6.512Y-2.524
X6.514Y-2.769
X6.514Y-2.869
X6.514Y-2.969
X6.514Y-3.069
X6.514Y-3.169
X6.514Y-3.269
X6.514Y-3.369
X6.514Y-3.469
X6.612Y-2.224
X6.612Y-2.524
X6.712Y-2.224
X6.712Y-2.524
X6.809Y-2.772
X6.809Y-2.872
X6.809Y-2.972
X6.809Y-3.072
X6.809Y-3.172
X6.809Y-3.272
X6.809Y-3.372
X6.809Y-3.472
X6.812Y-2.224
X6.812Y-2.524
X6.8176Y-2.646
X6.912Y-2.224
X6.912Y-2.524
X6.916Y-2.646
X7.109Y-2.772
X7.109Y-2.872
X7.109Y-2.972
X7.109Y-3.072
X7.109Y-3.172
X7.109Y-3.272
X7.109Y-3.372
X7.109Y-3.472
X7.3Y-2.446
X7.3Y-2.546
X7.3Y-2.646
X7.3Y-2.746
X7.3Y-2.846
X7.3Y-2.946
X7.3Y-3.046
X7.3Y-3.146
X7.3Y-3.246
X7.3Y-3.346
X7.3Y-3.446
X7.3Y-3.546
X7.434Y-2.446
X7.434Y-2.546
X7.434Y-2.646
X7.434Y-2.746
X7.434Y-2.846
X7.434Y-2.946
X7.434Y-3.046
X7.434Y-3.146
X7.434Y-3.246
X7.434Y-3.346
X7.434Y-3.446
X7.434Y-3.546
X7.434Y-3.646
X7.434Y-3.746
X7.738Y-1.992
X7.738Y-2.092
X7.738Y-2.192
X7.738Y-2.292
X7.9Y-2.446
X7.9Y-2.546
X7.9Y-2.646
X7.9Y-2.746
X7.9Y-2.846
X7.9Y-2.946
X7.9Y-3.046
X7.9Y-3.146
X7.9Y-3.246
X7.9Y-3.346
X7.9Y-3.446
X7.9Y-3.546
X7.978Y-3.8716
X7.978Y-3.97
X8.034Y-2.446
X8.034Y-2.546
X8.034Y-2.646
X8.034Y-2.746
X8.034Y-2.846
X8.034Y-2.946
X8.034Y-3.046
X8.034Y-3.146
X8.034Y-3.246
X8.034Y-3.346
X8.034Y-3.446
X8.034Y-3.546
X8.034Y-3.646
X8.034Y-3.746
X8.038Y-1.992
X8.038Y-2.092
X8.038Y-2.192
X8.038Y-2.292
T5
X5.036Y-3.902
X5.036Y-4.202
X5.156Y-3.926
X5.456Y-3.926
T6
X4.578Y-4.196
X4.586Y-2.564
X4.586Y-2.664
X4.586Y-2.764
X4.586Y-2.864
X4.586Y-2.964
X4.586Y-3.064
X4.586Y-3.164
X4.678Y-4.196
X4.726Y-2.154
X4.73Y-2.284
X4.732Y-2.412
X4.756Y-2.564
X4.756Y-2.664
X4.756Y-2.764
X4.756Y-2.864
X4.756Y-2.964
X4.756Y-3.064
X4.756Y-3.164
X4.812Y-4.202
X4.826Y-2.154
X4.83Y-2.284
X4.832Y-2.412
X4.912Y-4.202
X4.92Y-2.818
X4.92Y-2.918
X4.926Y-2.154
X4.93Y-2.284
X4.932Y-2.412
X5.238Y-4.186
X5.338Y-4.186
X5.568Y-3.85
X5.57Y-4.236
X5.62Y-1.996
X5.626Y-2.228
X5.668Y-3.85
X5.67Y-4.236
X5.72Y-1.996
X5.726Y-2.228
X5.768Y-3.85
X5.77Y-4.236
X5.82Y-1.996
X5.868Y-3.85
X5.87Y-4.236
X5.968Y-3.85
X5.97Y-4.236
X6.012Y-2.01
X6.068Y-3.85
X6.07Y-4.236
X6.112Y-2.01
X6.212Y-2.01
X6.248Y-3.85
X6.248Y-4.238
X6.312Y-2.01
X6.348Y-3.85
X6.348Y-4.238
X6.412Y-2.01
X6.448Y-3.85
X6.448Y-4.238
X6.512Y-2.01
X6.548Y-3.85
X6.548Y-4.238
X6.612Y-2.01
X6.648Y-3.85
X6.648Y-4.238
X6.712Y-2.01
X6.748Y-3.85
X6.748Y-4.238
X6.812Y-2.01
X6.848Y-3.85
X6.848Y-4.238
X6.912Y-2.01
X6.948Y-3.85
X6.948Y-4.238
X7.012Y-2.01
X7.048Y-3.85
X7.048Y-4.238
X7.112Y-2.01
X7.12Y-2.412
X7.12Y-2.512
X7.12Y-2.612
X7.212Y-2.01
X7.284Y-3.85
X7.286Y-4.234
X7.384Y-3.85
X7.386Y-4.234
X7.484Y-3.85
X7.486Y-4.234
X7.584Y-3.85
X7.586Y-4.234
X7.684Y-3.85
X7.686Y-4.234
X7.934Y-4.286
X8.034Y-4.286
X8.164Y-3.54
X8.164Y-3.64
X8.164Y-3.74
T0
M30
