G04 #@! TF.FileFunction,Copper,L2,Bot,Signal*
%FSLAX46Y46*%
G04 Gerber Fmt 4.6, Leading zero omitted, Abs format (unit mm)*
G04 Created by KiCad (PCBNEW 4.0.4-stable) date 07/21/17 22:17:58*
%MOMM*%
%LPD*%
G01*
G04 APERTURE LIST*
%ADD10C,0.100000*%
%ADD11C,1.600000*%
%ADD12R,1.700000X1.700000*%
%ADD13O,1.700000X1.700000*%
%ADD14R,2.400000X1.600000*%
%ADD15O,2.400000X1.600000*%
%ADD16R,1.600000X2.400000*%
%ADD17O,1.600000X2.400000*%
%ADD18C,1.400000*%
%ADD19O,1.400000X1.400000*%
%ADD20R,1.800000X1.800000*%
%ADD21O,1.800000X1.800000*%
%ADD22R,1.000000X1.000000*%
%ADD23O,1.000000X1.000000*%
%ADD24C,0.600000*%
%ADD25C,1.000000*%
%ADD26C,0.750000*%
%ADD27C,0.400000*%
%ADD28C,0.500000*%
G04 APERTURE END LIST*
D10*
D11*
X124815600Y-65176400D03*
X124815600Y-67676400D03*
X140106400Y-72898000D03*
X140106400Y-70398000D03*
X175666400Y-67208400D03*
X173166400Y-67208400D03*
D12*
X195173600Y-97790000D03*
D13*
X192633600Y-97790000D03*
X190093600Y-97790000D03*
X187553600Y-97790000D03*
X185013600Y-97790000D03*
D12*
X195224400Y-107543600D03*
D13*
X192684400Y-107543600D03*
X190144400Y-107543600D03*
X187604400Y-107543600D03*
X185064400Y-107543600D03*
D12*
X179019200Y-97790000D03*
D13*
X176479200Y-97790000D03*
X173939200Y-97790000D03*
X171399200Y-97790000D03*
X168859200Y-97790000D03*
X166319200Y-97790000D03*
X163779200Y-97790000D03*
X161239200Y-97790000D03*
X158699200Y-97790000D03*
D12*
X179019200Y-107645200D03*
D13*
X176479200Y-107645200D03*
X173939200Y-107645200D03*
X171399200Y-107645200D03*
X168859200Y-107645200D03*
X166319200Y-107645200D03*
X163779200Y-107645200D03*
X161239200Y-107645200D03*
X158699200Y-107645200D03*
D12*
X154127200Y-97790000D03*
D13*
X151587200Y-97790000D03*
X149047200Y-97790000D03*
X146507200Y-97790000D03*
X143967200Y-97790000D03*
X141427200Y-97790000D03*
D12*
X154178000Y-107594400D03*
D13*
X151638000Y-107594400D03*
X149098000Y-107594400D03*
X146558000Y-107594400D03*
X144018000Y-107594400D03*
X141478000Y-107594400D03*
D12*
X152704800Y-51054000D03*
D13*
X155244800Y-51054000D03*
X157784800Y-51054000D03*
X160324800Y-51054000D03*
X162864800Y-51054000D03*
X165404800Y-51054000D03*
X167944800Y-51054000D03*
X170484800Y-51054000D03*
X173024800Y-51054000D03*
X175564800Y-51054000D03*
X178104800Y-51054000D03*
X180644800Y-51054000D03*
X183184800Y-51054000D03*
D12*
X204063600Y-108864400D03*
D13*
X201523600Y-108864400D03*
D12*
X145440400Y-56591200D03*
D13*
X142900400Y-56591200D03*
D12*
X124764800Y-106730800D03*
D13*
X122224800Y-106730800D03*
D12*
X118821200Y-106578400D03*
D13*
X116281200Y-106578400D03*
D12*
X124968000Y-74117200D03*
D13*
X124968000Y-71577200D03*
D14*
X136906000Y-85394800D03*
D15*
X129286000Y-70154800D03*
X136906000Y-82854800D03*
X129286000Y-72694800D03*
X136906000Y-80314800D03*
X129286000Y-75234800D03*
X136906000Y-77774800D03*
X129286000Y-77774800D03*
X136906000Y-75234800D03*
X129286000Y-80314800D03*
X136906000Y-72694800D03*
X129286000Y-82854800D03*
X136906000Y-70154800D03*
X129286000Y-85394800D03*
D14*
X151307800Y-87934800D03*
D15*
X143687800Y-70154800D03*
X151307800Y-85394800D03*
X143687800Y-72694800D03*
X151307800Y-82854800D03*
X143687800Y-75234800D03*
X151307800Y-80314800D03*
X143687800Y-77774800D03*
X151307800Y-77774800D03*
X143687800Y-80314800D03*
X151307800Y-75234800D03*
X143687800Y-82854800D03*
X151307800Y-72694800D03*
X143687800Y-85394800D03*
X151307800Y-70154800D03*
X143687800Y-87934800D03*
D14*
X165455600Y-88112600D03*
D15*
X157835600Y-70332600D03*
X165455600Y-85572600D03*
X157835600Y-72872600D03*
X165455600Y-83032600D03*
X157835600Y-75412600D03*
X165455600Y-80492600D03*
X157835600Y-77952600D03*
X165455600Y-77952600D03*
X157835600Y-80492600D03*
X165455600Y-75412600D03*
X157835600Y-83032600D03*
X165455600Y-72872600D03*
X157835600Y-85572600D03*
X165455600Y-70332600D03*
X157835600Y-88112600D03*
D14*
X180568600Y-88188800D03*
D15*
X172948600Y-70408800D03*
X180568600Y-85648800D03*
X172948600Y-72948800D03*
X180568600Y-83108800D03*
X172948600Y-75488800D03*
X180568600Y-80568800D03*
X172948600Y-78028800D03*
X180568600Y-78028800D03*
X172948600Y-80568800D03*
X180568600Y-75488800D03*
X172948600Y-83108800D03*
X180568600Y-72948800D03*
X172948600Y-85648800D03*
X180568600Y-70408800D03*
X172948600Y-88188800D03*
D16*
X175564800Y-56489600D03*
D17*
X157784800Y-64109600D03*
X173024800Y-56489600D03*
X160324800Y-64109600D03*
X170484800Y-56489600D03*
X162864800Y-64109600D03*
X167944800Y-56489600D03*
X165404800Y-64109600D03*
X165404800Y-56489600D03*
X167944800Y-64109600D03*
X162864800Y-56489600D03*
X170484800Y-64109600D03*
X160324800Y-56489600D03*
X173024800Y-64109600D03*
X157784800Y-56489600D03*
X175564800Y-64109600D03*
D11*
X202641200Y-100838000D03*
X202641200Y-98338000D03*
X130759200Y-95453200D03*
X128259200Y-95453200D03*
X124764800Y-79959200D03*
X124764800Y-77459200D03*
D12*
X120040400Y-54711600D03*
D13*
X122580400Y-54711600D03*
X125120400Y-54711600D03*
D12*
X120142000Y-58013600D03*
D13*
X122682000Y-58013600D03*
X125222000Y-58013600D03*
D12*
X120192800Y-61264800D03*
D13*
X122732800Y-61264800D03*
X125272800Y-61264800D03*
D12*
X120802400Y-65125600D03*
D13*
X120802400Y-67665600D03*
X120802400Y-70205600D03*
X120802400Y-72745600D03*
X120802400Y-75285600D03*
X120802400Y-77825600D03*
X120802400Y-80365600D03*
D12*
X116484400Y-65125600D03*
D13*
X116484400Y-67665600D03*
X116484400Y-70205600D03*
X116484400Y-72745600D03*
X116484400Y-75285600D03*
X116484400Y-77825600D03*
X116484400Y-80365600D03*
D12*
X180848000Y-66344800D03*
D13*
X180848000Y-63804800D03*
X180848000Y-61264800D03*
D12*
X207365600Y-89916000D03*
D13*
X207365600Y-92456000D03*
X207365600Y-94996000D03*
D12*
X135585200Y-106324400D03*
D13*
X133045200Y-106324400D03*
D18*
X188214000Y-58775600D03*
D19*
X193294000Y-58775600D03*
D18*
X188214000Y-56032400D03*
D19*
X193294000Y-56032400D03*
D18*
X188214000Y-53238400D03*
D19*
X193294000Y-53238400D03*
D18*
X188214000Y-50393600D03*
D19*
X193294000Y-50393600D03*
D14*
X196545200Y-50596800D03*
D15*
X204165200Y-58216800D03*
X196545200Y-53136800D03*
X204165200Y-55676800D03*
X196545200Y-55676800D03*
X204165200Y-53136800D03*
X196545200Y-58216800D03*
X204165200Y-50596800D03*
D14*
X200660000Y-90068400D03*
D15*
X185420000Y-62128400D03*
X200660000Y-87528400D03*
X185420000Y-64668400D03*
X200660000Y-84988400D03*
X185420000Y-67208400D03*
X200660000Y-82448400D03*
X185420000Y-69748400D03*
X200660000Y-79908400D03*
X185420000Y-72288400D03*
X200660000Y-77368400D03*
X185420000Y-74828400D03*
X200660000Y-74828400D03*
X185420000Y-77368400D03*
X200660000Y-72288400D03*
X185420000Y-79908400D03*
X200660000Y-69748400D03*
X185420000Y-82448400D03*
X200660000Y-67208400D03*
X185420000Y-84988400D03*
X200660000Y-64668400D03*
X185420000Y-87528400D03*
X200660000Y-62128400D03*
X185420000Y-90068400D03*
D14*
X204063600Y-95148400D03*
D15*
X188823600Y-62128400D03*
X204063600Y-92608400D03*
X188823600Y-64668400D03*
X204063600Y-90068400D03*
X188823600Y-67208400D03*
X204063600Y-87528400D03*
X188823600Y-69748400D03*
X204063600Y-84988400D03*
X188823600Y-72288400D03*
X204063600Y-82448400D03*
X188823600Y-74828400D03*
X204063600Y-79908400D03*
X188823600Y-77368400D03*
X204063600Y-77368400D03*
X188823600Y-79908400D03*
X204063600Y-74828400D03*
X188823600Y-82448400D03*
X204063600Y-72288400D03*
X188823600Y-84988400D03*
X204063600Y-69748400D03*
X188823600Y-87528400D03*
X204063600Y-67208400D03*
X188823600Y-90068400D03*
X204063600Y-64668400D03*
X188823600Y-92608400D03*
X204063600Y-62128400D03*
X188823600Y-95148400D03*
D14*
X136956800Y-65735200D03*
D15*
X129336800Y-50495200D03*
X136956800Y-63195200D03*
X129336800Y-53035200D03*
X136956800Y-60655200D03*
X129336800Y-55575200D03*
X136956800Y-58115200D03*
X129336800Y-58115200D03*
X136956800Y-55575200D03*
X129336800Y-60655200D03*
X136956800Y-53035200D03*
X129336800Y-63195200D03*
X136956800Y-50495200D03*
X129336800Y-65735200D03*
D14*
X124155200Y-103022400D03*
D15*
X116535200Y-87782400D03*
X124155200Y-100482400D03*
X116535200Y-90322400D03*
X124155200Y-97942400D03*
X116535200Y-92862400D03*
X124155200Y-95402400D03*
X116535200Y-95402400D03*
X124155200Y-92862400D03*
X116535200Y-97942400D03*
X124155200Y-90322400D03*
X116535200Y-100482400D03*
X124155200Y-87782400D03*
X116535200Y-103022400D03*
D12*
X142748000Y-50698400D03*
D13*
X145288000Y-50698400D03*
X147828000Y-50698400D03*
D18*
X137007600Y-90322400D03*
D19*
X131927600Y-90322400D03*
D18*
X135991600Y-102362000D03*
D19*
X130911600Y-102362000D03*
D18*
X126492000Y-83566000D03*
D19*
X121412000Y-83566000D03*
D18*
X137972800Y-97129600D03*
D19*
X132892800Y-97129600D03*
D18*
X132892800Y-95046800D03*
D19*
X137972800Y-95046800D03*
D18*
X137007600Y-88290400D03*
D19*
X131927600Y-88290400D03*
D20*
X127914400Y-99110800D03*
D21*
X127914400Y-106730800D03*
D20*
X130962400Y-99720400D03*
D21*
X138582400Y-99720400D03*
D22*
X120548400Y-48158400D03*
D23*
X120548400Y-49428400D03*
X119278400Y-48158400D03*
X119278400Y-49428400D03*
X118008400Y-48158400D03*
X118008400Y-49428400D03*
X116738400Y-48158400D03*
X116738400Y-49428400D03*
X115468400Y-48158400D03*
X115468400Y-49428400D03*
D24*
X185928000Y-50444400D03*
X181051200Y-57099200D03*
X183438800Y-90017600D03*
X196189600Y-91287600D03*
X196189600Y-65633600D03*
X183134000Y-99009200D03*
X183134000Y-94132400D03*
X180898800Y-92100400D03*
X176936400Y-92913200D03*
X156413200Y-92760800D03*
X149987000Y-95758000D03*
X145542000Y-102412800D03*
X166370000Y-59080400D03*
X194716400Y-82550000D03*
X193344800Y-86918800D03*
X127254000Y-71526400D03*
X155244800Y-60045600D03*
X115417600Y-53594000D03*
X117602000Y-51409600D03*
X118872000Y-64211200D03*
X118668800Y-96164400D03*
X198577200Y-60655200D03*
D25*
X142748000Y-90017600D02*
X141274800Y-90017600D01*
X141274800Y-90017600D02*
X138938000Y-92354400D01*
X131927600Y-90322400D02*
X130505200Y-90322400D01*
X129286000Y-89103200D02*
X129286000Y-85394800D01*
X130505200Y-90322400D02*
X129286000Y-89103200D01*
X131927600Y-91643200D02*
X131927600Y-90322400D01*
X132638800Y-92354400D02*
X131927600Y-91643200D01*
X138938000Y-92354400D02*
X132638800Y-92354400D01*
X143687800Y-87934800D02*
X143687800Y-89077800D01*
X143687800Y-89077800D02*
X142748000Y-90017600D01*
X143662400Y-90017600D02*
X142748000Y-90017600D01*
X172948600Y-88188800D02*
X172948600Y-89331800D01*
X172948600Y-89331800D02*
X173634400Y-90017600D01*
X157835600Y-88112600D02*
X157835600Y-89255600D01*
X157835600Y-89255600D02*
X158597600Y-90017600D01*
X183438800Y-90017600D02*
X173634400Y-90017600D01*
X173634400Y-90017600D02*
X158597600Y-90017600D01*
X158597600Y-90017600D02*
X143662400Y-90017600D01*
X195580000Y-95148400D02*
X198932800Y-95148400D01*
X200812400Y-100838000D02*
X202641200Y-100838000D01*
X199644000Y-99669600D02*
X200812400Y-100838000D01*
X199644000Y-95859600D02*
X199644000Y-99669600D01*
X198932800Y-95148400D02*
X199644000Y-95859600D01*
X183438800Y-90017600D02*
X185369200Y-90017600D01*
X185369200Y-90017600D02*
X185369200Y-93472000D01*
X187045600Y-95148400D02*
X188823600Y-95148400D01*
X185369200Y-93472000D02*
X187045600Y-95148400D01*
X204165200Y-50596800D02*
X204165200Y-53136800D01*
X204165200Y-55676800D02*
X204165200Y-53136800D01*
X204165200Y-58216800D02*
X204165200Y-55676800D01*
X195173600Y-95148400D02*
X195580000Y-95148400D01*
X195275200Y-95148400D02*
X195173600Y-95148400D01*
X195173600Y-95148400D02*
X194411600Y-95148400D01*
X124815600Y-65176400D02*
X126593600Y-65176400D01*
X127152400Y-65735200D02*
X129336800Y-65735200D01*
X126593600Y-65176400D02*
X127152400Y-65735200D01*
X185928000Y-55524400D02*
X185928000Y-50444400D01*
X181051200Y-57099200D02*
X184353200Y-57099200D01*
X184353200Y-57099200D02*
X185928000Y-55524400D01*
X136906000Y-75234800D02*
X139090400Y-75234800D01*
X140106400Y-74218800D02*
X140106400Y-72898000D01*
X139090400Y-75234800D02*
X140106400Y-74218800D01*
X188823600Y-95148400D02*
X194411600Y-95148400D01*
X175666400Y-67208400D02*
X175666400Y-81635600D01*
X177139600Y-83108800D02*
X180568600Y-83108800D01*
X175666400Y-81635600D02*
X177139600Y-83108800D01*
X175666400Y-67208400D02*
X175666400Y-64211200D01*
X175666400Y-64211200D02*
X175564800Y-64109600D01*
D26*
X118008400Y-48158400D02*
X118008400Y-47447200D01*
X115468400Y-47345600D02*
X115468400Y-48158400D01*
X115874800Y-46939200D02*
X115468400Y-47345600D01*
X117500400Y-46939200D02*
X115874800Y-46939200D01*
X118008400Y-47447200D02*
X117500400Y-46939200D01*
D25*
X202641200Y-98338000D02*
X202173200Y-98338000D01*
X202173200Y-98338000D02*
X201269600Y-97434400D01*
X199440800Y-92608400D02*
X197510400Y-92608400D01*
X201269600Y-94437200D02*
X199440800Y-92608400D01*
X201269600Y-97434400D02*
X201269600Y-94437200D01*
X113995200Y-51409600D02*
X113995200Y-48666400D01*
X113995200Y-48666400D02*
X114503200Y-48158400D01*
X114503200Y-48158400D02*
X115468400Y-48158400D01*
X116484400Y-80365600D02*
X113995200Y-77876400D01*
X113995200Y-51409600D02*
X113995200Y-77876400D01*
X120548400Y-48158400D02*
X119278400Y-48158400D01*
X119278400Y-48158400D02*
X118008400Y-48158400D01*
X120548400Y-48158400D02*
X120548400Y-49428400D01*
X120548400Y-48158400D02*
X130454400Y-48209200D01*
X130454400Y-48209200D02*
X130606800Y-48361600D01*
X196189600Y-65633600D02*
X196189600Y-62890400D01*
X197510400Y-92608400D02*
X196189600Y-91287600D01*
X196189600Y-62890400D02*
X195427600Y-62128400D01*
X194614800Y-61315600D02*
X193751200Y-60452000D01*
X200660000Y-62128400D02*
X195427600Y-62128400D01*
X195427600Y-62128400D02*
X193751200Y-60452000D01*
X136956800Y-50495200D02*
X136956800Y-49123600D01*
X136956800Y-49123600D02*
X137718800Y-48361600D01*
X138430000Y-48361600D02*
X137718800Y-48361600D01*
X137718800Y-48361600D02*
X130606800Y-48361600D01*
X122834400Y-67665600D02*
X122834400Y-70713600D01*
X122834400Y-70713600D02*
X120802400Y-72745600D01*
X120802400Y-67665600D02*
X116484400Y-67665600D01*
X165455600Y-70332600D02*
X165455600Y-68427600D01*
X165455600Y-68427600D02*
X166573200Y-67310000D01*
X167944800Y-64109600D02*
X167944800Y-66497200D01*
X167944800Y-66497200D02*
X167132000Y-67310000D01*
X152654000Y-56489600D02*
X152654000Y-67081400D01*
X152654000Y-67081400D02*
X152882600Y-67310000D01*
X121412000Y-83566000D02*
X121412000Y-86309200D01*
X122885200Y-87782400D02*
X124155200Y-87782400D01*
X121412000Y-86309200D02*
X122885200Y-87782400D01*
X120802400Y-80365600D02*
X120802400Y-82956400D01*
X120802400Y-82956400D02*
X121412000Y-83566000D01*
X142748000Y-50698400D02*
X142798800Y-49022000D01*
X142798800Y-49022000D02*
X142138400Y-48361600D01*
X136906000Y-70154800D02*
X136906000Y-68376800D01*
X136906000Y-68376800D02*
X137606400Y-67676400D01*
X124815600Y-67676400D02*
X137606400Y-67676400D01*
X137606400Y-67676400D02*
X139232000Y-67676400D01*
X139598400Y-67310000D02*
X141884400Y-67310000D01*
X139232000Y-67676400D02*
X139598400Y-67310000D01*
X120802400Y-67665600D02*
X122834400Y-67665600D01*
X122834400Y-67665600D02*
X124804800Y-67665600D01*
X124804800Y-67665600D02*
X124815600Y-67676400D01*
X150266400Y-54254400D02*
X150266400Y-48768000D01*
X157784800Y-56489600D02*
X152654000Y-56489600D01*
X152654000Y-56489600D02*
X152501600Y-56489600D01*
X150266400Y-54254400D02*
X152501600Y-56489600D01*
X150266400Y-48768000D02*
X150672800Y-48361600D01*
X150672800Y-48361600D02*
X142138400Y-48361600D01*
X142138400Y-48361600D02*
X138430000Y-48361600D01*
X188214000Y-50393600D02*
X186182000Y-48361600D01*
X150672800Y-48361600D02*
X186182000Y-48361600D01*
X180848000Y-66344800D02*
X179527200Y-66344800D01*
X180695600Y-58775600D02*
X188214000Y-58775600D01*
X178511200Y-60960000D02*
X180695600Y-58775600D01*
X178511200Y-65328800D02*
X178511200Y-60960000D01*
X179527200Y-66344800D02*
X178511200Y-65328800D01*
D27*
X141427200Y-70916800D02*
X141427200Y-70612000D01*
X141427200Y-70916800D02*
X141427200Y-84734400D01*
X141427200Y-84734400D02*
X142087600Y-85394800D01*
X143687800Y-85394800D02*
X142087600Y-85394800D01*
X141213200Y-70398000D02*
X140106400Y-70398000D01*
X141427200Y-70612000D02*
X141213200Y-70398000D01*
D25*
X136906000Y-70154800D02*
X139863200Y-70154800D01*
X139863200Y-70154800D02*
X140106400Y-70398000D01*
X136906000Y-70154800D02*
X136906000Y-70002400D01*
X200660000Y-62128400D02*
X204063600Y-62128400D01*
X188214000Y-58775600D02*
X188366400Y-58775600D01*
X188366400Y-58775600D02*
X190042800Y-60452000D01*
X190042800Y-60452000D02*
X193751200Y-60452000D01*
X173166400Y-67208400D02*
X173166400Y-64251200D01*
X173166400Y-64251200D02*
X173024800Y-64109600D01*
X160324800Y-64109600D02*
X160324800Y-66700400D01*
X160324800Y-66700400D02*
X160934400Y-67310000D01*
X188214000Y-50393600D02*
X188214000Y-53238400D01*
X188214000Y-56032400D02*
X188214000Y-53238400D01*
X188214000Y-58775600D02*
X188214000Y-56032400D01*
X180848000Y-66344800D02*
X180848000Y-70129400D01*
X180848000Y-70129400D02*
X180568600Y-70408800D01*
X116484400Y-80365600D02*
X120802400Y-80365600D01*
X116484400Y-72745600D02*
X120802400Y-72745600D01*
X173064800Y-67310000D02*
X167132000Y-67310000D01*
X167132000Y-67310000D02*
X166573200Y-67310000D01*
X166573200Y-67310000D02*
X160934400Y-67310000D01*
X160934400Y-67310000D02*
X160314000Y-67310000D01*
X152882600Y-67310000D02*
X160314000Y-67310000D01*
X152882600Y-67310000D02*
X151333200Y-67310000D01*
X151333200Y-67310000D02*
X151079200Y-67310000D01*
X173064800Y-67310000D02*
X173166400Y-67208400D01*
D27*
X175006000Y-85648800D02*
X172948600Y-85648800D01*
X175869600Y-85648800D02*
X177139600Y-86918800D01*
X177139600Y-86918800D02*
X181813200Y-86918800D01*
X175006000Y-85648800D02*
X175869600Y-85648800D01*
D26*
X141793600Y-67400800D02*
X141884400Y-67310000D01*
D25*
X141884400Y-67310000D02*
X151079200Y-67310000D01*
X151307800Y-70154800D02*
X151307800Y-67538600D01*
D26*
X151307800Y-67538600D02*
X151079200Y-67310000D01*
D27*
X157835600Y-85572600D02*
X155524200Y-85572600D01*
X155524200Y-85572600D02*
X154432000Y-86664800D01*
X154432000Y-86664800D02*
X149961600Y-86664800D01*
X149961600Y-86664800D02*
X148691600Y-85394800D01*
X148691600Y-85394800D02*
X143687800Y-85394800D01*
X172948600Y-85648800D02*
X170840400Y-85648800D01*
X162941000Y-85572600D02*
X157835600Y-85572600D01*
X164185600Y-86817200D02*
X162941000Y-85572600D01*
X169672000Y-86817200D02*
X164185600Y-86817200D01*
X170840400Y-85648800D02*
X169672000Y-86817200D01*
D26*
X151307800Y-70154800D02*
X151307800Y-68884800D01*
D25*
X124764800Y-106730800D02*
X127863600Y-106680000D01*
X127863600Y-106680000D02*
X127914400Y-106730800D01*
D27*
X183134000Y-94132400D02*
X183134000Y-99009200D01*
X165455600Y-83032600D02*
X168224200Y-83032600D01*
X171018200Y-75488800D02*
X172948600Y-75488800D01*
X169824400Y-76682600D02*
X171018200Y-75488800D01*
X169824400Y-81432400D02*
X169824400Y-76682600D01*
X168224200Y-83032600D02*
X169824400Y-81432400D01*
X192684400Y-107543600D02*
X192684400Y-104394000D01*
X190195200Y-101904800D02*
X184404000Y-101904800D01*
X192684400Y-104394000D02*
X190195200Y-101904800D01*
X182067200Y-99669600D02*
X182168800Y-99669600D01*
X182067200Y-93268800D02*
X180898800Y-92100400D01*
X182168800Y-99669600D02*
X184404000Y-101904800D01*
X182067200Y-99669600D02*
X182067200Y-93268800D01*
X187604400Y-107543600D02*
X187604400Y-104952800D01*
X186232800Y-103581200D02*
X184048400Y-103581200D01*
X187604400Y-104952800D02*
X186232800Y-103581200D01*
X181254400Y-100685600D02*
X181254400Y-100787200D01*
X181254400Y-96469200D02*
X181254400Y-100685600D01*
X178968400Y-94945200D02*
X179730400Y-94945200D01*
X179730400Y-94945200D02*
X181254400Y-96469200D01*
X176936400Y-92913200D02*
X178968400Y-94945200D01*
X181254400Y-100787200D02*
X184048400Y-103581200D01*
X157835600Y-80492600D02*
X160248600Y-80492600D01*
X160248600Y-80492600D02*
X162788600Y-77952600D01*
X162788600Y-77952600D02*
X165455600Y-77952600D01*
X161239200Y-97790000D02*
X163779200Y-97790000D01*
X156083000Y-75412600D02*
X155879800Y-75412600D01*
X157835600Y-75412600D02*
X156260800Y-75412600D01*
X156260800Y-75412600D02*
X156083000Y-75412600D01*
X154787600Y-76504800D02*
X154787600Y-81076800D01*
X155879800Y-75412600D02*
X154787600Y-76504800D01*
X152908000Y-82854800D02*
X153009600Y-82854800D01*
X153009600Y-82854800D02*
X154787600Y-81076800D01*
X151307800Y-82854800D02*
X152908000Y-82854800D01*
X158699200Y-107645200D02*
X158648400Y-102870000D01*
X156413200Y-100634800D02*
X156413200Y-100685600D01*
X158648400Y-102870000D02*
X156413200Y-100634800D01*
X156413200Y-100685600D02*
X156413200Y-100685600D01*
X156413200Y-100685600D02*
X156413200Y-92760800D01*
X143687800Y-80314800D02*
X146278600Y-80314800D01*
X148818600Y-77774800D02*
X151307800Y-77774800D01*
X146278600Y-80314800D02*
X148818600Y-77774800D01*
X151638000Y-107594400D02*
X151638000Y-104089200D01*
X150317200Y-102768400D02*
X150317200Y-96977200D01*
X151638000Y-104089200D02*
X150317200Y-102768400D01*
X150317200Y-96088200D02*
X149987000Y-95758000D01*
X150317200Y-96977200D02*
X150317200Y-96088200D01*
X149098000Y-105968800D02*
X149098000Y-107594400D01*
X145542000Y-102412800D02*
X149098000Y-105968800D01*
X160324800Y-56489600D02*
X160324800Y-51054000D01*
X162864800Y-56489600D02*
X162864800Y-51054000D01*
X165404800Y-56489600D02*
X165404800Y-51054000D01*
X167944800Y-56489600D02*
X167944800Y-51054000D01*
X170484800Y-56489600D02*
X170484800Y-51054000D01*
X173024800Y-56489600D02*
X173024800Y-51054000D01*
X172872400Y-59029600D02*
X174345600Y-57556400D01*
X166420800Y-59029600D02*
X172872400Y-59029600D01*
X166370000Y-59080400D02*
X166420800Y-59029600D01*
X175564800Y-51054000D02*
X175564800Y-52019200D01*
X174345600Y-53238400D02*
X174345600Y-57556400D01*
X175564800Y-52019200D02*
X174345600Y-53238400D01*
X176987200Y-57302400D02*
X176987200Y-58166000D01*
X176987200Y-58166000D02*
X176276000Y-58877200D01*
X173990000Y-60858400D02*
X174294800Y-60858400D01*
X173990000Y-60858400D02*
X159054800Y-60858400D01*
X159054800Y-60858400D02*
X157784800Y-62128400D01*
X157784800Y-62128400D02*
X157784800Y-64109600D01*
X174294800Y-60858400D02*
X176276000Y-58877200D01*
X178104800Y-51054000D02*
X178104800Y-53086000D01*
X178104800Y-53086000D02*
X176987200Y-54203600D01*
X176987200Y-54203600D02*
X176987200Y-57302400D01*
X176987200Y-57302400D02*
X176987200Y-57759600D01*
X176987200Y-57759600D02*
X176987200Y-57759600D01*
X180644800Y-51054000D02*
X180644800Y-52374800D01*
X180644800Y-52374800D02*
X177647600Y-55372000D01*
X174650400Y-61468000D02*
X174955200Y-61468000D01*
X177647600Y-58775600D02*
X177647600Y-58064400D01*
X174955200Y-61468000D02*
X177647600Y-58775600D01*
X166624000Y-61468000D02*
X165404800Y-62687200D01*
X174650400Y-61468000D02*
X166624000Y-61468000D01*
X177647600Y-55372000D02*
X177647600Y-58064400D01*
X177647600Y-58064400D02*
X177647600Y-58572400D01*
X165404800Y-64109600D02*
X165404800Y-62687200D01*
X178282600Y-59258200D02*
X178282600Y-56565800D01*
X178282600Y-56565800D02*
X183184800Y-51663600D01*
X183184800Y-51663600D02*
X183184800Y-51054000D01*
X170891200Y-62280800D02*
X175260000Y-62280800D01*
X175260000Y-62280800D02*
X178282600Y-59258200D01*
X170484800Y-64109600D02*
X170484800Y-62687200D01*
X170484800Y-62687200D02*
X170891200Y-62280800D01*
X182321200Y-80568800D02*
X180568600Y-80568800D01*
X182930800Y-81178400D02*
X182321200Y-80568800D01*
X193344800Y-81178400D02*
X182930800Y-81178400D01*
X194716400Y-82550000D02*
X193344800Y-81178400D01*
X180568600Y-85648800D02*
X183286400Y-85648800D01*
X192684400Y-86258400D02*
X193344800Y-86918800D01*
X183896000Y-86258400D02*
X192684400Y-86258400D01*
X183286400Y-85648800D02*
X183896000Y-86258400D01*
X129286000Y-82854800D02*
X128778000Y-82854800D01*
X128778000Y-82854800D02*
X127254000Y-81330800D01*
X127254000Y-81330800D02*
X127254000Y-71526400D01*
X207365600Y-94996000D02*
X206451200Y-94996000D01*
X205892400Y-93827600D02*
X205892400Y-91592400D01*
X205892400Y-94437200D02*
X205892400Y-93827600D01*
X206451200Y-94996000D02*
X205892400Y-94437200D01*
X175564800Y-57759600D02*
X175564800Y-58166000D01*
X173685200Y-60045600D02*
X172923200Y-60045600D01*
X175564800Y-58166000D02*
X173685200Y-60045600D01*
X175564800Y-56489600D02*
X175564800Y-57759600D01*
X172923200Y-60045600D02*
X155244800Y-60045600D01*
X183540400Y-88798400D02*
X189382400Y-88798400D01*
X205892400Y-89306400D02*
X205892400Y-91592400D01*
X205892400Y-91592400D02*
X205892400Y-91643200D01*
X205384400Y-88798400D02*
X205892400Y-89306400D01*
X189382400Y-88798400D02*
X205384400Y-88798400D01*
X134416800Y-75438000D02*
X134416800Y-75488800D01*
X131368800Y-70154800D02*
X134416800Y-73202800D01*
X134416800Y-73202800D02*
X134416800Y-75438000D01*
X148640800Y-86664800D02*
X141960600Y-86664800D01*
X141960600Y-86664800D02*
X141935200Y-86690200D01*
X141935200Y-86690200D02*
X141630400Y-86690200D01*
X149910800Y-87934800D02*
X151307800Y-87934800D01*
X140157200Y-85217000D02*
X141630400Y-86690200D01*
X140157200Y-82905600D02*
X140157200Y-85217000D01*
X149910800Y-87934800D02*
X148640800Y-86664800D01*
X129286000Y-70154800D02*
X131368800Y-70154800D01*
X134416800Y-75488800D02*
X135432800Y-76504800D01*
X135432800Y-76504800D02*
X138785600Y-76504800D01*
X138785600Y-76504800D02*
X140157200Y-77876400D01*
X140157200Y-77876400D02*
X140157200Y-82905600D01*
X181889400Y-88188800D02*
X182930800Y-88188800D01*
X180568600Y-88188800D02*
X181889400Y-88188800D01*
X182930800Y-88188800D02*
X183540400Y-88798400D01*
X129286000Y-70154800D02*
X125933200Y-70154800D01*
X125933200Y-70154800D02*
X124968000Y-71120000D01*
X124968000Y-71120000D02*
X124968000Y-74117200D01*
X165455600Y-88112600D02*
X164007800Y-88112600D01*
X155194000Y-87934800D02*
X151307800Y-87934800D01*
X156286200Y-86842600D02*
X155194000Y-87934800D01*
X162737800Y-86842600D02*
X156286200Y-86842600D01*
X164007800Y-88112600D02*
X162737800Y-86842600D01*
X180568600Y-88188800D02*
X176428400Y-88188800D01*
X170103800Y-88112600D02*
X165455600Y-88112600D01*
X171297600Y-86918800D02*
X170103800Y-88112600D01*
X175158400Y-86918800D02*
X171297600Y-86918800D01*
X176428400Y-88188800D02*
X175158400Y-86918800D01*
X136906000Y-85394800D02*
X136906000Y-88188800D01*
X136906000Y-88188800D02*
X137007600Y-88290400D01*
X131927600Y-88290400D02*
X131927600Y-87833200D01*
X131927600Y-87833200D02*
X134924800Y-84836000D01*
X129286000Y-77774800D02*
X130962400Y-77774800D01*
X134823200Y-82854800D02*
X136906000Y-82854800D01*
X133096000Y-81127600D02*
X134823200Y-82854800D01*
X133096000Y-79908400D02*
X133096000Y-81127600D01*
X130962400Y-77774800D02*
X133096000Y-79908400D01*
X129286000Y-75234800D02*
X129286000Y-77774800D01*
X134924800Y-83718400D02*
X135788400Y-82854800D01*
X134924800Y-84836000D02*
X134924800Y-83718400D01*
X135788400Y-82854800D02*
X136906000Y-82854800D01*
X137007600Y-90322400D02*
X137871200Y-90322400D01*
X137871200Y-90322400D02*
X138938000Y-89255600D01*
X132359400Y-74142600D02*
X132359400Y-75971400D01*
X132359400Y-75971400D02*
X133350000Y-76962000D01*
X129286000Y-72694800D02*
X130911600Y-72694800D01*
X133350000Y-76962000D02*
X134975600Y-78587600D01*
X134975600Y-78587600D02*
X134975600Y-81026000D01*
X134975600Y-81026000D02*
X135534400Y-81584800D01*
X135534400Y-81584800D02*
X138328400Y-81584800D01*
X138328400Y-81584800D02*
X138938000Y-82194400D01*
X138938000Y-82194400D02*
X138938000Y-89255600D01*
X130911600Y-72694800D02*
X132359400Y-74142600D01*
X136906000Y-80314800D02*
X136906000Y-77774800D01*
X132892800Y-97129600D02*
X131622800Y-97129600D01*
X130759200Y-96266000D02*
X130759200Y-95453200D01*
X131622800Y-97129600D02*
X130759200Y-96266000D01*
X124155200Y-95402400D02*
X128208400Y-95402400D01*
X128208400Y-95402400D02*
X128259200Y-95453200D01*
X124764800Y-79959200D02*
X124764800Y-81838800D01*
X124764800Y-81838800D02*
X126492000Y-83566000D01*
X126492000Y-83566000D02*
X126492000Y-89458800D01*
X124155200Y-90322400D02*
X125628400Y-90322400D01*
X125628400Y-90322400D02*
X126492000Y-89458800D01*
X124155200Y-90322400D02*
X124917200Y-90322400D01*
X118008400Y-50546000D02*
X118008400Y-51003200D01*
X114909600Y-54102000D02*
X114909600Y-54660800D01*
X115417600Y-53594000D02*
X114909600Y-54102000D01*
X118008400Y-51003200D02*
X117602000Y-51409600D01*
X122580400Y-54711600D02*
X122580400Y-53289200D01*
X118008400Y-50596800D02*
X118008400Y-50546000D01*
X118008400Y-50546000D02*
X118008400Y-49428400D01*
X118770400Y-51358800D02*
X118008400Y-50596800D01*
X120650000Y-51358800D02*
X118770400Y-51358800D01*
X122580400Y-53289200D02*
X120650000Y-51358800D01*
X116484400Y-75285600D02*
X116179600Y-75285600D01*
X116179600Y-75285600D02*
X114909600Y-74015600D01*
X114909600Y-74015600D02*
X114909600Y-54660800D01*
X124764800Y-77459200D02*
X123484000Y-77459200D01*
X118110000Y-75285600D02*
X116484400Y-75285600D01*
X119380000Y-76555600D02*
X118110000Y-75285600D01*
X122580400Y-76555600D02*
X119380000Y-76555600D01*
X123484000Y-77459200D02*
X122580400Y-76555600D01*
D25*
X145440400Y-56591200D02*
X146100800Y-56591200D01*
X146100800Y-56591200D02*
X147828000Y-54864000D01*
X147828000Y-54864000D02*
X147828000Y-50698400D01*
X142900400Y-56591200D02*
X145440400Y-56591200D01*
X118821200Y-106578400D02*
X122072400Y-106578400D01*
X122072400Y-106578400D02*
X122224800Y-106730800D01*
X116281200Y-106578400D02*
X118821200Y-106578400D01*
X118821200Y-106578400D02*
X118821200Y-106680000D01*
D27*
X125120400Y-54711600D02*
X125120400Y-52730400D01*
X127355600Y-50495200D02*
X129336800Y-50495200D01*
X125120400Y-52730400D02*
X127355600Y-50495200D01*
X120142000Y-58013600D02*
X120142000Y-58521600D01*
X120142000Y-58521600D02*
X121259600Y-59639200D01*
X128117600Y-58115200D02*
X129336800Y-58115200D01*
X126593600Y-59639200D02*
X128117600Y-58115200D01*
X121259600Y-59639200D02*
X126593600Y-59639200D01*
X118592600Y-58140600D02*
X120015000Y-58140600D01*
X120015000Y-58140600D02*
X120142000Y-58013600D01*
X117805200Y-63144400D02*
X117805200Y-58928000D01*
X117805200Y-58928000D02*
X118592600Y-58140600D01*
X118592600Y-58140600D02*
X118618000Y-58115200D01*
X118872000Y-64211200D02*
X117805200Y-63144400D01*
X122682000Y-58013600D02*
X122682000Y-57708800D01*
X122682000Y-57708800D02*
X121361200Y-56388000D01*
X116738400Y-54610000D02*
X116738400Y-49428400D01*
X118516400Y-56388000D02*
X116738400Y-54610000D01*
X121361200Y-56388000D02*
X118516400Y-56388000D01*
X124155200Y-97942400D02*
X124155200Y-100482400D01*
X120446800Y-97942400D02*
X124155200Y-97942400D01*
X118668800Y-96164400D02*
X120446800Y-97942400D01*
X125222000Y-58013600D02*
X126695200Y-58013600D01*
X127762000Y-55981600D02*
X128168400Y-55575200D01*
X127762000Y-56946800D02*
X127762000Y-55981600D01*
X126695200Y-58013600D02*
X127762000Y-56946800D01*
X128168400Y-55575200D02*
X129336800Y-55575200D01*
X120802400Y-65125600D02*
X120802400Y-64058800D01*
X121666000Y-63195200D02*
X129336800Y-63195200D01*
X120802400Y-64058800D02*
X121666000Y-63195200D01*
X120802400Y-65125600D02*
X120802400Y-61874400D01*
X120802400Y-61874400D02*
X120192800Y-61264800D01*
X125272800Y-61264800D02*
X127304800Y-61264800D01*
X127914400Y-60655200D02*
X129336800Y-60655200D01*
X127304800Y-61264800D02*
X127914400Y-60655200D01*
X189636400Y-63398400D02*
X190144400Y-63398400D01*
X190144400Y-63398400D02*
X190906400Y-64160400D01*
X190296800Y-79908400D02*
X190906400Y-79298800D01*
X188823600Y-79908400D02*
X190296800Y-79908400D01*
X190906400Y-79298800D02*
X190906400Y-64160400D01*
X189636400Y-63398400D02*
X181254400Y-63398400D01*
X181254400Y-63398400D02*
X180848000Y-63804800D01*
X198577200Y-60655200D02*
X196545200Y-58623200D01*
X196545200Y-58623200D02*
X196545200Y-58216800D01*
D28*
X193294000Y-58775600D02*
X195986400Y-58775600D01*
X195986400Y-58775600D02*
X196545200Y-58216800D01*
D27*
X135585200Y-106324400D02*
X135585200Y-102768400D01*
X135585200Y-102768400D02*
X135991600Y-102362000D01*
X132892800Y-95046800D02*
X133299200Y-95046800D01*
X133299200Y-95046800D02*
X135991600Y-97739200D01*
X135991600Y-97739200D02*
X135991600Y-102362000D01*
D28*
X193294000Y-56032400D02*
X196189600Y-56032400D01*
X196189600Y-56032400D02*
X196545200Y-55676800D01*
X193294000Y-53238400D02*
X196443600Y-53238400D01*
X196443600Y-53238400D02*
X196545200Y-53136800D01*
X193294000Y-50393600D02*
X196342000Y-50393600D01*
X196342000Y-50393600D02*
X196545200Y-50596800D01*
D27*
X137972800Y-95046800D02*
X135686800Y-95046800D01*
X127711200Y-93624400D02*
X125679200Y-91592400D01*
X134264400Y-93624400D02*
X127711200Y-93624400D01*
X135686800Y-95046800D02*
X134264400Y-93624400D01*
X116535200Y-92862400D02*
X117906800Y-92862400D01*
X119176800Y-91592400D02*
X125679200Y-91592400D01*
X117906800Y-92862400D02*
X119176800Y-91592400D01*
X137972800Y-95046800D02*
X137972800Y-97129600D01*
D28*
X200660000Y-90068400D02*
X204063600Y-90068400D01*
X185420000Y-62128400D02*
X188823600Y-62128400D01*
X200660000Y-87528400D02*
X204063600Y-87528400D01*
X185420000Y-64668400D02*
X188823600Y-64668400D01*
X200660000Y-84988400D02*
X204063600Y-84988400D01*
X185420000Y-67208400D02*
X188823600Y-67208400D01*
X200660000Y-82448400D02*
X204063600Y-82448400D01*
X185420000Y-69748400D02*
X188823600Y-69748400D01*
X200660000Y-79908400D02*
X204063600Y-79908400D01*
X185420000Y-72288400D02*
X188823600Y-72288400D01*
X200660000Y-77368400D02*
X204063600Y-77368400D01*
X200660000Y-74828400D02*
X204063600Y-74828400D01*
X185420000Y-77368400D02*
X188823600Y-77368400D01*
X200660000Y-72288400D02*
X204063600Y-72288400D01*
X200660000Y-69748400D02*
X204063600Y-69748400D01*
X200660000Y-67208400D02*
X204063600Y-67208400D01*
X185420000Y-84988400D02*
X188823600Y-84988400D01*
X200660000Y-64668400D02*
X204063600Y-64668400D01*
X185420000Y-87528400D02*
X188823600Y-87528400D01*
M02*
